<?xml version="1.0" encoding="utf-8"?>
<!-- Generator: Adobe Illustrator 24.2.1, SVG Export Plug-In . SVG Version: 6.00 Build 0)  -->
<svg version="1.1" id="Layer_1" xmlns="http://www.w3.org/2000/svg" xmlns:xlink="http://www.w3.org/1999/xlink" x="0px" y="0px"
	 viewBox="0 0 454 214" style="enable-background:new 0 0 454 214;" xml:space="preserve">
<style type="text/css">
	.st0{fill:#FEFEFE;}
	.st1{fill:#F1F1F1;}
	.st2{fill:#172832;}
	.st3{fill:#182933;}
	.st4{fill:#182832;}
	.st5{fill:#1B2B35;}
	.st6{fill:#1D2832;}
	.st7{fill:#1B2B34;}
	.st8{fill:#1F2B34;}
	.st9{fill:#FCFCFC;}
	.st10{fill:#F7F7F7;}
	.st11{fill:#414A52;}
	.st12{fill:#343D44;}
	.st13{fill:#364048;}
	.st14{fill:#414B52;}
	.st15{fill:#3C454B;}
	.st16{fill:#2F3C44;}
	.st17{fill:#2E3A43;}
	.st18{fill:#FCF7F7;}
	.st19{fill:#414A51;}
	.st20{fill:#363E43;}
	.st21{fill:#434C53;}
	.st22{fill:#323C44;}
	.st23{fill:#303439;}
	.st24{fill:#353B3F;}
	.st25{fill:#20323D;}
	.st26{fill:#1C2B35;}
	.st27{fill:#2E3A42;}
	.st28{fill:#384046;}
	.st29{fill:#3F484E;}
	.st30{fill:#2A3339;}
	.st31{fill:#373E44;}
	.st32{fill:#42494F;}
	.st33{fill:#29363E;}
	.st34{fill:#1C2932;}
	.st35{fill:#414A50;}
	.st36{fill:#2C2D32;}
	.st37{fill:#333B41;}
	.st38{fill:#F6F6F6;}
	.st39{fill:#374047;}
	.st40{fill:#1D2B34;}
	.st41{fill:#39424A;}
	.st42{fill:#232A32;}
	.st43{fill:#363C42;}
	.st44{fill:#1A2A34;}
	.st45{fill:#434C54;}
	.st46{fill:#F8F7F7;}
	.st47{fill:#D8DADB;}
	.st48{fill:#2C3B43;}
	.st49{fill:#3B444B;}
	.st50{fill:#212C36;}
	.st51{fill:#3D464D;}
	.st52{fill:#192B35;}
	.st53{fill:#202932;}
	.st54{fill:#919397;}
	.st55{fill:#4D575C;}
	.st56{fill:#1C2C35;}
	.st57{fill:#414950;}
	.st58{fill:#2E323B;}
	.st59{fill:#525A5F;}
	.st60{fill:#1C2A33;}
	.st61{fill:#F5F5F5;}
	.st62{fill:#232F37;}
	.st63{fill:#484E54;}
	.st64{fill:#41474E;}
	.st65{fill:#495158;}
	.st66{fill:#3E464D;}
	.st67{fill:#FDFDFD;}
	.st68{fill:#40484E;}
	.st69{fill:#C6C6C6;}
	.st70{fill:#E1E1E1;}
	.st71{fill:#E0E0E1;}
</style>
<g>
	<path class="st0" d="M297.97,170.9c-90.29,0-180.58-0.02-270.88,0.1c-3.42,0-4.11-0.67-4.1-4.09c0.14-51.61,0.14-103.21,0-154.82
		C22.99,8.67,23.67,8,27.1,8C168.03,8.11,308.97,8.11,449.9,8c3.42,0,4.1,0.67,4.1,4.09c-0.14,51.61-0.14,103.21,0,154.82
		c0.01,3.42-0.67,4.1-4.1,4.09c-48.31-0.14-96.62-0.1-144.93-0.1c-0.18-2.52,2.76-1.96,3.51-3.57c0.54-0.47,1.11-0.9,1.66-1.36
		c12.54-8.77,18.35-21.95,23.46-35.61c5.65-15.1,10.52-30.47,15.54-45.79c3.94-11.27,2.46-9.54,14.23-10.04
		c0.32-0.19,0.2-0.17-0.34-0.17c-9.75-0.06-10.18-0.65-7.16-9.83c0.67-2.04,1.35-4.07,2.02-6.11c2.82-7.52,6.52-14.58,11.42-20.97
		c1.93-2.13,4.18-3.82,7.01-4.49c3.06-0.73,4.37,0.57,3.87,3.69c-0.1,0.65-0.4,1.26-0.55,1.91c-0.81,3.59,0.41,6.33,3.84,7.62
		c2.82,1.07,5.31-0.06,6.89-2.54c1.95-3.05,1.59-6.14-1.1-8.54c-3.83-3.42-8.47-3.35-13.12-2.24c-2.08,0.5-4.04,1.48-5.76,2.83
		c-12.29,7.62-20.13,18.9-26.08,31.73c-1.03,2.22-1.5,4.78-3.75,6.27c-3.56,1.19-7.25,0.37-10.92,0.7
		c-0.23,0.19-0.11,0.21,0.43,0.21c10.76,0.15,10.76,0.15,7.82,12.3c-6.4,19.35-10.58,39.33-16.77,58.73
		c-2.42,7.58-4.75,15.24-11.42,20.46c-1.36,1.01-2.85,1.83-4.59,1.67c-2.3-0.22-4.05-1.21-2.88-3.88c1.38-3.15,2.36-6.17-1.54-8.09
		c-2.52-1.24-4.94-0.53-6.7,1.69c-2.67,3.38-1.1,6.2,1.35,8.85c0.45,0.49,0.91,0.97,1.34,1.49
		C297.28,168.79,298.49,169.48,297.97,170.9z"/>
	<path class="st1" d="M297.97,170.9c-0.65-0.71-1.3-1.43-1.95-2.14c4.29-0.82,8.62-0.92,12.96-0.61c-0.2,2.57-3.19,1.08-4.02,2.74
		C302.64,170.9,300.31,170.9,297.97,170.9z"/>
	<path class="st2" d="M340.88,72.8c5.06-13.34,12.18-25.29,23.4-34.45c1.64-1.34,3.12-2.99,5.35-3.43c3.14,0.76,0.29,2.21,0.38,3.31
		c-4.51,6.14-7.72,13-11.04,19.81c-3.35,8.9-5.92,18.05-8.99,27.04c-6.15,20.06-12.16,40.19-20.98,59.29
		c-3.9,8.43-9.15,16.05-16.71,21.8c-0.72,0.54-1.35,0.84-2.19,0.79c-1.14,0.36-1.4-0.16-1.17-1.17
		c10.25-10.55,11.98-24.72,15.92-37.9c4.07-13.62,7.09-27.55,11.89-40.96C338.97,82.48,339.45,77.5,340.88,72.8z"/>
	<path class="st3" d="M159.1,135.07c-3.62,2.21-7.32,4.17-11.75,4.02c-1.87,1.23-3.75,1.22-5.62,0.01
		c-10.54-0.45-18.22-5.69-23.53-14.47c-9.28-15.34-5.71-36.87,7.88-48.62c10.76-9.31,24.32-8.98,34.56,0.95
		c4.61,4.46,7.84,9.79,9.78,15.96c1.29,4.09,0.47,5.76-4.16,5.67c-11.14-0.23-22.28-0.13-33.42,0c-1.28,0.01-3.47-1.39-3.88,1.41
		c1.3,5.4,0.39,10.88,0.52,16.31c0.1,3.97,0.06,7.91,1.56,11.68c0.44,3.2,2.98,4.79,5.1,6.72c5.1,2.92,10.45,2,15.8,1.03l-0.07,0.03
		c1.53-0.23,2.91-0.82,4.18-1.7c0.61-0.45,1.02-1.28,1.99-1.03C158.89,133.45,159.71,133.89,159.1,135.07z"/>
	<path class="st3" d="M274.97,127.97c0.93,4.4,4.51,6.15,8,7.97c4.31,0.73,8.62,1.05,12.9-0.21l-0.07,0.03
		c1.52-0.25,2.91-0.83,4.17-1.7c0.62-0.43,1.02-1.28,1.99-1.03c0.86,0.42,1.67,0.86,1.06,2.04c-3.61,2.24-7.32,4.15-11.74,4.03
		c-1.88,1.22-3.76,1.21-5.64,0c-10.7-0.51-18.46-5.86-23.73-14.88c-8.62-14.78-5.64-35.01,6.71-46.91
		c11.8-11.38,27.45-10.58,38.17,1.88c2.84,3.31,4.74,7.19,6.98,10.87c2.77,8.41,2.77,8.41-5.79,8.41c-10.16,0-20.31-0.02-30.47,0.02
		c-1.69,0.01-3.94-0.68-3.87,2.32C273.85,109.88,272.14,119.04,274.97,127.97z"/>
	<path class="st2" d="M61.95,137.34c-4.5-1.71-7.95-4.6-10.02-9c-1.2-1.34-1.92-0.98-1.99,0.68c-0.1,2.6,1.25,5.8-0.83,7.61
		c-2.3,1.99-5.72,0.67-8.64,0.76c-2.07,0.06-4.27,0.6-6.29-0.51c0.02-2.15,2.03-1.91,3.07-2.77c0.7-1.6,0.34-3.29,0.34-4.93
		c0.03-28.25-0.02-56.5,0.08-84.75c0.01-2.58-1.39-5.49,0.06-7.63c1.49-2.21,4.68-0.93,7.06-1.59c5.19-1.44,5.23-1.33,5.28,4.31
		c0.13,14.12-0.23,28.24,0.18,42.35c0.26,1.16,1.47,1.43,2.14,2.21c0.24,0.46,0.36,0.96,0.37,1.48c-0.21,1.54-0.37,3.09-0.29,4.66
		c-1.28,10.13-1.29,20.26,0.01,30.38c-0.08,1.75,0.01,3.46,1.18,4.91c2.01,4.19,6.52,6.12,8.98,9.9
		C62.77,136.16,62.62,136.85,61.95,137.34z"/>
	<path class="st3" d="M439.95,138.07c-6.23,2.62-12.42,1.72-18.27-0.9c-5.07-2.27-6.8-6.86-6.78-12.29
		c0.07-14.93-0.09-29.86,0.1-44.79c0.05-3.53-0.99-4.75-4.45-4.36c-2.13,0.24-4.31,0.03-6.47,0.03c-1.18,0-2.63,0.02-2.73-1.44
		c-0.12-1.7,1.49-1.36,2.57-1.5c1.81-0.24,3.62-0.43,5.42-0.71c7.47-1.14,12.18-5.53,14.71-12.5c0.56-1.55,1.19-3.07,1.78-4.6
		c0.99-0.75,0.12-2.37,1.64-3.09c1.59,1.36,0.88,3.26,0.88,4.87c0.06,23.87,0.09,47.74-0.04,71.6c-0.02,3.29,0.73,5.84,3.39,7.75
		c2.61,0.69,5.3,0.01,7.93,0.42C440.2,136.98,440.31,137.48,439.95,138.07z"/>
	<path class="st2" d="M231.92,133.74c-0.03-15.59-0.06-31.19-0.08-46.78c-0.02-14.59-6.66-18.54-19.49-11.59
		c-0.43,0.23-0.89,0.43-1.33,0.64c-1.21,0.64-2.13,0.73-2.04-1.08c7.94-6.81,20.84-7.72,29.46-2.07c4.31,2.82,6.56,6.8,6.66,11.96
		c0.87,12.77,0.14,25.55,0.4,38.33c0.07,3.48-1.34,7.75,0.5,10.24c2.01,2.72,6.53,0.58,9.9,1.14c0.31,0.05,0.58,0.3,0.87,0.47
		c0.45,0.6,0.56,1.24,0.18,1.92c-12.39,0.93-24.79,0.63-37.19,0.15c-1.08-0.81-1.18-1.55,0.16-2.19
		C223.82,133.51,228.06,135.6,231.92,133.74z"/>
	<path class="st3" d="M404.79,135.01c0.88,0.58,1.03,1.22,0.15,1.94c-12.59,0.74-25.17,0.89-37.75-0.07
		c-0.55-0.87-0.58-1.61,0.52-2.07c1.1-0.52,2.28-0.33,3.43-0.34c7.38-0.09,7.39-0.09,7.4-7.71c0.01-12.76,0.02-25.52-0.01-38.27
		c-0.01-5.33,1.1-10.99-3.94-15.02c4.76-1.58,9.84-1.13,14.66-2.32c3.34-1.82,3.77-0.31,3.75,2.82c-0.12,20-0.06,39.99-0.06,59.99
		C396.79,135.38,400.94,133.5,404.79,135.01z"/>
	<path class="st3" d="M175.05,73.1c7.24-0.89,14.61,0.59,21.81-1.16c1.28-0.63,2.26-0.46,2.55,1.1c0.21,1.13,0.19,2.31,0.07,3.45
		c-0.39,3.67,0,7.08,2.74,9.87c-1.69,2.4-2.06,5.11-2.05,7.98c0.02,13.13-0.04,26.26-0.07,39.39c3.48,1.9,7.41-0.25,10.94,1.18l0,0
		c0.92,2.29-0.54,2.49-2.2,2.5c-10.55,0.01-21.09,0.02-31.64,0c-1.69,0-3.1-0.26-2.2-2.52l0,0c0.75-0.46,1.58-0.42,2.42-0.44
		c9.14-0.24,9.14-0.24,9.14-9.61c-0.01-15.97,0.02-31.94-0.01-47.91c-0.19-1.39-1.03-1.43-2.13-1.06c-2.26,0.75-4.59,0.67-6.87,0.3
		C175.97,75.93,174.01,75.62,175.05,73.1z"/>
	<path class="st4" d="M61.95,137.34c0.04-0.75,0.09-1.51,0.13-2.26c1.19-0.82,2.33-0.17,3.49,0.09c4.22,1.21,8.39,1.42,12.46-0.6
		c5.38-2.9,7.77-7.88,8.17-13.51c0.82-11.41,1.48-22.92-0.39-34.26c-1.97-11.97-9.68-16.04-21.12-11.89c-2.18,0.79-4,2.42-6.42,2.6
		c-0.89-0.19-1.52-0.58-1.26-1.65c6.21-7.43,17.54-9.06,27.63-3.95c23.96,12.12,26.04,48.1,3.61,62.77
		c-3.91,2.56-8.19,4.25-12.97,4.36c-2.47,0.58-4.94,0.58-7.41,0C65.64,139.37,63.68,138.75,61.95,137.34z"/>
	<path class="st5" d="M370.01,38.23c-0.41-1.07,1.19-2.38-0.38-3.31c4.39-3.58,9.51-4.56,14.92-3.75c4.07,0.61,7.04,3.06,8.09,7.13
		c0.85,3.28-0.08,6.33-2.97,8.34c-2.84,1.97-5.91,2.15-8.76-0.05c-2.95-2.27-3.75-5.33-2.76-8.86c0.35-1.23,1.74-2.02,1.58-3.71
		C375.21,32.49,372.96,36.21,370.01,38.23z"/>
	<path class="st6" d="M50.07,85.01c-1.7-1.66-0.94-3.78-0.95-5.68c-0.06-14.77-0.04-29.55-0.04-44.18
		c-1.63-0.61-2.55,0.37-3.63,0.63c-7.36,1.81-7.36,1.81-7.36,9.65c0,27.93,0.01,55.86-0.03,83.79c0,1.92,0.69,4.02-0.86,5.74
		c-0.63-0.32-0.71-0.74-0.23-1.26c-0.05-29.9-0.19-59.79-0.04-89.69c0.02-4.42-0.9-6.57-5.64-5.72c-0.97,0.17-1.99,0.05-2.99,0.01
		c-0.96-0.04-2.17,0.12-2.32-1.24c-0.18-1.64,1.06-1.84,2.28-1.85c2.99-0.03,5.99-0.08,8.98-0.01c4.05,0.1,7.95-0.43,11.58-2.34
		c1.85-0.23,1.73,1.11,1.74,2.25c0.1,16.19-0.12,32.37,0.13,48.56C50.69,84.16,50.3,84.57,50.07,85.01z"/>
	<path class="st7" d="M308.92,165.79c0.39,0.39,0.78,0.78,1.17,1.17c-0.37,0.4-0.74,0.8-1.1,1.2c-4.26,1.55-8.58,1.76-12.96,0.61
		c-1.75-1.73-3.78-3.19-4.49-5.78c-0.98-3.56,0.31-6.27,3.21-8.11c2.99-1.89,6.14-1.52,8.68,0.93c2.54,2.45,2.37,5.27,0.32,8.05
		c-0.53,0.71-1.79,1.29-0.88,2.44c0.71,0.9,1.82,0.68,2.78,0.47C306.75,166.53,307.83,166.12,308.92,165.79z"/>
	<path class="st8" d="M432.02,136.89c-3.31-1.52-4.2-4.14-4.18-7.67c0.11-25.33,0.06-50.67,0.06-76.46
		c-0.88,0.96-1.46,1.61-2.05,2.26c0.07-1.59-0.45-4,1.74-3.93c1.77,0.06,1.11,2.43,1.13,3.82c0.08,4.48,0.32,8.99-0.05,13.44
		c-0.34,4,1.31,4.75,4.84,4.53c4.47-0.28,8.97-0.11,13.46-0.03c1.17,0.02,3.07-0.66,3.14,1.33c0.08,1.92-1.72,1.59-2.99,1.6
		c-4.99,0.02-9.97,0.12-14.95-0.03c-2.51-0.08-3.48,0.61-3.46,3.32c0.12,16.44,0.07,32.88,0.08,49.32c0,2.95,0.67,5.6,3.2,7.47
		c0.3,0.22,0.41,0.44,0.33,0.68C432.21,136.77,432.12,136.89,432.02,136.89z"/>
	<path class="st9" d="M185.02,76.06c0,16.61,0,33.23,0,49.84c0,7.14,0,7.13-7.38,7.05c-0.8-0.01-1.6,0-2.71,0
		c0.42-0.55,0.56-0.9,0.72-0.91c7.37-0.47,7.37-0.47,7.37-8.13c0-13.62-0.13-27.25,0.08-40.87c0.06-3.84-0.92-5.58-4.99-5.1
		c-1.63,0.19-3.95,0.72-3.93-2.29C177.81,75.65,181.45,75,185.02,76.06z"/>
	<path class="st10" d="M274.97,127.97c-3.34-5.83-2.18-12.25-2.28-18.46c-0.17-11.07-0.05-11.07,11.02-11.07
		c8.47,0,16.93,0.01,25.4,0c6.46-0.01,6.47-0.03,4.94-6.43c-0.15-0.64-0.18-1.3-0.27-1.96c1.57,0.81,1.59,2.51,1.95,3.86
		c0.89,3.33,0.12,5.26-4.06,5.19c-12.12-0.2-24.24-0.07-36.38,0.75c12.52,0,25.05,0,37.57,0c0,0.37,0,0.75,0,1.12
		c-10.7,0-21.4,0-32.1,0c-6.76,0-6.78,0-6.76,6.67C274,114.44,273.68,121.25,274.97,127.97z"/>
	<path class="st11" d="M374.96,73.1c0.04,0.16,0.04,0.45,0.11,0.47c6.38,1.62,4.95,6.73,4.96,11.15
		c0.02,14.77-0.16,29.55,0.11,44.32c0.08,4.64-1.04,6.87-6,6.14c-2.12-0.31-4.29-0.25-6.44-0.37c3-1.23,6.21,0.04,9.24-0.78
		c0.38-0.46,0.67-0.98,0.85-1.55c0.12-18.31,0.5-36.63-0.19-54.93c-0.78-1.54-2.7-0.54-3.68-1.64c-1.11-0.67-0.97-1.76-0.96-2.81
		C373.63,72.43,374.3,72.44,374.96,73.1z"/>
	<path class="st12" d="M263.95,168c-4.16-1.96-5.2-5.45-3.93-9.44c1.23-3.86,4.33-5.79,8.42-5.51c4.18,0.29,6.55,2.92,7.09,6.88
		c0.3,2.22,0.51,4.81-2.27,6.06c-0.85,0.54-1.28,0-1.68-0.63c-0.12-0.44-0.14-0.89-0.05-1.34c0.72-1.45,1.85-2.9,0.13-4.43
		c-1.94-1.76-4.07-3.25-6.63-1.45c-2.41,1.69-1.66,4.03-0.7,6.26c0.33,0.77,0.5,1.57,0.38,2.42
		C264.58,167.31,264.32,167.69,263.95,168z"/>
	<path class="st8" d="M349.98,85.08c2.08-9.32,4.63-18.48,8.99-27.04c-1.04,3.65-1.79,7.41-3.21,10.9c-1.54,3.78,0.12,4.13,3.18,3.9
		c2.14-0.16,4.31-0.06,6.46,0c0.92,0.03,2.19-0.19,2.3,1.2c0.13,1.67-1.21,1.67-2.38,1.72c-0.33,0.02-0.68,0.07-0.99,0
		C356.4,74.05,351.55,77.05,349.98,85.08z"/>
	<path class="st13" d="M36.97,133.7c0.08,0.42,0.15,0.84,0.23,1.26c-0.72,0.37-1.44,0.74-2.17,1.1c0.01,0.25,0.03,0.5,0.04,0.75
		c3.95,0,7.89,0.02,11.84-0.01c2.11-0.02,2.18-1.55,2.19-3.1c0.01-1.8-0.01-3.61,0.11-5.41c0.05-0.78,0.36-1.71,1.4-1.68
		c1.02,0.03,1.26,0.86,1.32,1.73c-2.66,1.57-0.93,4.08-1.18,6.11c-0.26,2.12-0.58,3.43-3.11,3.39c-6.32-0.1-12.64-0.02-18.96-0.05
		c-1.29-0.01-2.95,0.16-2.76-1.87c0.14-1.55,1.54-1.43,2.69-1.53C31.39,134.14,34.26,134.97,36.97,133.7z"/>
	<path class="st14" d="M187.04,75.98c0.03,18.28,0.01,36.55,0.15,54.83c0.02,3.16-0.9,4.67-4.25,4.37
		c-2.64-0.24-5.31-0.19-7.96-0.28c0.6-0.2,1.2-0.53,1.81-0.57c9.38-0.51,9.39-0.51,9.38-9.71c-0.02-16.21-0.06-32.42-0.09-48.63
		C186.4,75.67,186.72,75.66,187.04,75.98z"/>
	<path class="st10" d="M131.04,127.98c-2.76-4.26-2.21-9.1-2.32-13.78c-0.11-4.73,0.14-9.47,0.23-14.21c13.27,0,26.54,0,39.81,0
		c0.01,0.33,0.01,0.66,0.02,0.99c-6.27,0-12.53,0-18.8,0c-5.32,0-10.64,0.13-15.96-0.05c-3.04-0.1-4.26,0.97-4,4.02
		c0.59,7.02-1.24,14.18,1.35,21.09C131.58,126.57,131.17,127.33,131.04,127.98z"/>
	<path class="st15" d="M44.2,153.88c1.72,1.31,1.53,1.93-0.65,2.2c-1.42,0.17-3.69-1.28-4.08,1.2c-0.38,2.34,2.12,2.72,3.61,3.33
		c2.99,1.23,3.74,3.35,2.34,5.84c-1.56,2.78-4.4,3.21-7.3,2.15c-0.56-0.2-1.24-1.46-1.07-1.97c0.42-1.3,1.41-0.73,2.38-0.34
		c1.53,0.62,3.08,0.48,3.57-1.37c0.47-1.75-1.17-2.05-2.31-2.66c-4.8-2.59-5.25-4.78-1.74-8.38C40.7,153.2,42.45,153.19,44.2,153.88
		z"/>
	<path class="st16" d="M159.1,135.07c-0.35-0.68-0.71-1.36-1.06-2.04c5.55-3.83,8.8-9.22,10.57-15.59c0.4-1.44,0.64-3.32,2.71-2.45
		c2.15,0.9,0.06,2.23-0.19,3.25C169.36,125.41,166.49,131.87,159.1,135.07z"/>
	<path class="st17" d="M303.03,135.07c-0.35-0.68-0.71-1.36-1.06-2.04c5.67-3.75,8.77-9.24,10.57-15.6
		c0.41-1.45,0.65-3.32,2.71-2.46c2.16,0.9,0.05,2.23-0.2,3.25C313.3,125.41,310.47,131.91,303.03,135.07z"/>
	<path class="st18" d="M394.93,134.04c0-20.6,0-41.19,0-61.79c0.33,0,0.67,0,1,0c0,20.6,0,41.19,0,61.79
		C395.6,134.31,395.26,134.31,394.93,134.04z"/>
	<path class="st19" d="M256.76,135.01c-11.94,0.53-11.97,0.53-11.93-11.36c0.05-12.94,0.17-25.87,0.26-38.81
		c1.17,10.07,0.27,20.18,0.51,30.26c0.11,4.64,0.38,9.33-0.08,13.92c-0.46,4.62,1.34,5.77,5.55,5.36
		C252.91,134.21,255.01,133.55,256.76,135.01z"/>
	<path class="st10" d="M373.92,75.91c1.34,0.06,2.68,0.12,4.02,0.18c1,2.4,0.44,4.91,0.45,7.36c0.06,15.24,0.05,30.48,0.01,45.73
		c0,1.62,0.43,3.32-0.47,4.87c-0.33,0-0.66-0.01-0.99-0.01c0-17.39-0.06-34.78,0.05-52.16C377.01,79.15,376.52,77.08,373.92,75.91z"
		/>
	<path class="st8" d="M340.88,72.8c-0.22,5.05-1.13,9.9-4.15,14.13c-0.08-3.79,4.17-7.95,1.91-10.51
		c-1.65-1.86-6.88-0.51-10.51-0.66c-1.27-0.05-3.11,0.07-2.93-1.75c0.18-1.84,2.09-1.13,3.24-1.16
		C332.58,72.75,336.73,72.81,340.88,72.8z"/>
	<path class="st20" d="M155.11,164.91c-3.24-1.03-6.57-2.49-8.1,2.43c-0.26,0.83-1.25,1.96-2.25,1.45c-1.7-0.86-0.15-1.96,0.23-2.83
		c1.58-3.56,3.51-6.98,4.84-10.62c1.04-2.86,2.05-1.09,3.2-0.39c1.05,1.41-0.06,2.36-0.71,3.41c0.04,0.52-1.57,1.49,0.43,1.44
		c0.69-0.46,1.22-1.28,2.21-0.86c0.76,1.62,1.52,3.25,2.28,4.87C156.85,164.76,156.22,165.29,155.11,164.91z"/>
	<path class="st21" d="M50.07,85.01c-0.06-15.51-0.1-31.03-0.22-46.54c-0.01-1.89,0.71-4.01-1.04-5.61c3.69-0.85,1.79,2.14,1.8,3.09
		c0.15,13.68,0.06,27.37,0.16,41.06c0.01,1.59-1.11,3.68,1.2,4.78c0.64,0.69,0.65,1.41,0.11,2.17
		C51.42,84.3,50.74,84.66,50.07,85.01z"/>
	<path class="st22" d="M202.22,86.36c-3.03-1.56-3.31-4.16-3.35-7.27c-0.03-2.39,1.9-5.72-2.01-7.15c0.78-0.81,1.56-2,2.8-1.5
		c1.09,0.44,0.57,1.74,0.58,2.66c0.06,3.25,0.02,6.51,0.02,10.46c3.43-3,4.99-6.95,8.7-8.63c0.43,0.84,1.22,0.99,2.04,1.08
		C208.08,79.46,205.15,82.91,202.22,86.36z"/>
	<path class="st23" d="M189.88,158.6c0.61-2.62,2.19-4.26,4.84-4.83c2.13-0.48,4.25-0.64,6.35,0.12c0.81,0.27,1.83,0.91,1.52,1.56
		c-0.47,0.99-1.67,0.44-2.59,0.29c-1.67-0.51-3.34-0.61-4.99,0.06c-2.83,0.98-4.35,3.27-3.83,5.94c1.16,5.99,6.36,4.88,10.77,5.17
		c-4.44,3.95-9.65,2.57-11.96-2.94C189.22,162.2,189.42,160.41,189.88,158.6z"/>
	<path class="st24" d="M133.45,153.77c2.49,1.98,4.34,4.02,1.32,7.1c-0.99,1.01,1.19,1.74,0.62,2.89c-0.47,0.52-1.01,0.6-1.61,0.24
		c-4.12-2.66-4.12-2.66-4.7,3.92c-1.51,0.16-1.48-0.93-1.5-1.91c-0.04-2.46-0.02-4.92-0.01-7.39
		C127.58,153.15,127.58,153.15,133.45,153.77z"/>
	<path class="st25" d="M81.14,159.84c-1.5,1.21-2.2-1.16-3.82-0.71c0,2.7,0.03,5.47-0.02,8.23c-0.01,0.63-0.21,1.33-1.06,1.38
		c-0.86,0.05-1.15-0.56-1.15-1.26c-0.02-4.69-0.01-9.38,0.54-14.19c1.85,2.39,5.27,3.2,5.4,6.63L81.14,159.84z"/>
	<path class="st14" d="M174.98,134.9c0.21,1.76,1.43,1.95,2.87,1.94c10.1-0.02,20.19-0.02,30.29,0c1.43,0,2.67-0.15,2.89-1.92
		c2.03,1.91,0.93,2.81-1.14,2.83c-11.21,0.08-22.42,0.07-33.63,0.02C174.07,137.76,173.25,136.81,174.98,134.9z"/>
	<path class="st26" d="M177.18,163.58c2.42,0.1,1.33-1.75,1.49-2.81c0.37-2.45-0.65-5.1,1.56-8.81c1.35,6.1,0.71,10.93,0.72,15.68
		c0,1.34-1.25,1.47-2.11,0.65c-1.05-1.01-1.88-2.25-2.8-3.39C176.14,164.23,176.51,163.77,177.18,163.58z"/>
	<path class="st11" d="M367.18,136.88c12.58,0.02,25.17,0.04,37.75,0.07c-1.09,1.56-2.72,0.81-4.08,0.82
		c-9.88,0.07-19.75,0.07-29.63,0C369.87,137.76,368.23,138.51,367.18,136.88z"/>
	<path class="st19" d="M219.76,137.08c12.4-0.05,24.79-0.1,37.19-0.15c-0.89,1.54-2.38,0.84-3.58,0.84
		c-9.95,0.06-19.9,0.05-29.86,0.02C222.25,137.78,220.84,138.23,219.76,137.08z"/>
	<path class="st27" d="M57.95,156.6c0.23-1.5,0.56-3.2,2.37-3.14c0.64,0.02,1.34,1.66,1.8,2.66c1.47,3.2,2.83,6.44,4.23,9.66
		c-0.25,0.7-0.67,1.22-1.43,1.4c-0.66-0.96-1.31-1.93-1.97-2.89c-0.29-0.89-1.33-1.17-1.69-2.02c-0.39-2.03-2.38-2.5-3.63-3.69
		C57.57,157.89,57.71,157.24,57.95,156.6z"/>
	<path class="st28" d="M170.24,155.53c1.54,1.25,3.43,2.11,0.1,3.9c-2.3,1.24-0.47,4.18-0.96,6.3c-0.27,1.15,0.48,3.05-1.57,2.93
		c-1.55-0.09-1.15-1.72-1.17-2.78c-0.05-3.46-0.09-6.92,0.02-10.37c0.04-1.12-0.1-3.13,2.1-1.48
		C168.7,155.07,168.82,155.94,170.24,155.53z"/>
	<path class="st29" d="M113.13,162.94c0.04,0.16,0.14,0.33,0.12,0.48c-0.19,1.82,1.25,4.98-1.08,5.08
		c-2.59,0.11-1.12-3.11-1.41-4.85c-0.25-1.45-0.05-2.98-0.05-4.48c0.01-6.88,1.12-7.58,8.29-5.24c-1.27,2.08-4.49-0.46-5.47,2.32
		c0.23,0.85,0.16,1.68-0.07,2.51C113.28,160.15,112.45,161.49,113.13,162.94z"/>
	<path class="st30" d="M213.51,161.51c-0.87,2.28,1.21,6.73-1.33,6.73c-2.6,0-1.21-4.4-1.14-6.76c0.08-2.67-1.82-6.79,1.47-7.57
		C213.89,153.57,212.84,158.79,213.51,161.51z"/>
	<path class="st31" d="M57.95,156.6c0.06,0.82,0.12,1.64,0.18,2.46c1.18,0.97,2.51,1.74,3.8,2.55c0.34,0.89,0.69,1.78,1.03,2.67
		c-2.56,0.15-5.59-1.46-7.27,2.01c-0.28,0.59-0.97,0.98-1.55,0.35c-0.49-0.53-1.11-1-0.5-2.04C55.18,162,56.53,159.28,57.95,156.6z"
		/>
	<path class="st32" d="M240.67,155.79c2.89-3.47,6.47-3.33,10.26-1.9c1,0.38,1.81,1.12,1.3,2.22c-0.45,0.97-1.36,0.4-2.13,0.15
		c-2.79-0.93-5.48-0.83-7.95,0.98C241.37,157.04,240.91,156.52,240.67,155.79z"/>
	<path class="st13" d="M442.9,134.1c1.99-1.56,3.4-3.57,4.49-5.81c0.58-1.19,1.44-1.94,2.72-1.24c1.3,0.71,0.41,1.7-0.04,2.49
		c-1.51,2.65-2.64,5.69-6.17,6.4C443.24,135.51,442.49,135.12,442.9,134.1z"/>
	<path class="st33" d="M82.22,160.86c0.83,0.02,1.73-0.1,2.02,1.01c2.53,1.54,2.11-0.51,2.36-1.89c0.42-2.28-1.04-4.79,0.84-6.88
		c0.47,0.25,1.33-0.07,1.32,0.89c-0.46,2.78-0.13,5.58-0.2,8.37c-0.05,2.04-0.16,4.01-2.58,4.75c-1.9-1.87-4.7-3.02-4.99-6.18
		C81.39,160.58,81.79,160.54,82.22,160.86z"/>
	<path class="st34" d="M228.8,153.98c1.05,1.1,1.92,2.09-0.69,1.99c-1.95-0.07-4.52-0.86-4.03,2.74c0.49,0.81,0.62,1.61-0.09,2.38
		c-3.77-1.07-2.96-3.59-1.95-6.17c0.64-0.35,1.28-0.69,1.92-1.04C225.58,153.23,227.2,153.1,228.8,153.98z"/>
	<path class="st35" d="M133.45,153.77c-4.14-0.4-6.28,1.1-5.44,5.58c0.53,2.83-1.06,5.93,1.06,8.57c-1.6,1.94-2.16,0.76-2.21-0.85
		c-0.11-3.82-0.5-7.72,0.06-11.46C127.6,151.08,130.92,153.19,133.45,153.77z"/>
	<path class="st36" d="M85.99,167.1c3.8-3.76,0.84-8.96,2.78-13.12c0.11,4.26,0.52,8.55,0.25,12.78
		C88.77,170.6,87.2,168.63,85.99,167.1z"/>
	<path class="st37" d="M228,160.96c3.56,1.13,2.67,3.97,1.57,5.88c-1.46,2.54-4.03,3.21-6.66,1.1c0.45-0.88,1.3-1.02,2.15-1.15
		c2.18-0.23,3.23-1.35,2.86-3.6C227.42,162.43,227.37,161.68,228,160.96z"/>
	<path class="st38" d="M374.96,73.1c-0.67,0-1.33,0-2-0.01c5.37-1.15,10.69-2.7,16.28-1.95C384.75,73.72,379.71,72.35,374.96,73.1z"
		/>
	<path class="st39" d="M52.09,83.95c-0.04-0.72-0.07-1.44-0.11-2.17c0.87-2.66,2.17-4.94,5.03-5.91c0.41,0.41,0.83,0.81,1.24,1.22
		c-0.4,3.43-3.38,5.28-4.89,8.03c-0.45,0.23-0.87,0.19-1.27-0.11C52.09,84.65,52.09,84.3,52.09,83.95z"/>
	<path class="st40" d="M263.95,168c0.03-0.41,0.06-0.83,0.08-1.24c2.48-1.3,5.03-2.3,7.92-1.95c0.43,0.4,0.86,0.79,1.3,1.19
		C270.75,169.46,267.58,169.81,263.95,168z"/>
	<path class="st41" d="M151.94,135.73c-5.41,1.93-10.76,2.87-15.8-1.03C141.29,136.86,146.62,136.17,151.94,135.73z"/>
	<path class="st42" d="M113.13,162.94c-1.51-1.32-1.55-2.67-0.06-4.03c0.33,0.19,0.66,0.36,1.01,0.5c1.48,0.6,3.29-0.28,4.81,1.06
		C117.76,163.3,114.36,160.71,113.13,162.94z"/>
	<path class="st43" d="M187.04,75.98l-0.48,0c0,0-0.48,0.02-0.48,0.02c-0.35,0.02-0.71,0.04-1.06,0.07
		c-3.61-0.13-7.22-0.27-10.84-0.4c0.19-0.89-1-2.24,0.86-2.56c0.44,2.48,2.42,1.61,3.92,1.84
		C181.65,75.35,184.58,73.92,187.04,75.98z"/>
	<path class="st44" d="M177.18,163.58c-0.38,0.44-0.76,0.88-1.15,1.33c-1.8-1.14-2.95-2.85-4.29-4.83
		C175.08,159.28,175.97,161.69,177.18,163.58z"/>
	<path class="st45" d="M240.67,155.79c0.49,0.48,0.99,0.96,1.48,1.44c-0.41,2.23-0.82,4.47-1.24,6.7c-0.31,0.38-0.6,0.39-0.88-0.03
		l-0.25,0.19c-1.73-1.89-1.36-4.05-0.83-6.23C239.52,157.17,240.09,156.48,240.67,155.79z"/>
	<path class="st46" d="M222.04,154.93c-0.07,2.27-1.2,4.87,1.89,6.17c0.28,0.14,0.39,0.3,0.34,0.49c-0.06,0.2-0.13,0.3-0.21,0.3
		c-2.75,0.15-3.93-1.99-4.73-3.89C218.48,155.95,221.53,156.35,222.04,154.93z"/>
	<path class="st47" d="M87.44,153.1c-1.02,2.87-0.08,5.9-0.62,8.77c-0.62,3.32-1.71,1.73-2.59,0c2.58-0.47,1.42-2.55,1.73-4
		C86.31,156.24,85,154.09,87.44,153.1z"/>
	<path class="st48" d="M245.01,166.87c0.92-0.03,1.84-0.06,2.76-0.09c1.25-0.18,2.79-1.24,3.2,1.07c-2.68,1.62-5.39,1.88-8.12,0.13
		C243.32,167.13,244.5,167.65,245.01,166.87z"/>
	<path class="st49" d="M295.87,135.74c-4.26,2.23-8.57,1.9-12.9,0.21C287.28,135.88,291.58,135.81,295.87,135.74z"/>
	<path class="st19" d="M231.92,133.74c-3.76,2.84-7.99,0.92-12,1.16C223.8,133.29,228.03,135.24,231.92,133.74z"/>
	<path class="st11" d="M394.93,134.04c0.33,0,0.67,0,1-0.01c2.89,0.93,6.05-0.66,8.86,0.98c-3.95-0.33-8.09,1.45-11.85-1.06
		C393.6,133.98,394.26,134.01,394.93,134.04z"/>
	<path class="st50" d="M245.01,166.87c-0.45,0.89-1.33,0.96-2.16,1.11c-2.12-0.54-4.42-0.96-2.82-4.07
		c0.29,0.04,0.59,0.05,0.88,0.03C241.92,165.4,243.06,166.7,245.01,166.87z"/>
	<path class="st14" d="M211.03,134.92c-3.66-0.3-7.56,1.71-10.94-1.18C203.63,135.2,207.52,133.3,211.03,134.92z"/>
	<path class="st10" d="M146.99,139.79c-1.63,3.2-3.26,3.19-4.89,0.01C143.73,139.27,145.36,139.28,146.99,139.79z"/>
	<path class="st51" d="M151.14,158.16c0.36-1.23,2.08-1.66,1.9-3.21c1.46,0.93,1.79,2.41,1.94,3.98c-0.59,0.67-1.18,1.33-1.76,2
		C151.94,160.44,151.79,159.11,151.14,158.16z"/>
	<path class="st34" d="M224.06,161.89c-0.07-0.26-0.11-0.52-0.13-0.79c0.05-0.79,0.1-1.59,0.15-2.38c1.31,0.75,2.61,1.49,3.92,2.24
		c-0.03,0.74-0.05,1.49-0.08,2.23C226.63,162.76,225.34,162.33,224.06,161.89z"/>
	<path class="st52" d="M133.78,164c0.54-0.08,1.07-0.16,1.61-0.24c1.4,0.91,2.32,2.17,2.43,3.84c0.02,0.29-0.98,0.93-1.01,0.9
		C135.48,167.22,134.11,165.95,133.78,164z"/>
	<path class="st53" d="M155.11,164.91c0.71-0.37,1.43-0.74,2.14-1.11c0.56,1.26,1.12,2.51,1.71,3.84
		C156.22,168.48,155.93,166.34,155.11,164.91z"/>
	<path class="st10" d="M290.93,139.81c-1.63,3.18-3.27,3.17-4.9,0C287.66,139.27,289.29,139.27,290.93,139.81z"/>
	<path class="st38" d="M114.09,159.42c-0.61,0.38-0.77-0.15-1.01-0.5c0.03-0.94,0.07-1.87,0.1-2.81c0.15-0.13,0.31-0.26,0.46-0.39
		c0.14,0.14,0.28,0.28,0.43,0.43c1.08,1.35,2.92,0.23,4.14,1.28C117.03,158.56,114.6,157.03,114.09,159.42z"/>
	<path class="st6" d="M442.9,134.1c0.33,0.62,0.67,1.23,1,1.85c-1.46,0.45-2.03,2.54-3.95,2.12c-0.01-0.37-0.02-0.73-0.04-1.1
		c-0.36-0.21-0.48-0.42-0.35-0.62c0.13-0.19,0.25-0.29,0.38-0.29C440.93,135.41,441.92,134.75,442.9,134.1z"/>
	<path class="st54" d="M238.94,157.86c0.28,2.08,0.55,4.16,0.83,6.23c-0.88,0-1.53-0.38-1.92-1.17c-0.69-0.99-0.71-2-0.07-3.02
		C238.18,159.22,238.56,158.54,238.94,157.86z"/>
	<path class="st55" d="M439.94,136.06c0,0.3-0.01,0.6-0.03,0.91c-2.63-0.03-5.26-0.05-7.9-0.08c-0.02-0.35-0.04-0.69-0.06-1.04
		C434.62,135.92,437.28,135.99,439.94,136.06z"/>
	<path class="st56" d="M113.18,156.1c-0.92-0.87-1.14-1.79,0.38-1.99c1.79-0.24,3.62-0.13,5.44-0.17c0.06,0.22,0.16,0.43,0.18,0.65
		c0.01,0.1-0.14,0.21-0.22,0.31c-1.71,1.44-4.16-0.56-5.8,1.22L113.18,156.1z"/>
	<path class="st57" d="M67.87,139.05c2.47,0,4.94,0,7.41,0C72.81,140.02,70.34,140.05,67.87,139.05z"/>
	<path class="st58" d="M225.05,166.79c-0.43,0.92-1.27,1.07-2.15,1.15c-1.21-0.47-1.4-1.65-0.63-2.23
		C223.36,164.9,224.19,166.2,225.05,166.79z"/>
	<path class="st59" d="M250.97,167.85c-0.73-1.36-2.15-0.66-3.2-1.07c1.06-0.45,2.12-0.88,3.17-1.34c0.76-0.33,1.42-0.06,1.58,0.63
		C252.78,167.2,252.29,167.95,250.97,167.85z"/>
	<path class="st29" d="M113.16,156.12c1.51-2.39,3.84-0.92,5.8-1.22c-1.27,1.82-3.46,0.06-4.89,1.25c0,0-0.45-0.05-0.45-0.05
		L113.16,156.12z"/>
	<path class="st60" d="M170.24,155.53c-0.49,0.66-0.69,2.22-1.81,1.4c-0.92-0.68-0.5-2,0.33-2.9
		C169.25,154.52,169.75,155.02,170.24,155.53z"/>
	<path class="st61" d="M237.79,159.9c0.02,1.01,0.04,2.02,0.07,3.02c-0.98-0.16-1.83-0.47-1.7-1.71
		C236.25,160.25,237.02,160.06,237.79,159.9z"/>
	<path class="st62" d="M64.93,167.18c0.48-0.47,0.95-0.93,1.43-1.4c0.67,0.89,1.77,1.97,0.42,2.85
		C65.77,169.28,65.02,168.36,64.93,167.18z"/>
	<path class="st63" d="M201.08,153.89c-2.12-0.04-4.24-0.08-6.35-0.12C196.87,152.37,198.98,152.7,201.08,153.89z"/>
	<path class="st49" d="M299.98,134.06c-0.9,1.77-2.36,2.16-4.17,1.7C297.02,134.76,298.43,134.25,299.98,134.06z"/>
	<path class="st63" d="M195.02,155.81c1.65-1.42,3.31-1.37,4.99-0.06C198.35,155.77,196.68,155.79,195.02,155.81z"/>
	<path class="st41" d="M146.99,139.79c-1.63,0-3.26,0-4.89,0.01c-0.13-0.23-0.25-0.46-0.37-0.7c1.87-0.41,3.75-0.4,5.62-0.01
		C147.23,139.33,147.11,139.56,146.99,139.79z"/>
	<path class="st64" d="M189.88,158.6c0.04,1.79,0.07,3.59,0.11,5.38C188.8,162.21,188.7,160.42,189.88,158.6z"/>
	<path class="st49" d="M290.93,139.81c-1.63,0-3.27,0-4.9,0c-0.13-0.23-0.26-0.46-0.37-0.7c1.88-0.42,3.76-0.42,5.64,0
		C291.18,139.34,291.06,139.58,290.93,139.81z"/>
	<path class="st41" d="M156.04,134.06c-0.9,1.78-2.36,2.17-4.18,1.7C153.09,134.77,154.5,134.25,156.04,134.06z"/>
	<path class="st65" d="M228.8,153.98c-1.61-0.03-3.23-0.06-4.84-0.09C225.59,152.7,227.22,152.29,228.8,153.98z"/>
	<path class="st66" d="M44.2,153.88c-1.75,0-3.5,0-5.25-0.01C40.7,152.6,42.46,152.58,44.2,153.88z"/>
	<path class="st53" d="M82.22,160.86c-0.41,0.02-0.82,0.04-1.22,0.06c0.05-0.36,0.1-0.72,0.14-1.08c0,0-0.11,0.09-0.11,0.09
		C81.71,159.88,82.03,160.28,82.22,160.86z"/>
	<path class="st67" d="M141.69,95.37c-2,0-3.99,0-5.99,0c-7.44,0-7.44,0-6.83-7.67c0.83-10.48,6.54-16.36,15.01-15.45
		c5.82,0.62,9.16,3.96,10.76,10.75c2.71,11.5,2.04,12.38-9.45,12.38C144.02,95.37,142.85,95.37,141.69,95.37z"/>
	<path class="st67" d="M285.71,95.37c-2.16,0-4.33,0-6.49,0c-6.89,0-6.91-0.01-6.43-7.11c0.44-6.61,2.04-12.68,9.09-15.21
		c8.11-2.91,14.54,1.03,16.67,9.89c2.77,11.48,2.05,12.44-9.35,12.44C288.04,95.37,286.88,95.37,285.71,95.37z"/>
	<path class="st0" d="M53.02,85c0.88-3.2,3.37-5.35,5.23-7.91c2.2-1.32,4.24-3.06,6.61-3.9c12.09-4.28,20.42,0.55,22.35,13.32
		c1.85,12.21,1.64,24.52,0.02,36.77c-0.77,5.8-3.37,10.39-9.16,12.6c-4.33,0.91-8.66,1.1-12.99,0.01c-1-0.27-2-0.54-3-0.82
		c-3.77-2.32-7.13-5.05-9.16-9.12c-0.78-1.34-1.35-2.77-1.69-4.28c-1.09-10.8-1.17-21.6,0.03-32.39C51.6,87.76,52.05,86.27,53.02,85
		z"/>
	<path class="st13" d="M51.22,121.68c0.93,1.28,1.74,2.61,1.69,4.28C51.16,125.01,50.84,123.48,51.22,121.68z"/>
	<path class="st21" d="M53.02,85c-0.22,1.58-0.76,3.03-1.77,4.29c-0.53-1.58,0.19-2.92,0.83-4.28C52.4,85,52.71,85,53.02,85z"/>
	<path class="st57" d="M65.08,135.89c4.33,0,8.66-0.01,12.99-0.01C73.74,137.95,69.41,138.39,65.08,135.89z"/>
	<path class="st0" d="M377.93,134.04c0-19.32,0.01-38.63,0.01-57.95c1.76,0.36,1.14,1.8,1.15,2.8c0.04,17.44,0.04,34.87,0,52.31
		C379.09,132.23,379.62,133.63,377.93,134.04z"/>
	<path class="st10" d="M271.96,164.81c-2.3,2.02-4.96,2.58-7.92,1.95c0.23-1.36-1.08-1.94-1.49-2.92c-1.11-2.59-0.96-5.26,1.49-7.02
		c2.12-1.53,4.52-2.02,6.7,0.21c0.68,0.7,1.5,1.26,2.26,1.88c0.81,1.86,0.85,3.58-0.85,5.01
		C272.01,164.2,271.95,164.5,271.96,164.81z"/>
	<path class="st68" d="M272.15,163.92c1.05-1.54,1.26-3.22,0.85-5.01C274.43,160.87,275.04,162.69,272.15,163.92z"/>
	<path class="st69" d="M151.14,158.16c1.97-0.03,1.82,1.52,2.07,2.77c-0.64,0.96-1.7,1.26-2.45,0.61
		C149.47,160.42,150.57,159.25,151.14,158.16z"/>
	<path class="st70" d="M134.04,157.62c-0.14,1.51-1.28,2.01-2.71,2.17c-1.47,0.16-2.09-0.43-2.07-1.97
		c0.01-1.61,0.84-1.98,2.19-1.92C132.6,155.95,133.89,155.77,134.04,157.62z"/>
	<path class="st71" d="M61.93,161.61c-1.88,0.06-4.27,0.88-3.8-2.55C61.43,156.9,61.25,159.89,61.93,161.61z"/>
</g>
</svg>
