<svg width="469" height="364" viewBox="0 0 469 364" fill="none" xmlns="http://www.w3.org/2000/svg">
<g filter="url(#filter0_d)">
<g clip-path="url(#clip0)">
<path d="M25.9093 35.4324C25.9093 27.3092 32.4945 20.7241 40.6177 20.7241H429.292C437.415 20.7241 444 27.3092 444 35.4324V319.189C444 327.312 437.415 333.898 429.292 333.898H40.6176C32.4944 333.898 25.9093 327.312 25.9093 319.189V35.4324Z" fill="white"/>
<rect x="25.9093" y="67.3005" width="418.221" height="355.146" fill="white"/>
<rect x="25.9093" y="20.7241" width="418" height="22.6962" fill="#C7C8C9"/>
<circle cx="39.1556" cy="32.0436" r="3.61261" fill="#EF3F61"/>
<circle cx="52.1612" cy="32.0436" r="3.61261" fill="#FEC149"/>
<circle cx="65.1663" cy="32.0436" r="3.61261" fill="#4ED687"/>
<path d="M432.349 29.2351C432.349 29.0392 432.19 28.8805 431.994 28.8805L428.802 28.8805C428.606 28.8805 428.448 29.0392 428.448 29.2351C428.448 29.431 428.606 29.5897 428.802 29.5897H431.639V32.4267C431.639 32.6226 431.798 32.7814 431.994 32.7814C432.19 32.7814 432.349 32.6226 432.349 32.4267L432.349 29.2351ZM428.84 32.8903L432.245 29.4859L431.743 28.9843L428.339 32.3888L428.84 32.8903Z" fill="#727476"/>
<path d="M424.83 36.044C424.83 36.2398 424.989 36.3986 425.185 36.3986L428.377 36.3986C428.573 36.3986 428.731 36.2398 428.731 36.044C428.731 35.8481 428.573 35.6893 428.377 35.6893H425.54V32.8523C425.54 32.6564 425.381 32.4977 425.185 32.4977C424.989 32.4977 424.83 32.6564 424.83 32.8523L424.83 36.044ZM428.339 32.3888L424.934 35.7932L425.436 36.2947L428.84 32.8903L428.339 32.3888Z" fill="#727476"/>
<path d="M182.271 27.6716C181.81 27.0346 182.265 26.1432 183.051 26.1432H272.234C273.689 26.1432 275.056 26.8412 275.91 28.0201L287.199 43.6094H193.812L182.271 27.6716Z" fill="#D5D5D5"/>
<circle cx="269.326" cy="34.9091" r="3.97183" fill="#C7C8C9"/>
<line x1="267.824" y1="33.5737" x2="270.661" y2="36.4108" stroke="#E3E3E7" stroke-width="0.567404"/>
<line x1="267.99" y1="36.4108" x2="270.827" y2="33.5738" stroke="#E3E3E7" stroke-width="0.567404"/>
<rect x="25.9093" y="43.4202" width="418" height="23.831" fill="#E3E3E7"/>
<rect x="90.0259" y="47.9595" width="323.244" height="14.7525" rx="2.83702" fill="white"/>
<path fill-rule="evenodd" clip-rule="evenodd" d="M70.7057 51.5517C68.5863 51.5517 66.8523 53.2857 66.8523 55.4051C66.8523 57.5245 68.5863 59.2586 70.7057 59.2586C72.488 59.2586 73.9812 58.0062 74.5592 56.3685H73.5958C73.0178 57.4764 71.9581 58.2952 70.7057 58.2952C69.1162 58.2952 67.8157 56.9947 67.8157 55.4051C67.8157 53.8156 69.1162 52.5151 70.7057 52.5151C71.5246 52.5151 72.199 52.8522 72.6325 53.4784L71.1874 54.9235H74.5592V51.5517L73.5958 52.5151C72.7288 52.0334 71.7654 51.5517 70.7057 51.5517Z" fill="#818181"/>
<path fill-rule="evenodd" clip-rule="evenodd" d="M42.7684 54.9235H36.8919L39.5893 52.2261L38.915 51.5517L35.0615 55.4051L38.915 59.2586L39.5893 58.5842L36.8919 55.8868H42.7684V54.9235Z" fill="#818181"/>
<path fill-rule="evenodd" clip-rule="evenodd" d="M54.3285 51.5517L53.6542 52.2261L56.3516 54.9235H50.4751V55.8868H56.3516L53.6542 58.5842L54.3285 59.2586L58.182 55.4051L54.3285 51.5517Z" fill="#818181"/>
<path d="M403.805 54.0806L404.758 51.1471L405.712 54.0806L405.981 53.9929L405.712 54.0806C405.78 54.291 405.976 54.4334 406.197 54.4334H409.282L406.786 56.2464C406.607 56.3764 406.532 56.6069 406.601 56.8173L407.554 59.7508L405.059 57.9378C404.88 57.8078 404.637 57.8078 404.458 57.9378L401.963 59.7508L402.916 56.8173C402.984 56.6069 402.91 56.3764 402.731 56.2464L400.235 54.4334H403.32C403.541 54.4334 403.737 54.291 403.805 54.0806L403.535 53.9929L403.805 54.0806ZM401.909 59.9168L401.909 59.9167L401.909 59.9168Z" stroke="#C0CDD3" stroke-width="0.567404"/>
<line x1="423.483" y1="51.9313" x2="433.696" y2="51.9313" stroke="#727476" stroke-width="1.13481" stroke-linecap="round"/>
<line x1="423.483" y1="55.9032" x2="433.696" y2="55.9032" stroke="#727476" stroke-width="1.13481" stroke-linecap="round"/>
<line x1="423.483" y1="59.8749" x2="433.696" y2="59.8749" stroke="#727476" stroke-width="1.13481" stroke-linecap="round"/>
<path d="M85.7112 28.0207C86.5649 26.8415 87.9324 26.1432 89.3881 26.1432H173.965C175.42 26.1432 176.788 26.8415 177.642 28.0207L188.927 43.6094H74.4261L85.7112 28.0207Z" fill="#E3E3E7"/>
<circle cx="171.165" cy="34.9092" r="3.97183" fill="#C7C8C9"/>
<line x1="169.663" y1="33.5738" x2="172.5" y2="36.4108" stroke="#E3E3E7" stroke-width="0.567404"/>
<line x1="169.829" y1="36.4108" x2="172.666" y2="33.5738" stroke="#E3E3E7" stroke-width="0.567404"/>
</g>
</g>
<defs>
<filter id="filter0_d" x="0.909302" y="0.72406" width="468.091" height="363.174" filterUnits="userSpaceOnUse" color-interpolation-filters="sRGB">
<feFlood flood-opacity="0" result="BackgroundImageFix"/>
<feColorMatrix in="SourceAlpha" type="matrix" values="0 0 0 0 0 0 0 0 0 0 0 0 0 0 0 0 0 0 127 0"/>
<feOffset dy="5"/>
<feGaussianBlur stdDeviation="12.5"/>
<feColorMatrix type="matrix" values="0 0 0 0 0.164706 0 0 0 0 0.204388 0 0 0 0 0.239216 0 0 0 0.08 0"/>
<feBlend mode="normal" in2="BackgroundImageFix" result="effect1_dropShadow"/>
<feBlend mode="normal" in="SourceGraphic" in2="effect1_dropShadow" result="shape"/>
</filter>
<clipPath id="clip0">
<path d="M25.9093 35.4324C25.9093 27.3092 32.4945 20.7241 40.6177 20.7241H429.292C437.415 20.7241 444 27.3092 444 35.4324V319.189C444 327.312 437.415 333.898 429.292 333.898H40.6176C32.4944 333.898 25.9093 327.312 25.9093 319.189V35.4324Z" fill="white"/>
</clipPath>
</defs>
</svg>
