<svg width="348" height="274" viewBox="0 0 348 274" fill="none" xmlns="http://www.w3.org/2000/svg">
<g opacity="0.7" filter="url(#filter0_d)">
<g clip-path="url(#clip0)">
<path d="M25 28.5631C25 24.0487 28.6596 20.3892 33.1739 20.3892H314.493C319.007 20.3892 322.667 24.0487 322.667 28.5631V235.465C322.667 239.98 319.007 243.639 314.493 243.639H33.1739C28.6596 243.639 25 239.98 25 235.465V28.5631Z" fill="white"/>
<rect x="25" y="46.2732" width="298.123" height="197.366" fill="white"/>
<rect x="25" y="20.3892" width="298" height="12.613" fill="#C7C8C9"/>
<circle cx="32.3614" cy="26.6798" r="2.00764" fill="#EF3F61"/>
<circle cx="39.5891" cy="26.6798" r="2.00764" fill="#FEC149"/>
<circle cx="46.8164" cy="26.6798" r="2.00764" fill="#4ED687"/>
<path d="M316.575 25.119C316.575 25.0102 316.487 24.922 316.378 24.922L314.604 24.922C314.496 24.922 314.407 25.0102 314.407 25.119C314.407 25.2279 314.496 25.3161 314.604 25.3161L316.181 25.3161L316.181 26.8927C316.181 27.0016 316.269 27.0898 316.378 27.0898C316.487 27.0898 316.575 27.0016 316.575 26.8927L316.575 25.119ZM314.626 27.1503L316.518 25.2584L316.239 24.9797L314.347 26.8716L314.626 27.1503Z" fill="#526C79"/>
<path d="M312.397 28.9029C312.397 29.0118 312.485 29.1 312.594 29.1L314.368 29.1C314.477 29.1 314.565 29.0118 314.565 28.9029C314.565 28.7941 314.477 28.7059 314.368 28.7059L312.791 28.7059L312.791 27.1292C312.791 27.0204 312.703 26.9322 312.594 26.9322C312.485 26.9322 312.397 27.0204 312.397 27.1292L312.397 28.9029ZM314.347 26.8716L312.455 28.7636L312.734 29.0423L314.626 27.1503L314.347 26.8716Z" fill="#526C79"/>
<path d="M111.895 24.2501C111.639 23.8961 111.892 23.4008 112.329 23.4008H161.89C162.699 23.4008 163.459 23.7887 163.934 24.4438L170.207 33.1073H118.309L111.895 24.2501Z" fill="#D5D5D5"/>
<circle cx="160.274" cy="28.2723" r="2.20727" fill="#C7C8C9"/>
<line x1="159.44" y1="27.5302" x2="161.016" y2="29.1068" stroke="#E3E3E7" stroke-width="0.315325"/>
<line x1="159.532" y1="29.1068" x2="161.109" y2="27.5302" stroke="#E3E3E7" stroke-width="0.315325"/>
<rect x="25" y="33.0022" width="298" height="13.2436" fill="#E3E3E7"/>
<rect x="60.6317" y="35.5248" width="245.341" height="8.19845" rx="1.57662" fill="white"/>
<path fill-rule="evenodd" clip-rule="evenodd" d="M49.8948 37.5211C48.717 37.5211 47.7533 38.4848 47.7533 39.6626C47.7533 40.8404 48.717 41.8041 49.8948 41.8041C50.8852 41.8041 51.715 41.1081 52.0363 40.198H51.5009C51.1797 40.8137 50.5908 41.2687 49.8948 41.2687C49.0114 41.2687 48.2887 40.546 48.2887 39.6626C48.2887 38.7792 49.0114 38.0565 49.8948 38.0565C50.3498 38.0565 50.7246 38.2439 50.9655 38.5919L50.1625 39.3949H52.0363V37.5211L51.5009 38.0565C51.0191 37.7888 50.4837 37.5211 49.8948 37.5211Z" fill="#818181"/>
<path fill-rule="evenodd" clip-rule="evenodd" d="M34.3692 39.3949H31.1034L32.6024 37.8959L32.2277 37.5211L30.0862 39.6626L32.2277 41.8041L32.6024 41.4293L31.1034 39.9303H34.3692V39.3949Z" fill="#818181"/>
<path fill-rule="evenodd" clip-rule="evenodd" d="M40.7935 37.5211L40.4188 37.8959L41.9178 39.3949H38.652V39.9303H41.9178L40.4188 41.4293L40.7935 41.8041L42.935 39.6626L40.7935 37.5211Z" fill="#818181"/>
<path d="M300.713 38.9265L301.243 37.2963L301.772 38.9265C301.81 39.0434 301.919 39.1226 302.042 39.1226H303.756L302.37 40.1301C302.27 40.2024 302.228 40.3305 302.266 40.4474L302.796 42.0776L301.409 41.0701C301.31 40.9978 301.175 40.9978 301.076 41.0701L299.689 42.0776L300.219 40.4474C300.257 40.3305 300.215 40.2024 300.116 40.1301L298.729 39.1226H300.443C300.566 39.1226 300.675 39.0434 300.713 38.9265ZM302.875 42.1346L302.875 42.1346L302.875 42.1346Z" stroke="#C0CDD3" stroke-width="0.315325"/>
<line x1="311.648" y1="37.7321" x2="317.324" y2="37.7321" stroke="#727476" stroke-width="0.63065" stroke-linecap="round"/>
<line x1="311.648" y1="39.9394" x2="317.324" y2="39.9394" stroke="#727476" stroke-width="0.63065" stroke-linecap="round"/>
<line x1="311.648" y1="42.1467" x2="317.324" y2="42.1466" stroke="#727476" stroke-width="0.63065" stroke-linecap="round"/>
<path d="M58.2339 24.4442C58.7083 23.7888 59.4682 23.4008 60.2773 23.4008H107.279C108.088 23.4008 108.848 23.7888 109.323 24.4442L115.594 33.1073H51.9624L58.2339 24.4442Z" fill="#E3E3E7"/>
<circle cx="105.723" cy="28.2723" r="2.20727" fill="#C7C8C9"/>
<line x1="104.889" y1="27.5302" x2="106.465" y2="29.1069" stroke="#E3E3E7" stroke-width="0.315325"/>
<line x1="104.981" y1="29.1068" x2="106.558" y2="27.5302" stroke="#E3E3E7" stroke-width="0.315325"/>
</g>
</g>
<rect x="42" y="72.3892" width="71" height="8" fill="#E3E3E7"/>
<rect x="42" y="83.3892" width="127" height="8" fill="#E3E3E7"/>
<rect x="42" y="101.389" width="264" height="10" fill="#E3E3E7"/>
<rect x="42" y="111.389" width="264" height="10" fill="white"/>
<rect x="42" y="121.389" width="264" height="10" fill="#F2F2F2"/>
<rect x="42" y="131.389" width="264" height="10" fill="white"/>
<rect x="42" y="141.389" width="264" height="10" fill="#F2F2F2"/>
<rect x="42" y="151.389" width="264" height="10" fill="white"/>
<rect x="42" y="161.389" width="264" height="10" fill="#F2F2F2"/>
<rect x="42" y="171.389" width="264" height="10" fill="white"/>
<rect x="42" y="181.389" width="264" height="10" fill="#F2F2F2"/>
<rect x="42" y="191.389" width="264" height="10" fill="white"/>
<rect x="42" y="201.389" width="264" height="10" fill="#F2F2F2"/>
<line x1="42.25" y1="101.389" x2="42.25" y2="211.389" stroke="#E3E3E7" stroke-width="0.5"/>
<line x1="306.25" y1="101.389" x2="306.25" y2="211.389" stroke="#E3E3E7" stroke-width="0.5"/>
<line x1="250.25" y1="101.389" x2="250.25" y2="211.389" stroke="#E3E3E7" stroke-width="0.5"/>
<line x1="194.25" y1="101.389" x2="194.25" y2="211.389" stroke="#E3E3E7" stroke-width="0.5"/>
<line x1="306" y1="211.639" x2="42" y2="211.639" stroke="#E3E3E7" stroke-width="0.5"/>
<line x1="139.25" y1="101.389" x2="139.25" y2="211.389" stroke="#E3E3E7" stroke-width="0.5"/>
<g filter="url(#filter1_d)">
<path d="M225 66.5089C225 64.1139 226.942 62.1724 229.337 62.1724H300.92C303.315 62.1724 305.257 64.1139 305.257 66.5089V87.3999C305.257 89.795 303.315 91.7365 300.92 91.7365H229.337C226.942 91.7365 225 89.795 225 87.3999V66.5089Z" fill="white"/>
<path fill-rule="evenodd" clip-rule="evenodd" d="M240.81 81.4431H249.664C249.832 81.4431 249.993 81.5112 250.111 81.6325C250.23 81.7538 250.297 81.9183 250.297 82.0898C250.297 82.2613 250.23 82.4258 250.111 82.5471C249.993 82.6683 249.832 82.7365 249.664 82.7365H240.81C240.643 82.7365 240.482 82.6683 240.363 82.5471C240.245 82.4258 240.178 82.2613 240.178 82.0898C240.178 81.9183 240.245 81.7538 240.363 81.6325C240.482 81.5112 240.643 81.4431 240.81 81.4431ZM245.87 77.6762L247.921 75.5797L248.815 76.4941L245.237 80.1523L241.66 76.4941L242.554 75.5797L244.605 77.6762V70.4496H245.87V77.6762Z" fill="#5C94FE"/>
<path d="M260.797 79.9544V72.2412H266.083V73.4326H262.153V75.4315H266.003V76.6229H262.153V78.763H266.083V79.9544H260.797ZM266.709 79.9544L268.759 77.086L266.828 74.37H268.189L269.521 76.2672L270.837 74.37H272.203L270.272 77.086L272.333 79.9544H270.967L269.521 77.8934L268.064 79.9544H266.709ZM273.175 82.0832V74.37H274.389V75.1323C274.599 74.8499 274.861 74.6297 275.173 74.4716C275.49 74.3097 275.827 74.2288 276.184 74.2288C276.922 74.2288 277.519 74.4904 277.974 75.0137C278.43 75.5369 278.657 76.2503 278.657 77.1537C278.657 78.0609 278.428 78.778 277.969 79.3051C277.513 79.8321 276.918 80.0956 276.184 80.0956C275.83 80.0956 275.499 80.0184 275.19 79.8641C274.882 79.706 274.614 79.4782 274.389 79.1808V82.0832H273.175ZM274.389 78.2661C274.524 78.4731 274.727 78.6501 274.998 78.7969C275.273 78.9437 275.548 79.0171 275.823 79.0171C276.297 79.0171 276.677 78.8439 276.963 78.4976C277.253 78.1513 277.398 77.7033 277.398 77.1537C277.398 76.6117 277.253 76.1693 276.963 75.8268C276.677 75.4805 276.297 75.3073 275.823 75.3073C275.544 75.3073 275.269 75.3807 274.998 75.5275C274.727 75.6706 274.524 75.8475 274.389 76.0583V78.2661ZM279.516 77.1537C279.516 76.7547 279.583 76.3783 279.719 76.0244C279.854 75.6668 280.043 75.3562 280.284 75.0927C280.528 74.8255 280.831 74.6147 281.193 74.4603C281.554 74.306 281.951 74.2288 282.384 74.2288C282.964 74.2288 283.474 74.3624 283.914 74.6297C284.359 74.897 284.694 75.2508 284.919 75.6913C285.149 76.1279 285.264 76.6154 285.264 77.1537C285.264 77.6958 285.149 78.1889 284.919 78.6331C284.694 79.0735 284.359 79.4274 283.914 79.6947C283.474 79.9619 282.964 80.0956 282.384 80.0956C281.951 80.0956 281.554 80.0184 281.193 79.8641C280.831 79.706 280.528 79.4952 280.284 79.2316C280.043 78.9644 279.854 78.6519 279.719 78.2943C279.583 77.9367 279.516 77.5565 279.516 77.1537ZM280.775 77.1537C280.775 77.6732 280.92 78.1136 281.21 78.475C281.499 78.8364 281.891 79.0171 282.384 79.0171C282.885 79.0171 283.278 78.8383 283.564 78.4807C283.854 78.1193 283.999 77.677 283.999 77.1537C283.999 76.638 283.854 76.2013 283.564 75.8437C283.278 75.4861 282.885 75.3073 282.384 75.3073C281.891 75.3073 281.499 75.4861 281.21 75.8437C280.92 76.2013 280.775 76.638 280.775 77.1537ZM286.489 79.9544V74.37H287.703V75.1887C287.925 74.9102 288.196 74.6824 288.516 74.5055C288.836 74.3286 289.171 74.2401 289.521 74.2401V75.4428C289.42 75.4202 289.292 75.4089 289.137 75.4089C288.881 75.4089 288.608 75.4842 288.319 75.6348C288.029 75.7816 287.824 75.9529 287.703 76.1486V79.9544H286.489ZM289.815 75.4315V74.37H290.741V72.8398H291.955V74.37H293.09V75.4315H291.955V78.3564C291.955 78.5522 292.002 78.7122 292.096 78.8364C292.19 78.9569 292.322 79.0171 292.491 79.0171C292.601 79.0171 292.706 78.9983 292.808 78.9606C292.909 78.9192 292.985 78.8722 293.033 78.8195L293.321 79.7342C293.069 79.9751 292.687 80.0956 292.175 80.0956C291.708 80.0956 291.353 79.9732 291.108 79.7285C290.863 79.4801 290.741 79.1244 290.741 78.6613V75.4315H289.815Z" fill="#5C94FE"/>
</g>
<defs>
<filter id="filter0_d" x="0" y="0.38916" width="347.667" height="273.25" filterUnits="userSpaceOnUse" color-interpolation-filters="sRGB">
<feFlood flood-opacity="0" result="BackgroundImageFix"/>
<feColorMatrix in="SourceAlpha" type="matrix" values="0 0 0 0 0 0 0 0 0 0 0 0 0 0 0 0 0 0 127 0"/>
<feOffset dy="5"/>
<feGaussianBlur stdDeviation="12.5"/>
<feColorMatrix type="matrix" values="0 0 0 0 0.164706 0 0 0 0 0.204388 0 0 0 0 0.239216 0 0 0 0.08 0"/>
<feBlend mode="normal" in2="BackgroundImageFix" result="effect1_dropShadow"/>
<feBlend mode="normal" in="SourceGraphic" in2="effect1_dropShadow" result="shape"/>
</filter>
<filter id="filter1_d" x="220.663" y="59.2813" width="88.9296" height="38.2372" filterUnits="userSpaceOnUse" color-interpolation-filters="sRGB">
<feFlood flood-opacity="0" result="BackgroundImageFix"/>
<feColorMatrix in="SourceAlpha" type="matrix" values="0 0 0 0 0 0 0 0 0 0 0 0 0 0 0 0 0 0 127 0"/>
<feOffset dy="1.44552"/>
<feGaussianBlur stdDeviation="2.16827"/>
<feColorMatrix type="matrix" values="0 0 0 0 0.164706 0 0 0 0 0.211765 0 0 0 0 0.239216 0 0 0 0.15 0"/>
<feBlend mode="normal" in2="BackgroundImageFix" result="effect1_dropShadow"/>
<feBlend mode="normal" in="SourceGraphic" in2="effect1_dropShadow" result="shape"/>
</filter>
<clipPath id="clip0">
<path d="M25 28.5631C25 24.0487 28.6596 20.3892 33.1739 20.3892H314.493C319.007 20.3892 322.667 24.0487 322.667 28.5631V235.465C322.667 239.98 319.007 243.639 314.493 243.639H33.1739C28.6596 243.639 25 239.98 25 235.465V28.5631Z" fill="white"/>
</clipPath>
</defs>
</svg>
