<svg width="32" height="32" viewBox="0 0 32 32" fill="none" xmlns="http://www.w3.org/2000/svg">
<path d="M26.0667 19.4133C26.047 19.5759 25.9682 19.7256 25.8452 19.8338C25.7223 19.942 25.5638 20.0012 25.4 20H22.6667C22.4899 20 22.3203 20.0702 22.1953 20.1953C22.0702 20.3203 22 20.4899 22 20.6667V31.3333C22 31.5101 22.0702 31.6797 22.1953 31.8047C22.3203 31.9298 22.4899 32 22.6667 32H30.6667C31.0203 32 31.3594 31.8595 31.6095 31.6095C31.8595 31.3594 32 31.0203 32 30.6667V1.33333C32 0.979711 31.8595 0.640573 31.6095 0.390524C31.3594 0.140476 31.0203 0 30.6667 0L1.33333 0C0.979711 0 0.640573 0.140476 0.390524 0.390524C0.140476 0.640573 0 0.979711 0 1.33333L0 30.6667C0 31.0203 0.140476 31.3594 0.390524 31.6095C0.640573 31.8595 0.979711 32 1.33333 32H16C16.1768 32 16.3464 31.9298 16.4714 31.8047C16.5964 31.6797 16.6667 31.5101 16.6667 31.3333V20.6667C16.6667 20.4899 16.5964 20.3203 16.4714 20.1953C16.3464 20.0702 16.1768 20 16 20H13.3333C13.1565 20 12.987 19.9298 12.8619 19.8047C12.7369 19.6797 12.6667 19.5101 12.6667 19.3333V15.3333C12.6667 15.1565 12.7369 14.987 12.8619 14.8619C12.987 14.7369 13.1565 14.6667 13.3333 14.6667H16C16.1768 14.6667 16.3464 14.5964 16.4714 14.4714C16.5964 14.3464 16.6667 14.1768 16.6667 14V12.2533C16.6667 10.2412 17.466 8.31153 18.8888 6.88875C20.3115 5.46597 22.2412 4.66667 24.2533 4.66667H26C26.1768 4.66667 26.3464 4.7369 26.4714 4.86193C26.5964 4.98695 26.6667 5.15652 26.6667 5.33333V9.33333C26.6667 9.51014 26.5964 9.67971 26.4714 9.80474C26.3464 9.92976 26.1768 10 26 10H24.2533C23.6557 10 23.0826 10.2374 22.66 10.66C22.2374 11.0826 22 11.6557 22 12.2533V14C22 14.1768 22.0702 14.3464 22.1953 14.4714C22.3203 14.5964 22.4899 14.6667 22.6667 14.6667H25.9067C26.0014 14.666 26.0951 14.6855 26.1817 14.7239C26.2683 14.7623 26.3457 14.8187 26.4088 14.8893C26.4719 14.96 26.5192 15.0432 26.5475 15.1336C26.5759 15.2239 26.5847 15.3193 26.5733 15.4133L26.0667 19.4133Z" fill="#4F67A5"/>
</svg>
