<svg width="59" height="42" viewBox="0 0 59 42" fill="none" xmlns="http://www.w3.org/2000/svg">
<path d="M8.85 17.8654C12.1042 17.8654 14.75 15.2388 14.75 12.0082C14.75 8.77765 12.1042 6.15109 8.85 6.15109C5.59578 6.15109 2.95 8.77765 2.95 12.0082C2.95 15.2388 5.59578 17.8654 8.85 17.8654ZM50.15 17.8654C53.4042 17.8654 56.05 15.2388 56.05 12.0082C56.05 8.77765 53.4042 6.15109 50.15 6.15109C46.8958 6.15109 44.25 8.77765 44.25 12.0082C44.25 15.2388 46.8958 17.8654 50.15 17.8654ZM53.1 20.7939H47.2C45.5775 20.7939 44.1117 21.4437 43.0423 22.4962C46.7575 24.5187 49.3941 28.1703 49.9656 32.5082H56.05C57.6817 32.5082 59 31.1995 59 29.5797V26.6511C59 23.4205 56.3542 20.7939 53.1 20.7939ZM29.5 20.7939C35.2064 20.7939 39.825 16.2089 39.825 10.5439C39.825 4.87899 35.2064 0.293945 29.5 0.293945C23.7936 0.293945 19.175 4.87899 19.175 10.5439C19.175 16.2089 23.7936 20.7939 29.5 20.7939ZM36.58 23.7225H35.8148C33.8973 24.6377 31.7678 25.1868 29.5 25.1868C27.2322 25.1868 25.1119 24.6377 23.1852 23.7225H22.42C16.5569 23.7225 11.8 28.4448 11.8 34.2654V36.9011C11.8 39.3263 13.782 41.2939 16.225 41.2939H42.775C45.218 41.2939 47.2 39.3263 47.2 36.9011V34.2654C47.2 28.4448 42.4431 23.7225 36.58 23.7225ZM15.9577 22.4962C14.8883 21.4437 13.4225 20.7939 11.8 20.7939H5.9C2.64578 20.7939 0 23.4205 0 26.6511V29.5797C0 31.1995 1.31828 32.5082 2.95 32.5082H9.02516C9.60594 28.1703 12.2425 24.5187 15.9577 22.4962Z" fill="white"/>
</svg>
