<?xml version="1.0" encoding="utf-8"?>
<!-- Generator: Adobe Illustrator 24.2.1, SVG Export Plug-In . SVG Version: 6.00 Build 0)  -->
<svg version="1.1" id="Layer_1" xmlns="http://www.w3.org/2000/svg" xmlns:xlink="http://www.w3.org/1999/xlink" x="0px" y="0px"
	 viewBox="0 0 454 214" style="enable-background:new 0 0 454 214;" xml:space="preserve">
<style type="text/css">
	.st0{fill:#899AA4;}
	.st1{fill:#81AAC2;}
	.st2{fill:#8EB0C8;}
	.st3{fill:#89A6BE;}
	.st4{fill:#FAFEFE;}
	.st5{fill:#889AA4;}
	.st6{fill:#899BA4;}
	.st7{fill:#889BA4;}
	.st8{fill:#879BA4;}
	.st9{fill:#879BA5;}
	.st10{fill:#89979F;}
	.st11{fill:#8F9BA3;}
	.st12{fill:#8F98A1;}
	.st13{fill:#8C9BA4;}
	.st14{fill:#97A4AB;}
	.st15{fill:#899AA3;}
	.st16{fill:#929CA1;}
	.st17{fill:#889BA6;}
	.st18{fill:#8F9CA4;}
	.st19{fill:#919DA4;}
	.st20{fill:#97A0A3;}
	.st21{fill:#899AA8;}
	.st22{fill:#949CA2;}
	.st23{fill:#8E9AA4;}
	.st24{fill:#959C9E;}
	.st25{fill:#8A949A;}
	.st26{fill:#8E9CA7;}
	.st27{fill:#8C9DA2;}
	.st28{fill:#889DA8;}
	.st29{fill:#949FA3;}
	.st30{fill:#8F9BA4;}
	.st31{fill:#93A1A7;}
	.st32{fill:#8D9EA4;}
	.st33{fill:#939B9E;}
	.st34{fill:#939EA6;}
	.st35{fill:#8B9C9C;}
	.st36{fill:#8A999B;}
	.st37{fill:#8F989E;}
	.st38{fill:#8F9AA0;}
	.st39{fill:#8D9CA4;}
	.st40{fill:#96A5AE;}
	.st41{fill:#949EA4;}
	.st42{fill:#96A0A5;}
	.st43{fill:#98A3A7;}
	.st44{fill:#99A2A6;}
	.st45{fill:#919FA6;}
	.st46{fill:#99A0A5;}
	.st47{fill:#8FA0A9;}
	.st48{fill:#889AA1;}
	.st49{fill:#919EA4;}
	.st50{fill:#858F93;}
	.st51{fill:#9BA3AA;}
	.st52{fill:#989FA4;}
	.st53{fill:#8F9295;}
	.st54{fill:#949EA3;}
	.st55{fill:#8597A0;}
	.st56{fill:#929FA7;}
	.st57{fill:#909FA6;}
	.st58{fill:#8D9DA0;}
	.st59{fill:#829495;}
	.st60{fill:#94989C;}
	.st61{fill:#9CA4A9;}
	.st62{fill:#9AA1A6;}
	.st63{fill:#959EA5;}
	.st64{fill:#97A1A7;}
	.st65{fill:#8F9697;}
	.st66{fill:#969EA3;}
	.st67{fill:#959FA6;}
	.st68{fill:#8C989D;}
	.st69{fill:#889C9B;}
	.st70{fill:#8797A1;}
	.st71{fill:#91A2A9;}
	.st72{fill:#9DA1A5;}
	.st73{fill:#97A2A8;}
	.st74{fill:#8696A0;}
	.st75{fill:#8F9CA7;}
	.st76{fill:#95A3A5;}
	.st77{fill:#8DA4AD;}
	.st78{fill:#969FA5;}
	.st79{fill:#909B9C;}
	.st80{fill:#92A0A8;}
	.st81{fill:#9DA6A9;}
	.st82{fill:#909CA4;}
	.st83{fill:#8F9FA5;}
	.st84{fill:#87979F;}
	.st85{fill:#8597A1;}
	.st86{fill:#89979E;}
	.st87{fill:#919FA9;}
	.st88{fill:#859699;}
	.st89{fill:#98A4AB;}
	.st90{fill:#949CA5;}
	.st91{fill:#83969F;}
	.st92{fill:#979EA0;}
	.st93{fill:#8A8F92;}
	.st94{fill:#969EA2;}
	.st95{fill:#8F99A1;}
	.st96{fill:#919DA5;}
	.st97{fill:#8A9094;}
	.st98{fill:#8D9FA8;}
	.st99{fill:#8D9EA5;}
	.st100{fill:#8698A2;}
	.st101{fill:#939DA2;}
	.st102{fill:#9CA5AD;}
	.st103{fill:#95A0A1;}
	.st104{fill:#8597A3;}
	.st105{fill:#92A1A9;}
	.st106{fill:#7F99A9;}
	.st107{fill:#77A0B9;}
	.st108{fill:#899DA3;}
	.st109{fill:#999FA1;}
	.st110{fill:#8FA0A8;}
	.st111{fill:#8A949B;}
	.st112{fill:#8E9599;}
	.st113{fill:#9CA1A2;}
	.st114{fill:#95A1AA;}
	.st115{fill:#8998A1;}
	.st116{fill:#929FA8;}
	.st117{fill:#95939D;}
	.st118{fill:#859397;}
	.st119{fill:#8C979F;}
	.st120{fill:#7E949C;}
	.st121{fill:#8A9AA3;}
	.st122{fill:#8B99A0;}
	.st123{fill:#7E8F99;}
	.st124{fill:#98A3A9;}
	.st125{fill:#959FA5;}
	.st126{fill:#879096;}
	.st127{fill:#8D9EA7;}
	.st128{fill:#8C9EA7;}
	.st129{fill:#8DA5AC;}
	.st130{fill:#939EA3;}
	.st131{fill:#98A3A8;}
	.st132{fill:#9CA5A9;}
	.st133{fill:#929CA4;}
	.st134{fill:#9CA8AE;}
	.st135{fill:#DFE3E6;}
	.st136{fill:#909AA2;}
	.st137{fill:#8D9FA7;}
	.st138{fill:#869197;}
	.st139{fill:#87989E;}
	.st140{fill:#93A2AA;}
	.st141{fill:#86959F;}
	.st142{fill:#98A6A8;}
	.st143{fill:#959FA7;}
	.st144{fill:#869599;}
	.st145{fill:#A9B2BA;}
	.st146{fill:#96A9AA;}
	.st147{fill:#9098A0;}
	.st148{fill:#8B9A9F;}
	.st149{fill:#8397A4;}
	.st150{fill:#899BA5;}
	.st151{fill:#8C979C;}
	.st152{fill:#88939D;}
	.st153{fill:#869092;}
	.st154{fill:#8D979D;}
	.st155{fill:#899396;}
	.st156{fill:#8A99A1;}
	.st157{fill:#8C9A9C;}
	.st158{fill:#8A9496;}
	.st159{fill:#99A3AA;}
	.st160{fill:#92A2AE;}
	.st161{fill:#87949C;}
	.st162{fill:#889598;}
	.st163{fill:#88979A;}
	.st164{fill:#949797;}
	.st165{fill:#89989E;}
	.st166{fill:#A0AAB1;}
	.st167{fill:#7A878A;}
	.st168{fill:#8E9FA8;}
	.st169{fill:#A5ADB4;}
	.st170{fill:#858E95;}
	.st171{fill:#94999C;}
	.st172{fill:#93A9AB;}
	.st173{fill:#89939D;}
	.st174{fill:#879199;}
	.st175{fill:#969A9D;}
	.st176{fill:#97A1A6;}
	.st177{fill:#838C93;}
	.st178{fill:#929595;}
	.st179{fill:#94A2AB;}
	.st180{fill:#8E9699;}
	.st181{fill:#959FA3;}
	.st182{fill:#87949D;}
	.st183{fill:#919DA3;}
	.st184{fill:#969D9C;}
	.st185{fill:#979A9D;}
	.st186{fill:#A2AEB2;}
	.st187{fill:#8F959B;}
	.st188{fill:#949391;}
	.st189{fill:#9AA5AA;}
	.st190{fill:#8A979B;}
	.st191{fill:#7F919B;}
	.st192{fill:#A7AAAF;}
	.st193{fill:#919EA7;}
	.st194{fill:#868E91;}
	.st195{fill:#92A2A6;}
	.st196{fill:#81909C;}
	.st197{fill:#82959B;}
	.st198{fill:#91A0A7;}
	.st199{fill:#8B9CA5;}
	.st200{fill:#84949C;}
	.st201{fill:#869098;}
	.st202{fill:#889299;}
	.st203{fill:#839194;}
	.st204{fill:#858F98;}
	.st205{fill:#929DA4;}
	.st206{fill:#8C959A;}
	.st207{fill:#839096;}
	.st208{fill:#879097;}
	.st209{fill:#828B92;}
	.st210{fill:#849BA0;}
	.st211{fill:#8D9AA7;}
	.st212{fill:#859AA7;}
	.st213{fill:#8A99AA;}
	.st214{fill:#8496A3;}
	.st215{fill:#8199A0;}
	.st216{fill:#789AB2;}
	.st217{fill:#FEFEFE;}
	.st218{fill:#8799A4;}
	.st219{fill:#879BA7;}
	.st220{fill:#889BA7;}
	.st221{fill:#8C9AA2;}
	.st222{fill:#8B9EA9;}
	.st223{fill:#8C9AA3;}
	.st224{fill:#859BA5;}
	.st225{fill:#98A2A8;}
	.st226{fill:#8D9BA2;}
	.st227{fill:#86969F;}
	.st228{fill:#8D9AA6;}
	.st229{fill:#8B9AA1;}
	.st230{fill:#869DA9;}
	.st231{fill:#7F95A0;}
	.st232{fill:#8B9BA9;}
	.st233{fill:#899397;}
	.st234{fill:#919FA7;}
	.st235{fill:#8C9FAA;}
	.st236{fill:#8FA1AA;}
	.st237{fill:#83959C;}
	.st238{fill:#8A97A1;}
	.st239{fill:#85959D;}
	.st240{fill:#859AA5;}
	.st241{fill:#889AA7;}
	.st242{fill:#8E9CA3;}
	.st243{fill:#8699A2;}
	.st244{fill:#859AA6;}
	.st245{fill:#879BA8;}
	.st246{fill:#8E9EA4;}
	.st247{fill:#829CA6;}
	.st248{fill:#8B99A1;}
	.st249{fill:#909AA4;}
	.st250{fill:#8F9FA6;}
	.st251{fill:#889EA8;}
	.st252{fill:#8FA0AA;}
	.st253{fill:#90A1AB;}
	.st254{fill:#919EA9;}
	.st255{fill:#90A1AA;}
	.st256{fill:#85969E;}
	.st257{fill:#86979F;}
	.st258{fill:#8F9EA7;}
	.st259{fill:#84939F;}
	.st260{fill:#889BA3;}
	.st261{fill:#879AA9;}
	.st262{fill:#869AA7;}
	.st263{fill:#8799A2;}
	.st264{fill:#869AA9;}
	.st265{fill:#8F9AA6;}
	.st266{fill:#84989E;}
	.st267{fill:#8499A0;}
	.st268{fill:#8496A0;}
	.st269{fill:#8299A3;}
	.st270{fill:#8DA0A9;}
	.st271{fill:#88969F;}
	.st272{fill:#8EA0A7;}
	.st273{fill:#8E9FA9;}
	.st274{fill:#889BA2;}
	.st275{fill:#8F9BA0;}
	.st276{fill:#8F9AA2;}
	.st277{fill:#8E9EA6;}
	.st278{fill:#88959E;}
	.st279{fill:#889397;}
	.st280{fill:#86969D;}
	.st281{fill:#8E9BA6;}
	.st282{fill:#889BA8;}
	.st283{fill:#90A2AE;}
	.st284{fill:#EAECED;}
	.st285{fill:#ECEEEF;}
	.st286{fill:#F5F7F8;}
	.st287{fill:#F7F7F8;}
	.st288{fill:#84959C;}
	.st289{fill:#809199;}
	.st290{fill:#86939B;}
	.st291{fill:#8C9FA4;}
	.st292{fill:#83999E;}
	.st293{fill:#8EA0A9;}
	.st294{fill:#E0E5E7;}
	.st295{fill:#E2E6E9;}
	.st296{fill:#8A999C;}
	.st297{fill:#F7F9FA;}
	.st298{fill:#818E97;}
	.st299{fill:#84969F;}
	.st300{fill:#90A3AC;}
	.st301{fill:#8295A3;}
	.st302{fill:#94A0A8;}
	.st303{fill:#82989F;}
	.st304{fill:#8D98B1;}
	.st305{fill:#8DA2A9;}
	.st306{fill:#84979E;}
	.st307{fill:#88969D;}
</style>
<g>
	<path class="st0" d="M117.25,169.02c-2.39,5.4-7.47,7.44-12.3,9.77c-1.6,0.77-3.54,0.75-4.88,2.12c-9.99,0-19.98,0-29.97,0
		c-0.38-0.64-0.76-1.29-1.14-1.93c0.22-0.65,0.66-1.07,1.28-1.34c0.37-0.17,0.61-0.2,0.71-0.07c-1.18-0.21-1.98,0.59-2.85,1.2
		c-0.83,0.16-1.63,0.22-2.05-0.74c-0.69-2.25,1.15-4.19,0.77-6.4c0.04-1.27,0.15-2.53,0.85-3.65c0.71-0.8,1.66-1.05,2.68-1.12
		c3.4,1.1,0.02-1.77,1.15-1.99c0.28-1.15,0.58-2.29,1.64-3.02c1.69,1.29,3.39,2.57,5.08,3.86c3.67,2.96,7.81,1.64,11.84,1.3
		c2.02-0.64,4.05-1.28,6.07-1.92c1.41,0.35,2.79,0.79,4.24,0.99c2.97-0.04,5.85,0.36,8.51,1.77c1.33,0.91,2.76,0.64,4.2,0.36
		c0.85-0.19,1.7-0.28,2.57-0.17c0.44,0.08,0.84,0.24,1.22,0.47C116.99,168.66,117.12,168.84,117.25,169.02z"/>
	<path class="st1" d="M407.79,72.03c-0.36,0.04-0.73,0.09-1.09,0.13c0,0,0.12-0.21,0.12-0.21c-2.4-4.98-1.63-10.09-0.61-15.21
		c0.39-0.55,0.92-0.79,1.59-0.7C407.79,61.37,407.79,66.7,407.79,72.03z"/>
	<path class="st2" d="M407.79,56.04c-0.33,0-0.65-0.01-0.98-0.01c-0.16-0.17-0.32-0.33-0.49-0.49c-0.46-0.93-0.25-1.8,0.26-2.63
		c0.44-0.25,0.84-0.21,1.21,0.14C407.79,54.05,407.79,55.04,407.79,56.04z"/>
	<path class="st3" d="M407.79,53.05l-0.5,0l-0.5,0c-0.4-0.18-0.67-0.48-0.81-0.9c0.22-0.99,1-1.06,1.8-1.1
		C407.79,51.71,407.79,52.38,407.79,53.05z"/>
	<path class="st4" d="M405.78,180.16c0.67-0.08,1.34-0.17,2.01-0.25c0.15,1.97-1.37,0.59-2,1
		C405.79,180.66,405.79,180.41,405.78,180.16z"/>
	<path class="st5" d="M113.06,168.91c-1.33,1.39-2.67,0.54-4,0c-0.69-3.61-4.06-6.64-2.34-10.78c0.06-1.14-0.14-2.25-0.47-3.34
		c-0.24-0.91-0.35-1.83-0.4-2.76c0.01-1.62-0.39-3.23-0.17-4.86c0.43-1.08,1.19-1.96,1.79-2.94c1.35-1.42,2.85-2.85,2.16-5.06
		c-0.6-1.91-2.18-0.65-3.32-0.79c-2.97-1.58-4.69-0.68-5.23,2.61c-0.57,1.62-0.93,3.41-3.08,3.73c-2.14,0.15-4.31,0.86-6.39-0.31
		c-5.52-1.69-11.02-3.43-16.93-3.08c-2.13,0.13-4.32,0.21-6.36-0.73c-1.16-0.94-2.08-1.91-0.48-3.25c4.68-1.43,9.49-0.39,14.23-0.73
		c1.91-0.13,4.03,0.55,5.51-1.34c0.59-0.97,1.71-1.2,2.54-1.82c0.44-0.66,0.56-1.5,1.14-2.08c1.18-0.86,2.25-2,3.94-1.57
		c0.48,0.49,0.66,1.11,0.69,1.78c-0.01,0.61-0.14,1.21-0.15,1.78c1.35,0.72,1.17-0.8,1.75-1.18c1.12-1.35,1.48-2.91,1.34-4.62
		c-0.02-0.93-0.03-1.86,0.02-2.79c0.17-1.78,0.61-3.4,2.45-4.19c2.82-0.54,1.96,2.26,3.01,3.28c1.22-1.15,1.25-3,2.54-4.06
		c5.14-3.11,5.67-11.51,0.93-14.86c-1.58-1.29-3.2-2.21-5.12-0.59c-0.49-0.04-0.9-0.23-1.25-0.57c-0.9-1.04-1.19-2.35-1.61-3.61
		C97.13,92.22,92.7,89,84.26,88.89c-1.48-0.02-3.01,0.37-4.27-0.78c-0.3-1.67,0.97-2.17,2.07-2.8c1.66-0.63,3.41-0.54,5.13-0.62
		c1.96,0.03,3.42-0.93,4.65-2.35c0.74-0.66,1.59-1.12,2.56-1.35c1.99-0.34,3.97-0.36,5.95,0.11c1.39,0.45,2.51,1.32,3.59,2.26
		c0.3,0.32,0.51,0.69,0.65,1.1c0.24,1.34,1.02,2.01,2.42,1.94c4.08-0.69,3.07-2.95,1.67-5.32c-0.52-0.63-1.16-0.88-1.98-0.64
		c-0.41-0.02-0.79-0.15-1.13-0.38c-0.59-0.62-0.95-1.32-0.71-2.21c0.75-1.44,0.33-2.69-0.63-3.85c1.86-2,4.22-2.8,6.89-2.85
		c1.85,0.88,3.11-0.52,4.59-1.14c2.28-0.97,3.49-0.18,3.49,2.35c-0.17,0.53-0.35,1.05-0.53,1.58c-0.15,15.28-0.81,30.56,0.39,45.82
		c0.56,4.97,0.6,9.94,0.04,14.89c-0.15,0.48-0.4,0.92-0.72,1.3c-0.64,0.81-2.04-1.36-2.42,0.6c-3.18,3.03-1.23,5.49,0.88,7.94
		c0.82,2.26,0.55,4.6,0.61,6.92c-0.27,2.6,0.33,5.17,0.26,7.76c-0.12,0.5-0.37,0.93-0.74,1.28
		C112.95,162.02,115.43,166.59,113.06,168.91z"/>
	<path class="st5" d="M208.83,103.94c2.9-3.7,7.3-1.75,10.93-2.77c3.84-1.08,7.78-1.49,10.17-5.23c0.5-0.03,0.33,1.37,1.19,0.53
		c0.08-0.37-0.02-0.63-0.33-0.82c-0.31-0.15-0.54-0.37-0.73-0.64c0.42-3.64-2.01-5.74-4.3-7.9c0.13-2.42-3.1-1.99-3.43-4.03
		c-0.07-0.45-0.05-0.9,0.07-1.35c3.6-2.41,7.91-3.23,11.72-5.19c1.3-0.04,2.39,0.46,3.35,1.31c1.17,1.58,2.65,2.66,4.62,3.11
		c1.48,0.34,2.74,1.04,2.19,2.97c-1.22,1.6-3.39,0.92-5.38,2.38c2.44,0.82,5.16,0.34,6.56,2.55c0.72,1.36,0.94,2.86,1.22,4.35
		c0.14,1.39-0.41,2.6-0.97,3.82c-0.46,3.4-1.2,6.44-3.37,9.51c-2.12,3-2.27,8.05-0.02,10.87c4.49,5.62,2.69,11.53,2.6,17.47
		c0.18,1.54-5.54,2.59-0.36,4.54c0.84,0.75,1.07,1.61,0.44,2.61c-4.22,2.4-7-0.65-10.06-2.65c-0.45-0.46-0.88-0.95-1.41-1.33
		c-1.04-0.62-1.91,0.05-2.82,0.4c-4.59,0.2-8.11,1.92-9.55,6.65c-1.21,0.74-2.48,1.29-3.92,1.33c-1.18-0.27-2.51-0.88-2.32-2.11
		c0.43-2.69-1.77-3.18-3.14-4.4c-0.38-0.64-0.42-1.3-0.12-1.99c1.1-1.21,2.93-1.31,3.97-2.62c1.14-0.95,2.43-1.39,3.92-1.14
		c1.11,0.16,2.13,0.73,3.25,0.83c0.71,0.11,1.42,0.45,2.14,0.32c-1.28,0.06-2.27-0.42-3.03-1.47c0.92-3.14,4.04-4.49,5.7-7.02
		c2.19-1.31,0.78-3.56,1.36-5.29c0.05-0.46,0.15-0.91,0.26-1.35c0.98-2.66-0.57-6.02,2.33-8.53c1.54,2.15,0.55,4.32,0.75,5.27
		c0.02,1.71,0.55,1.18,0.51,1.09c-0.7-1.53-0.19-3.19-0.36-4.79c-1.17-1.01,3.28-2.76-0.45-3.43c-2.18-0.52-2.76,1.42-3.89,2.52
		c-4.25,2.66-8.92,3.54-13.86,3.24c-1.4-0.77-2.13-2.09-2.88-3.41C210.19,109.52,211.67,106.06,208.83,103.94z"/>
	<path class="st6" d="M169,74.93c-1.8,0.32-3.34-0.65-5-1.03c-1.15-0.94-2.46-1.28-3.93-1.03c-1.97,1.28-1.17,3.29-1.18,4.98
		c-0.08,10.4,0.12,20.81-0.14,31.21c-0.11,4.52,1.51,7.59,5.34,9.7c2.3,3.44,1.07,7.34,1.45,11.02c-0.39,1.84,1.92,3.42,0.53,5.35
		c-4.73,1.51-9.42,1.09-14.09-0.3c-1.44-0.64-3.06-0.9-4.29-2c-0.18-0.43-0.35-1.16-0.07-1.29c2.32-1.08-0.24-1.4-0.3-2.09
		c-0.56-1.2-0.63-2.48-0.66-3.76c-0.11-1.91-0.07-3.81-0.04-5.71c-0.06-3.48-0.01-6.96,0-10.44c0.01-1.33-0.33-3.03,0.49-3.88
		c4.2-4.31,3.36-9.74,3.7-14.93c0.05-0.83,0.14-1.91,0.78-2.3c4.41-2.72,3.09-6.38,2.18-10.3c-0.57-2.45-0.92-4.47-3.79-5
		c-1.36-0.25-2.72-1.02-2.82-2.46c-0.38-5.48-2.36-11.22,2.02-16.09c1.33-1.48,1.3-3.34,1.75-5.07c-0.39-1.57,2.4-1.54,1.63-3.3
		c-0.46-0.4-0.79-0.86-0.91-1.46c0.26-2.39,2.49-3.22,3.78-4.8c0.71-0.77,1.8-0.96,2.57-1.63c1.83,4.23,0.35,8.67,0.85,12.98
		c0.2,1.69-0.72,3.67,1.19,4.95c1.65,0.73,2.83,2.17,4.57,2.84C171.03,61.57,172.95,68.72,169,74.93z"/>
	<path class="st0" d="M54.01,134.17c-3.06-3.39-3.75-7.79-4.29-11.94c-1.51-11.76-1.85-23.5,4.34-34.34c1.1,0.4,1.87,1.2,2.52,2.14
		c0.41,0.89,0.41,1.78,0.08,2.7c-0.1,0.27-0.47,0.38-0.39,0.73c0.43-0.21,0.7-0.58,0.96-0.97c0.87-1.3,0.67-2.93,1.35-4.29
		c0.27-0.39,0.61-0.68,1.02-0.9c1.35-0.52,2.76-0.47,4.17-0.49c1.17,0.01,2.33,0.05,3.48,0.33c0.44,0.13,0.85,0.34,1.22,0.61
		c1.11,0.99,0.94,2.46,1.43,3.7c0.2,0.66,0.31,1.34,0.38,2.03c0.07,1.45,0.47,2.84,0.71,4.26c-0.56,5.91-2.41,11.7-1.12,17.76
		c1.58,7.45,3.79,14.24,12.52,16.09c0.96,0.2,1.82,0.82,2.26,1.82c0.48,2.39-0.72,3.41-2.94,3.49c-2.65,0.09-5.3,0.09-7.94-0.01
		c-0.48-0.06-1.19-0.11-1.33-0.47c-1.12-2.79-2.14-1.83-3.19,0.02c-0.31,0.3-0.67,0.56-1.05,0.76c-1.73-0.18-2.31,1.74-3.76,2.07
		c-1.95-0.45-3.47-1.75-5.19-2.67c-0.35-0.29-0.63-0.63-0.86-1.02c-0.71-1.6-1.25-3.28-2.42-4.59
		C55.22,132,55.77,133.81,54.01,134.17z"/>
	<path class="st0" d="M94.08,82.01c-0.67,0.33-1.33,0.67-2,1c-2.99-1.77-6.21-2.16-9.57-1.55c-0.48,0.2-0.96,0.4-1.29,0.82
		c-0.16,0.48,0.1,0.92,0.14,1.38c0.1,0.36-0.67,0.77,0.06,1.11c0.38,0.33,0.65,0.72,0.66,1.24c-0.67,0.61-1.33,1.22-2,1.83
		c-0.92,2.51-3.35,2.74-5.39,3.55c-0.69,0-1.27-0.28-1.82-0.67c-0.51-0.36-1-0.75-1.53-1.07c-1.06-0.59-2.26-0.9-3.25-1.64l0,0
		c-0.98-1.58-2.37-2.02-4.12-1.47c-1.74-0.48-3.32-1.33-4.93-2.12c-0.81-0.64-0.94-1.58-1.12-2.5c0.94-2.45,2.64-4.17,5.06-5.18
		c0.94,0.56,1.86,0.29,2.78-0.1c0.4-0.1,0.81-0.11,1.22-0.04c0.59,0.2,1.09,0.56,1.54,0.98c0.32,0.25,0.63,0.52,0.95,0.77
		c0.95,0.44,1.9,0.52,2.85,0.03c0.46-0.65,0.28-1.46,0.52-2.17c0.82-1.36,2.01-2.54,2.18-4.23c5.38-3.36,10.72-1.57,16.05,0.14
		c1.48,0.69-0.08,3.58,3.24,3.64C95.79,75.78,96.23,79.88,94.08,82.01z"/>
	<path class="st7" d="M202.97,72.13c1.22-0.08,2.45-0.15,3.67-0.23c1.62-1.02,3.38-0.94,5.16-0.65c4.95,2.5,10.51,0.31,15.56,2.03
		c2.08,2.13,0.71,3.15-1.33,3.71c-2.08,0.57-4.26,0.21-6.4,0.36c-1.87,0.13-3.98-0.66-5.74,1.35c1.24,1.56,2.77,0.19,4.03,0.47
		c1.44,0.32,2.73,0.66,1.52,2.53c-0.17,0.33-0.27,0.69-0.24,1.07c0.41,0.99,1.94,1.72,0.74,3.08c-6.13-0.21-11.46,1.04-15.68,6.21
		c-2.17,2.65-5.49,0.32-8.27-0.2c-0.35-0.33-0.69-0.69-1.09-0.96c-5.25-3.53-5.25-3.53-2.82-10.06c1.34-0.48,2.66-1.03,3.95-1.66
		c1.42-0.29,2.73-0.87,4.03-1.47c1.38,0.02,2.58-0.14,2.32-2.01C202.2,74.45,202.01,73.19,202.97,72.13z"/>
	<path class="st8" d="M183.78,118.88c1.38-6.03,5.46-9.63,10.82-12.1c0.48-0.19,1.29-0.17,1.32,0.14c0.44,4.46,3.68,5.93,7.32,7
		c0.57,1.51-0.15,2.38-1.46,2.96c-1.88,0.24-3.39,1.72-5.38,1.63c-3.13-1.16-2.99,1.01-3.02,3c-0.14,4.44,0.44,8.89-0.39,13.29
		c-2.02,2.57-2.28,4.83,1.04,6.62c1.13,0.61,2.1,1.51,2.38,2.9c-0.3,1.47-0.33,3.21-2.64,2.76c-2.54-1.79-5.57-3-7.06-6.01
		c0.52-2.39-1.8-3.67-2.22-5.7c0.14-1.7,1.48-3.17,0.98-4.92c-0.15,1.39,0.43,3.54-2.4,2.51c-0.15-0.28-0.19-0.58-0.12-0.89
		c-0.48-2.79,0.26-5.59-0.12-8.38c0.07-0.56,0.14-1.13,0.22-1.69C184.16,121.16,184,120.03,183.78,118.88z"/>
	<path class="st9" d="M68.1,171.92c0.46,2.42-0.75,4.28-2.05,6.1c-4.8-0.28-6.93-4.31-9.95-7.09c0.19-1.31-0.03-2.58-0.44-3.83
		c0.14-2.36-1.45-4.84,0.47-7.08c2.64-0.59,4.94-2.37,7.79-2.2c2.24-0.97,4.28-0.91,5.5,1.51c0.68,1.34,2.12,0.7,2.95,1.48
		c0.26,0.34,0.51,0.68,0.77,1.02c-0.07,1.12,0.17,2.34-1.02,3.09c-1.61,0.57-0.65,2-1,3c-1,0-2,0-3,0
		C65.26,169.25,65.25,170.59,68.1,171.92z"/>
	<path class="st10" d="M119.05,72.03c-0.72-1.2-1.42-2.44-3.02-1.01c-1.59,1.42-3.23,1.44-4.92,0.16c2.73-0.85,4.89-3.34,8.1-2.79
		c4.54-1.13,4.34,1.85,4.33,4.87c-0.03,25.66-0.02,51.33-0.01,76.98c0.13,1.5-0.7,2.77-1.01,4.17c-0.18,0.58-0.57,0.88-1.18,0.88
		c-1.49-0.48-1.99-1.59-1.96-3.05c0.17-1.26,0.58-2.46,0.89-3.69c0.84-2.11-0.08-4.1-0.45-6.13c-0.4-20.22-0.07-40.44-0.18-60.65
		c-0.02-2.65,0.14-5.3-0.22-7.94c-0.07-0.3-0.14-0.59-0.21-0.89C119.16,72.63,119.1,72.33,119.05,72.03z"/>
	<path class="st11" d="M243.94,84.01c-0.14-1.7-1.29-2.1-2.71-1.98c-2.95,0.25-3.96-1.5-4.29-4.01c-0.25-0.23-0.35-0.47-0.3-0.73
		c0.05-0.26,0.11-0.4,0.18-0.4c1.69-0.42,3.38-0.51,5.04,0.16c7.71,3.2,7.56,10.38,7.74,16.77c0.44,15.36,0.21,30.74,0.25,46.11
		c-1.9,0.09-2.34-1.38-2.92-2.71c-0.65-3.2-0.28-6.43-0.42-9.66c-0.16-10.24,0.37-20.48-0.3-30.71c-0.26-1.1,0.26-2.16,0.21-3.25
		c-0.78-2.05-0.03-4.42-1.28-6.38C244.51,86.25,243.84,85.27,243.94,84.01z"/>
	<path class="st12" d="M137.84,120.04c-1.15-1.66-0.63-3.54-0.63-5.32c-0.04-21.57-0.04-43.14,0.02-64.72
		c0-1.66-0.95-3.75,1.35-4.83c0.55,0.05,0.91,0.35,1.06,0.89c0.7,2.57,0.68,5.21,0.78,7.85c0.05,19.64,0.03,39.26,0.01,58.89
		c0,2.3,0.37,4.68-0.88,6.83C139.08,120.22,138.51,120.36,137.84,120.04z"/>
	<path class="st13" d="M164.01,130.96c0.03-4.07,0.05-8.13,0.08-12.2c2.57,1.02,5.96-1.78,7.7,0.6c1.51,2.07,1.56,5.27,2.06,8.01
		c1.14,6.32,0.89,6.58-5.8,7.47c-0.25-1.71,1.15-1.89,2.18-2.38C168.26,131.59,165.81,132.64,164.01,130.96z"/>
	<path class="st14" d="M123,151.89c0.01-26.01-0.05-52.01,0.11-78.02c0.02-3.17-0.74-4.97-3.89-5.49c0.95-1.71,2.67-2.17,4.18-1.57
		c1.08,0.43,0.49,2.11,0.5,3.22c0.04,26.79,0.04,53.57,0.04,80.36c0,1.32,0.14,2.68-0.75,3.83
		C122.41,153.51,122.47,152.72,123,151.89z"/>
	<path class="st15" d="M92.08,143.95c1.97,0.27,4.1-0.67,5.91,0.77c-7.49,6.69-16.13,6.83-25.21,4.4c0.41-1.6,1.79-2.35,2.91-3.33
		c2.67-1.63,5.75-0.97,8.6-1.59c1.75-0.15,3.49,0.72,5.26,0.1C90.37,144.05,91.2,143.83,92.08,143.95z"/>
	<path class="st16" d="M292.9,132.96c0.87-1.56,3.41-2.8,0.99-5.01c-0.42-0.88,0.29-1.94-0.45-2.77c0.33-2.67,0.01-5.34,0.07-8.01
		c0.23-0.69,0.99-0.94,1.29-1.58c1.05-2.35,3.74-2.02,3.74-0.51c0,6.2,2.23,12.67-1.43,18.59c-0.08,0.12-0.28,0.16-0.42,0.24
		C295.09,134.93,293.98,134.01,292.9,132.96z"/>
	<path class="st17" d="M202.98,113.98c-6.42,1.81-7.5-2.57-8.38-7.2c0.44-0.27,0.89-0.54,1.33-0.81c1.45-0.73,3.14-0.56,4.62-1.3
		c0.72-0.36,1.6,0.07,1.77,1.1c0.15,0.88-0.32,1.41-1.47,1.75c2.63-0.37,1.57-2.35,2.12-3.53c0.21-0.15,0.44-0.19,0.7-0.12
		c3.14-0.92,4.95,0.1,3.26,3.28c-1.76,3.33,0.15,3.89,2.46,4.64c0.68,0.88,1.35,1.75,0.15,2.73
		C207.24,115.59,205.04,115.6,202.98,113.98z"/>
	<path class="st18" d="M227.95,74.02c-4.07,0-8.15,0.02-12.22-0.01c-1.57-0.01-3.43,0.41-3.76-1.99c-0.6-0.69-0.59-1.39-0.03-2.09
		c6.96-1.76,13.65-0.86,20.14,2.04c-0.22,0.34-0.52,0.61-0.88,0.79c-0.36,0.16-0.73,0.29-1.1,0.41
		C229.36,73.4,228.7,73.82,227.95,74.02z"/>
	<path class="st19" d="M169,74.93c-0.09-2.55,0.76-4.93,0.51-7.67c-0.42-4.49-1.75-6.94-6.33-7.19c-2.44-0.13-1.6-2.93-3.12-3.81
		c0.64,0.11,1.31,0.15,1.93,0.36c3.21,1.06,8.48-0.05,9.41,2.78c1.46,4.44,0.61,9.68,0.52,14.57C171.88,76.4,170.12,75,169,74.93z"
		/>
	<path class="st20" d="M334.7,125.05c-1.83-3.7-0.97-7.12,1.69-9.87c2.31-2.39,5.46-1.98,8.34-0.98c1.78,0.62,3.62,2.15,2.75,4.02
		c-0.84,1.79-2.72,0.96-4.1-0.26c-2.2-1.92-3.91-0.69-5.5,1c-1.14,1.55-0.14,3.4-0.7,5.03C336.59,124.91,335.91,125.61,334.7,125.05
		z"/>
	<path class="st21" d="M208.97,111.98c-1.56-0.53-3.37,1.6-4.54,0.08c-1.38-1.78,0.44-3.27,1.37-4.74c1.64-2.59,0.53-3.49-2.12-3.44
		c1.73-1.37,3.45-1.15,5.16,0.06c1.74-0.73,3.22-1.06,3.14,1.69c-0.06,2.12-0.01,4.24,0,6.36
		C210.97,114.38,209.97,112.14,208.97,111.98z"/>
	<path class="st22" d="M293.87,125.96c1.14,0.65,0.12,1.32,0.03,1.99c-2.44,1.86-5.4,1.95-7.14-0.14c-1.97-2.37-4.05-5.42-1.93-8.99
		c1.42,0.02,0.19-1.32,0.87-1.68c1.3-1.3,2.5-1.1,3.64,0.21C289.5,120.92,289.64,124.51,293.87,125.96z"/>
	<path class="st23" d="M404.8,71.83c-2.35-1.5-4.67,0.83-7.02,0.03c-2.08-1.21-1.12-2.32,0.12-3.42c1.88-0.89,4.24-1.21,4.41-4.03
		c0.21-3.54-3.15-3.8-4.94-5.51c-0.42-1.01-0.34-1.93,0.47-2.72c1.25,0.04,2.51,0.07,3.76,0.11c1.3,0.54,3.31-1.89,4.05,0.98
		C405.43,62.13,406.83,67.08,404.8,71.83z"/>
	<path class="st24" d="M297.88,101.94c-2.73,0.79-3.11-0.81-3.07-2.95c0.08-5.32,0.12-10.64,0.17-15.96
		c2.99-1.37,3.42,0.35,3.4,2.75C298.34,91.16,298.51,96.56,297.88,101.94z"/>
	<path class="st25" d="M288.07,89.98c-1.83-0.81-3.54-0.42-5.2,0.5c-0.84,0.46-1.6,0.52-1.96-0.54c-0.18-0.55-0.42-1.51-0.18-1.7
		c2.44-1.9,5.33-1.43,8.09-1.18c2.27,0.2,3.27,1.77,3.04,4.05c-1.14,2.31,1.93,5.02-0.69,7.19c-0.71,0.37-1.43,0.39-2.16,0.09
		c-0.85-0.63-1.09-1.56-1.3-2.52C286.66,93.83,288.99,92.01,288.07,89.98z"/>
	<path class="st26" d="M192.97,81.02c-0.81,3.32-3.58,7.19,2.46,8.64c0.34,0.08,0.38,1.44,0.55,2.2c-0.49,0.01-0.99,0.1-1.46,0
		c-9.57-2.01-9.64-2.19-3.8-10.46c0.36-0.51,0.85-0.93,1.27-1.39C192.97,79.72,193.16,80.18,192.97,81.02z"/>
	<path class="st27" d="M220.95,144.94c-0.81-5.59,4.31-8.06,10-6.99c2.33,0.79,3.25,2.3,2.42,4.72c-1.16,1.11-1.72,0.24-2.26-0.69
		c-0.36-2.16-1.31-2.41-2.92-0.98c-2.2,1.95-4.36,3.97-7.22,4.97c-0.26-0.22-0.34-0.45-0.26-0.68
		C220.78,145.06,220.87,144.94,220.95,144.94z"/>
	<path class="st28" d="M339.84,71.88c-3.51-1.53-4.15-4.47-3.89-7.86c1.54-1.13-0.08-2.89,0.83-4.15c0.5-4.15,3.67-2.69,6.05-2.89
		c0.26,0.27,0.35,0.54,0.29,0.83c-0.06,0.29-0.13,0.44-0.21,0.44c-4.36,2.87-3.54,6.74-2.04,10.73
		C341.64,70.33,340.65,71.07,339.84,71.88z"/>
	<path class="st29" d="M318.07,117.95c-0.03-1.35-1.04-3.01,0.86-3.8c1.67-0.7,2.73,0.48,3.69,1.64c0.55,0.32,0.64,0.75,0.28,1.27
		c-1.63,2.58-0.85,5.47-1.13,8.24c-0.14,1.41,0.95,3.62-1.93,3.6c-2.86-1.68-0.52-4.78-1.88-6.87c0-0.69,0-1.39,0.01-2.08
		C318.17,119.28,319.27,118.67,318.07,117.95z"/>
	<path class="st30" d="M94.08,82.01c0.1-1.13,0.2-2.26,0.3-3.38c-1.09,0.02,1.48-4.31-2.38-1.82c-1.15,0.74-0.26-3.09-0.91-4.69
		c2.73,0.51,5.04,1.72,6.72,4c0,2.46,3.34,2.33,3.58,4.6c0.08,0.48-0.04,0.9-0.32,1.29C98.73,82.01,96.4,82.01,94.08,82.01z"/>
	<path class="st31" d="M300.71,64.03c0.05,1.45,0.19,2.91,0.13,4.35c-0.05,1.19,0.56,2.69-1.13,3.34c-1.73,0.67-2.69-0.46-3.64-1.59
		c-1.21,0.53-1.79-0.19-2.25-1.15c2.51-1.52,2.93-3.86,3.04-6.6c0.08-2.07-1.2-4.5,1.03-6.25c1.73,1.7,0.84,4.03,1.46,5.99
		c0.14,0.37,0.33,0.7,0.59,1.01C300.21,63.43,300.46,63.73,300.71,64.03z"/>
	<path class="st32" d="M107.07,154.94c1.17,0.72,0.96,1.9,0.99,2.99c-0.74,0.91-1.37,2.03-1.48,3.08c-0.4,4.23-2.82,5.54-6.68,5.1
		c-1.35-0.86-1.72-1.97-0.91-3.41c1.83-0.67,1.69-2.72,2.76-3.93c2.04-0.2,1.16-3.33,3.36-3.36
		C105.91,155.85,106.56,155.67,107.07,154.94z"/>
	<path class="st22" d="M269.76,68.34c-2.31-6.89-0.45-11.27,5.17-12.16c0.83,0.9,2.49,1.2,2.18,2.95c-1.05,1.4-2.68,2.24-3.6,3.76
		C272.07,64.58,272.26,67.39,269.76,68.34z"/>
	<path class="st33" d="M313.02,62.95c2.24,1.14,4.5,2.45,3.57,5.45c-0.81,2.63-2.86,3.86-5.71,3.46c-0.78-0.88-0.8-1.76,0-2.64
		c0.74-0.29,1.81-0.44,1.59-1.51c-0.27-1.31-1.51-1.59-2.63-1.91c-1.27-0.52-1.9-1.41-1.04-2.64c0.51-0.73,1.73-0.84,2.09-0.07
		C311.87,65.2,312.27,61.77,313.02,62.95z"/>
	<path class="st34" d="M274.84,89.82c0.66,3.43-1.17,7.09,1.59,10.43c1.49,1.8-0.76,2.57-2.21,2.36c-3.28-0.46-3.66-2.84-3.15-5.59
		c1.57-2.4,0.11-5.77,2.5-7.92C274.37,88.67,274.83,88.84,274.84,89.82z"/>
	<path class="st35" d="M359.87,68.87c-3.43-7.56-1.25-11.55,6.93-12.72c1.24,1.71-0.29,2.4-1.2,3.33c-1.52,0.89-1.66,2.88-3.07,3.87
		C360.45,64.61,362.89,68.06,359.87,68.87z"/>
	<path class="st36" d="M379.8,71.12c-2.63,0.05-3.12-1.67-3.13-3.79c-0.6-3.71-0.37-7.42,0.19-11.11c1.93-0.39,3.28-0.06,3.16,2.36
		c-0.11,2.14-0.11,4.29-0.16,6.43C377.79,67.04,381.56,69.1,379.8,71.12z"/>
	<path class="st37" d="M318.87,87.04c2.2,0.28,4.35,1.24,6.56-0.39c1.27-0.94,2.88-0.99,3.56,1.06c0.52,1.27,0.61,2.31-1.23,2.35
		c-2.48-0.04-5.58-1.34-5.92,2.94c-1.06,0.82-2.12,0.92-3.19,0.02C318.31,91.02,318.03,89.01,318.87,87.04z"/>
	<path class="st38" d="M216.88,147.9c-5.83,2.7-11.79,3.14-17.89,1.01c-0.59-0.56-0.62-1.21-0.32-1.92c0.5-0.56,1.15-0.72,1.87-0.65
		c0.66,0.13,1.27,0.4,1.91,0.62c2.05,0.23,4.07-0.35,6.11-0.22c1.51,0.06,2.84-0.56,4.19-1.14c1.15-0.28,2.13,0.18,3.11,0.69
		C216.42,146.68,216.79,147.2,216.88,147.9z"/>
	<path class="st39" d="M230.95,72.03c0.38-0.02,0.75-0.04,1.13-0.06c3.92,0.43,7.66,1.21,9.79,5.08c-1.65,1.13-3.29,1.06-4.92-0.03
		c-1.36-0.03-2.67-0.64-4.06-0.37c-0.72-0.18-1.25-0.62-1.63-1.24C230.77,74.32,230.26,73.23,230.95,72.03z"/>
	<path class="st40" d="M327.77,90.06c0.94-0.51,1.11-1.42,1.23-2.35c4.61-0.24,2.55,3.22,2.95,5.31c-2.68,2.36,0.31,6.68-3.04,8.8
		C326.95,98.05,328.52,93.95,327.77,90.06z"/>
	<path class="st41" d="M279.88,56.96c0.78-1.25,1.91-0.91,3.02-0.67c0.22,4.33,1.25,8.68-0.38,12.96c-1.98-0.04-2.53-1.63-3.28-3.01
		c-0.61-1.94-1.21-3.89-1.04-5.98C278.38,58.96,279.02,57.9,279.88,56.96z"/>
	<path class="st42" d="M277.63,119.81c0.6-4.58-2.24-3.19-4.18-2.12c-1.48,0.81-3.02,2.31-3.96,0.31c-0.75-1.59,1.22-3.07,2.65-3.67
		c2.62-1.1,5.4-1.36,7.89,0.6c0.61,0.88-2.82-0.24-0.74,1.61c0.98,0.88,0.69,2.49-0.37,3.61C278.43,120.29,278,120.16,277.63,119.81
		z"/>
	<path class="st43" d="M334.7,125.05c0.72-0.36,1.45-0.73,2.17-1.09c0.34-0.49,0.68-0.49,1.02,0c1.37,2.54,3.57,2.36,5.88,1.77
		c0.97,1.05,0.08,2.17,0.11,3.26C339.47,130.84,336.31,129.74,334.7,125.05z"/>
	<path class="st44" d="M293.83,68.99c0.75,0.38,1.5,0.76,2.24,1.14c-2.75,2.29-5.47,2.97-8.14-0.13c-0.08-1.57,0.73-3.04,0.46-4.63
		c0.35-3.07-0.55-6.35,1.5-9.14c1.85,2.68,0.59,5.7,0.87,8.55C290.97,66.95,291.25,68.71,293.83,68.99z"/>
	<path class="st45" d="M385.68,67.79c1.08-3.73-0.65-7.75,1.15-11.41c1.43,1.42,1.32,3.19,0.88,4.89c-0.58,2.24,1.4-0.18,1.4,0.84
		c0.54,1.27-0.38,2.82,0.76,3.97c-0.54,1.68,1.84,4.61-2.09,4.83C386.69,70.13,384.91,69.82,385.68,67.79z"/>
	<path class="st46" d="M330.85,128.76c-2.64,0.84-3.12-0.63-3.12-2.8c0.01-2.62-0.11-5.25-0.17-7.87c0.44-0.46,0.98-0.72,1.62-0.76
		c1.32,0.13,2.21,0.74,2.13,2.17C331.13,122.58,331.89,125.71,330.85,128.76z"/>
	<path class="st47" d="M54.01,134.17c1.68-1.93,0.24-3.51-0.84-5.28c1.49-0.49,2.27,0.14,2.95,1.07c1.39,1.8,2.05,3.97,3,5.99l0,0
		c0.54,0.55,0.78,1.2,0.74,1.97c-0.2,1.03-0.7,1.81-1.77,2.11C56,138.58,54.7,136.58,54.01,134.17z"/>
	<path class="st48" d="M143.03,43.07c3.06-1.87,6.34-3.03,9.96-3.12c1.46,3.66-2.35,3.79-3.71,5.57c-0.71,0.59-1.47,1.09-2.43,1.15
		c-0.45-0.01-0.89-0.11-1.32-0.26C144.29,45.61,142.48,45.22,143.03,43.07z"/>
	<path class="st49" d="M338.9,97c0.26,0.61,0.71,1.21,0.74,1.83c0.06,1.24,1.54,3.24-1.03,3.41c-1.81,0.11-2.99-1.07-2.91-3.2
		c0.11-2.98,0.03-5.98,0.03-8.96c0.32-0.34,0.72-0.51,1.17-0.54C340.26,91.31,336.84,94.88,338.9,97z"/>
	<path class="st50" d="M292.9,132.96c1.26,0.32,2.53,0.63,3.79,0.95c-3.14,2.04-6.4,2.49-9.7,0.5c-0.93-0.56-2.3-1.38-1.67-2.67
		c0.59-1.21,2.18-0.97,3.05-0.34C289.78,132.42,291.16,133.1,292.9,132.96z"/>
	<path class="st51" d="M397.82,68.89c-0.48,0.99-0.79,1.97-0.04,2.97c-2.46-0.02-3.52-1.63-4.17-3.69c0.27-1.49,0.72-3.02-0.83-4.15
		c-0.15-1.49-0.28-2.97,0.92-4.16c1.12,2.16,1.51-1.42,2.5-0.32c0.52,0.11,0.92,0.38,1.2,0.84
		C398.28,63.19,398.59,66.02,397.82,68.89z"/>
	<path class="st52" d="M318.87,87.04c0,1.98,0,3.97,0,5.95c0.62,0.57,1.47,0.9,1.85,1.73c0.74,1.31,0.3,2.92,1.07,4.23
		c0.2,1.53,0.37,3.09-1.85,3.15c-1.88,0.04-2.05-1.39-1.95-2.72C318.31,95.27,316.84,91.03,318.87,87.04z"/>
	<path class="st53" d="M280.07,77.12c-2.8,1.55-5.64,1.23-8.46,0.12c-1.11-0.44-2.24-1.38-1.89-2.55c0.42-1.41,2.11-0.95,2.92-0.54
		c2.04,1.04,4.08,1.05,6.21,0.74C279.73,75.37,280.06,76.16,280.07,77.12z"/>
	<path class="st54" d="M357.93,130.14c-0.16,1.58-0.47,3.07-2.03,3.92c-1.12-0.27-1.85-0.93-2.05-2.1c0.5-2.45-0.56-4.68-0.99-7
		c0.4-0.71,1.6-1.46,1.69-0.98c0.39,2.18,1.81,0.4,2.56,0.87c0.36,0.31,0.63,0.68,0.86,1.09
		C358.41,127.34,358.55,128.74,357.93,130.14z"/>
	<path class="st55" d="M57.92,81.92c0.91,0.4,1.15,1.19,1.18,2.09c2.05,1.33,1.33,2.66,0,3.99l0,0c-1.23,1.48,0.18,3.49-1,4.99
		c-0.93,0.88-1.85,1.76-3.26,3.09c0.01-2.54,1.74-4.13,1.25-6.08c-1.74-1.63-0.07-3.4-0.2-5.1C56.57,83.91,57.25,82.92,57.92,81.92z
		"/>
	<path class="st56" d="M323.63,60.97c-0.26,1.36-0.52,2.71-0.77,4.07c-1.12,1.33-1.12,2.66,0.01,3.99c-0.62,1.31-0.57,3.36-2.98,2.7
		c-1.11-3.82-0.21-7.72-0.5-11.57c-0.03-0.58,0.17-1.06,0.61-1.45C322.03,58.15,323.06,59.19,323.63,60.97z"/>
	<path class="st57" d="M56.11,160.02c-0.54,2.3,1.44,4.61-0.01,6.91c-0.49,0.68-1.16,1.02-2,1
		C50.01,161.5,50.16,160.91,56.11,160.02z"/>
	<path class="st58" d="M58.06,140.04c0.35-0.7,0.69-1.39,1.04-2.09c0.35-0.33,0.76-0.41,1.22-0.25c2.26,1.43,3.77,3.73,6,5.19
		c0.79,0.45,1.53,0.96,2.07,1.72c0.21,0.41,0.31,0.85,0.32,1.32c-0.09,0.46-0.3,0.85-0.65,1.16
		C63.38,146.65,60.73,143.33,58.06,140.04z"/>
	<path class="st59" d="M328.88,60.04c-0.36-0.3-0.71-0.61-1.07-0.91c-0.75-1.39,0.24-2.13,1.09-2.92c1.48-0.26,2.41,0.48,3.07,1.69
		c-0.15,1.83,1.45,3.34,0.97,5.23c0.05,0.31,0.03,0.61-0.08,0.9c-1.85,2.31,0.27,5.65-2.04,7.84l-0.45,0.03l-0.43-0.16
		C328.43,67.95,330.29,63.85,328.88,60.04z"/>
	<path class="st60" d="M274.84,89.82c-0.31-0.27-0.62-0.54-0.93-0.81c-0.6,0.58-1.3,0.65-2.06,0.41c-0.86-0.62-1.54-1.31-0.98-2.49
		c0.47-1.38-0.89-3.6,1.69-3.99c2.65-0.4,1.97,1.9,2.58,3.25C275.75,87.56,280.15,88.96,274.84,89.82z"/>
	<path class="st61" d="M335.8,86.81c-0.02-1.35-1.23-3.2,0.94-3.77c2.38-0.62,1.87,2.01,2.71,2.78c2.61,2.38,2.95,3.83-0.45,5.37
		c-0.76-0.77-1.29-1.82-2.5-2.04C335.76,88.51,335.16,87.84,335.8,86.81z"/>
	<path class="st62" d="M305.99,99.75c3.4,1.37,5.85-3.54,9.35-1.4c-2.92,4.38-6.28,5.37-9.52,2.78
		C305.45,100.62,305.51,100.16,305.99,99.75z"/>
	<path class="st63" d="M288.84,117.69c-1.11-0.96-2.1-0.95-2.96,0.33c-0.29,0.43-0.56,0.4-0.83-0.02c2.22-5.02,5.3-5.78,9.75-2.41
		c-0.35,0.48-0.7,0.96-1.05,1.44C292.25,118.26,290.68,118.97,288.84,117.69z"/>
	<path class="st64" d="M289.9,56.23c0,3.27-0.01,6.55-0.01,9.82c-1.5,1.11-2.24,0.01-3-1.03c-0.06-2.24-0.15-4.48-0.19-6.72
		C286.66,55.96,288.05,55.72,289.9,56.23z"/>
	<path class="st65" d="M342.91,58.24c-0.03-0.42-0.05-0.84-0.08-1.26c0.99-1.3,2.33-1.1,3.48-0.53c1.65,0.81,2.85,2.16,3.06,4.1
		c0.04,0.36-0.31,0.99-0.64,1.12c-1.97,0.79-2.87-0.89-4.06-1.88C344.08,59.28,343.5,58.75,342.91,58.24z"/>
	<path class="st66" d="M72.36,160.82c-1.06-0.13-2.68,1.21-3.07,0.02c-0.95-2.9-3.51-2.19-5.38-3.01
		C67.92,153.5,68.5,153.7,72.36,160.82z"/>
	<path class="st67" d="M281.89,69.03c2.13-4.11-0.26-8.57,1.01-12.75c1.61,5.58,1.37,11.17,0.09,16.77
		c-1.08,0.77-2.15,0.91-3.19-0.07c0.35-0.6,0.7-1.2,1.04-1.8C280.25,70,280.95,69.45,281.89,69.03z"/>
	<path class="st30" d="M148.02,125.97c0,1.33,0,2.66,0,4c-0.54,0.59-1.23,0.81-2.01,0.79c-1.35-0.05-2.18-1.1-3.24-1.71
		c-1.87-0.15-2.77-1.22-2.91-3.03c0.33-0.44,0.76-0.75,1.27-0.94c1.03-0.34,2.1-0.39,3.18-0.38
		C145.7,124.69,146.98,125,148.02,125.97z"/>
	<path class="st68" d="M248,146.72c-2.72,0.14-5.25,1.66-8.06,1.08c-0.34-0.36-0.51-0.79-0.5-1.28c0.12-0.47,0.38-0.85,0.78-1.13
		c2.08-0.89,4.59-0.45,6.47-2.02c0.63-0.32,1.29-0.55,1.97-0.74c1.17-0.32,2.33-0.49,3.41,0.26c0.93,0.38,1.6,0.97,1.66,2.05
		C251.93,145.91,249.88,146.05,248,146.72z"/>
	<path class="st69" d="M101.07,140.99c0.31-1.6-2.25-3.51,0.1-4.71c1.77-0.9,3.83-0.53,4.9,1.67c0.83,0.81,0.9,1.78,0.55,2.82
		c-0.57,0.94-1.28,1.6-2.5,1.17C104.22,138.03,102.27,140.71,101.07,140.99z"/>
	<path class="st70" d="M202.97,72.13c0.31,1.43,0.67,2.85,0.9,4.29c0.19,1.19,0.02,2.38-1.15,3.02c-1.52,0.82-1.76-1.07-2.75-1.42
		c-1.06-0.78-1.24-1.9-1.2-3.1C199.61,73.14,201.31,72.67,202.97,72.13z"/>
	<path class="st71" d="M219.94,85.85c0.11-2.1-2.33-1.52-2.98-2.83c2-1.32,4-1.56,5.99,0c0.72,1.2,2.08,0.72,3.07,1.18
		c2.43,1.13,1.32,2.08-0.27,2.91C223.82,86.69,221.88,86.27,219.94,85.85z"/>
	<path class="st72" d="M297.88,101.94c-1.24-5.01,0.68-10.01,0.05-15.04c-0.25-2.03,0.08-4.12-2.95-3.88
		c1.75-1.85,3.64-1.48,3.61,0.88C298.52,89.91,299.91,96.01,297.88,101.94z"/>
	<path class="st73" d="M301.87,91c2.47-5.09,5.39-5.88,11.16-3.05c-1.63,2-4.76,0.68-6.3,2.86c-0.59,0.5-1.25,0.86-2,1.04
		C303.65,92.01,302.64,91.89,301.87,91z"/>
	<path class="st74" d="M351.99,64.06c0-0.35,0-0.7,0-1.05c1.12-1.41-0.06-4.98,3.69-3.95c-0.03,2.99-0.07,5.97-0.1,8.96
		c-0.54,0.59-1.17,0.57-1.84,0.28C352.45,67.18,352.71,65.42,351.99,64.06z"/>
	<path class="st75" d="M301.84,121.98c-1.76-2.63-0.82-4.3,1.92-5.32c0.9,0.17,1.45,0.85,2.08,1.43c0.76,0.77,1.91,1.09,2.48,2.08
		c0.23,0.68,0.18,1.33-0.22,1.94c-0.82,0.48-1.73,0.31-2.61,0.34C304.3,122.08,302.94,123.1,301.84,121.98z"/>
	<path class="st76" d="M305.99,99.75c-0.06,0.46-0.11,0.93-0.17,1.39c-4.75-0.26-4.76-3.71-4.81-7.13c1.09-1.03,2.01-0.36,2.95,0.28
		c0.51,0.46,0.86,1.01,0.92,1.72C305.25,97.25,305.62,98.5,305.99,99.75z"/>
	<path class="st77" d="M311.86,59.16c-1.66,0.21-5.34-1.64-2.84,2.79c-0.83,1.27-1.5,2.79-3.5,2.25c-1.1-0.23-1.61-1-1.83-2.03
		c1.03-2.48,1.94-5.09,5.27-5.27c0.27,0.05,0.54,0.03,0.81-0.05C310.91,57.23,312.37,57.31,311.86,59.16z"/>
	<path class="st78" d="M373.02,60.95c1.67,3.25,0.97,6.18-1.23,8.9c-1.18-0.84-0.47-3.15-2.56-3.3c-0.52-1.21-0.45-2.4,0.13-3.57
		C370.36,61.93,371.08,60.34,373.02,60.95z"/>
	<path class="st79" d="M361.71,118.93c0.12,1.7-0.47,3.11-1.73,4.25c-1.01-0.03-1.85-0.35-2.35-1.29c1.39-2.59-0.13-6.75,4.2-7.74
		C363.35,115.79,360.85,117.32,361.71,118.93z"/>
	<path class="st80" d="M67.1,77.02c-0.33,0-0.67,0-1,0.01c-1.3,0.6-2.27,0.64-2.09-1.24c1.94-2.04,4.35-3.15,7.08-3.64
		c0.86,1.26,2.23,2.38,1.16,4.18C70.65,77.48,68.8,76.7,67.1,77.02z"/>
	<path class="st81" d="M330.82,71.87c0.93-2.55-1.87-6.07,2.04-7.84c1.31,1.73,0.24,3.77,0.72,5.67
		C334.06,71.63,332.64,72.28,330.82,71.87z"/>
	<path class="st82" d="M352,58c-0.05-0.99-0.24-2-0.13-2.98c0.16-1.49-0.76-3.78,1.78-3.92c3.13-0.18,1.93,2.31,2.03,3.94
		C354.23,55.75,355.73,60.13,352,58z"/>
	<path class="st83" d="M369.63,66.97c3.35-1.01,1.83,1.63,2.16,2.88c-1.44,2.23-3.63,2.27-5.92,2.02c0.37-0.47-0.02-1.25-0.69-1.6
		c-0.44-0.23-0.58-0.71-0.54-1.22C366.03,67.7,367.59,66.75,369.63,66.97z"/>
	<path class="st84" d="M164.01,130.96c2.83-0.1,5.76-0.77,8,1.48c-1.25,0.75-2.61,1.57-3.97,2.39c-0.65,0.1-1.31,0.2-1.96,0.3
		C165.39,133.75,164.7,132.35,164.01,130.96z"/>
	<path class="st85" d="M277.63,119.81c0.43,0.06,0.86,0.11,1.29,0.17c1.1-0.58,1.5,0.2,1.91,0.98c0,0.34-0.01,0.67-0.01,1.01
		c-0.63,0.71-1.45,1-2.36,1.1c-1.49,0.06-2.94,0.45-4.43,0.6c-0.42,0-0.83-0.07-1.23-0.18c-0.96-0.34-1.94-0.65-2.62-1.5
		C272.16,119.53,275.05,120.19,277.63,119.81z"/>
	<path class="st86" d="M328.9,101.82c0.06-1.6,1.07-2.97,0.69-4.78c-0.34-1.63-0.28-3.78,2.35-4.02c0.03,2.16,0.06,4.31,0.09,6.47
		C332.05,101.7,331.05,102.54,328.9,101.82z"/>
	<path class="st87" d="M198.77,74.92c1.32,0.68,1.18,1.92,1.2,3.1c-0.33,2.68-2.43,1.8-4,1.99c-1.12-0.74-0.5-1.96-0.8-2.93
		C195.73,75.28,197.12,74.88,198.77,74.92z"/>
	<path class="st88" d="M359.87,68.87c0.83-1.34,1.05-2.63,0.38-4.21c-0.37-0.89-0.36-2.51,1.6-1.56c2.02,1.6,2.6,3.77,2.48,6.22
		c-0.08,1.03,0.06,2.26-1.65,1.79C361.03,71.28,360.98,69.41,359.87,68.87z"/>
	<path class="st89" d="M319.98,58.96c-0.03,4.26-0.06,8.52-0.09,12.77c-1.5-6.81-1.35-13.62,0.01-20.43c0.4,0.39,0.7,0.84,0.91,1.36
		C321.27,54.85,321.49,57.02,319.98,58.96z"/>
	<path class="st90" d="M106.05,155.93c-0.99,0.12-2.06,0.41-1.84,1.62c0.67,3.59-1.28,1.55-2.46,1.22c0.47-2.6,0.95-5.21,1.42-7.81
		c1.44-0.5,2.53-0.06,3.28,1.25C106.46,153.46,106.92,154.77,106.05,155.93z"/>
	<path class="st91" d="M373.02,60.95c-1.16,0.44-1.47,2.14-2.99,2.05c-1.27-0.48-1.69-1.63-2.16-2.74c-0.3-1.35-1.02-2.71-0.01-4.07
		C371.08,56.16,372.39,58.19,373.02,60.95z"/>
	<path class="st92" d="M280.74,101.28c-1.86-0.45-1.85-1.84-1.66-3.32c0.69-0.85,1.67-1.59,1.06-2.92c0.27-0.81,0.95-0.98,1.67-1.09
		c1.11-0.62,2.19-0.66,3.26,0.1c0.87,1.77-0.63,2.89-1.16,4.27c-0.18,0.39-0.41,0.75-0.66,1.11
		C282.59,100.29,281.83,101.02,280.74,101.28z"/>
	<path class="st93" d="M312.96,128c-3.06,2.61-6.11,2.3-9.16-0.01c0.44-0.95,1.02-1.64,2.21-1.1c1.63-0.27,3.26-0.54,4.89-0.81
		C311.84,126.45,312.76,126.84,312.96,128z"/>
	<path class="st94" d="M311.86,59.16c-0.69-0.77-1.39-1.54-2.08-2.31c1.25-1.48,2.67-0.95,3.97-0.18c1.28,0.76,2.96,1.94,1.88,3.44
		C314.22,62.06,312.81,60.76,311.86,59.16z"/>
	<path class="st95" d="M271.86,88.99c0.68,0.01,1.36,0.01,2.04,0.02c0.15,2.42-1.59,4.53-0.98,7.1c0.31,1.34-0.78,1.49-1.85,0.92
		c-0.06-2.33-0.12-4.65-0.19-6.98C270.6,89.13,270.97,88.81,271.86,88.99z"/>
	<path class="st96" d="M106.07,151.94c-0.96-0.33-1.92-0.65-2.89-0.98c0.31-1.68,0.61-3.36,0.92-5.03c0.7-0.52,0.31-2.38,1.7-1.84
		c1.4,0.55,1,1.81,0.27,2.85c0.95,1.55,1.11,3.25,1,5C106.73,152.44,106.39,152.41,106.07,151.94z"/>
	<path class="st97" d="M271.87,129.09c-4-1.06-3.57-3.56-2.08-6.4c0.91,1.08,2.05-0.92,2.96,0.22l0.2,0.12
		c0.64,1.29,0.81,2.65,0.68,4.07C273.37,128.05,272.9,128.81,271.87,129.09z"/>
	<path class="st98" d="M68.05,147.1c0.02-0.38,0.03-0.77,0.05-1.15c2.95-1.95,5.61-1.67,7.99,0.99c-1.1,0.73-2.21,1.45-3.31,2.18
		C70.99,148.94,69.07,149.08,68.05,147.1z"/>
	<path class="st99" d="M202.98,104c2.46,6.78-3.02,2.86-5.37,4.42c1.08-2.19,3.32-0.68,4.06-2.85c-2.08,0.14-3.91,0.27-5.74,0.4
		C198.1,104.67,200.39,103.8,202.98,104z"/>
	<path class="st100" d="M72.09,76.01c0.41-1.49-2.35-2.15-1.01-3.88c1.31-0.05,2.62-0.1,3.94-0.15c2.86,3.02-1.08,3.43-1.93,5.03
		c-0.38,0.26-0.77,0.27-1.17,0.07C71.67,76.68,71.74,76.32,72.09,76.01z"/>
	<path class="st101" d="M379.8,71.12c0.14-2.03-2.33-4.09,0.06-6.1c-0.18,2.81,1.43,3.83,3.95,3.94c0.57,0.72,0.61,1.46,0.08,2.22
		C382.5,72.31,381.14,72.48,379.8,71.12z"/>
	<path class="st102" d="M269.76,68.34c1.26-1.99,1.17-4.61,3.01-6.33c1.84,1.75,1.73,4.05,1.78,6.3c-0.12,0.5-0.39,0.92-0.78,1.25
		c-0.88,0.48-1.79,0.82-2.8,0.44C270.56,69.45,270.16,68.9,269.76,68.34z"/>
	<path class="st103" d="M350.96,119.94c-0.31-0.76-0.85-1.51-0.88-2.28c-0.04-1.19-2.35-2.82,0.24-3.54c2.1-0.59,3.53,0.44,3.4,2.89
		C352.74,117.92,353.24,120.24,350.96,119.94z"/>
	<path class="st104" d="M356.84,124.95c-1.32,2.78-2.66-1.6-3.98,0.01c-0.36-0.96-0.72-1.92-1.08-2.89
		c-0.4-1.81,0.83-2.54,2.12-3.23c1.84,1.17,0.06,4.43,2.9,5.03C357.07,124.22,357.08,124.58,356.84,124.95z"/>
	<path class="st105" d="M339.84,71.88c0.34-0.97,0.69-1.94,1.03-2.91c1.24-0.01,2.49-0.02,3.73-0.04c0.77-0.45,1.66-0.61,2.13,0.22
		c0.46,0.82-0.3,1.48-0.83,2.09C344.02,72.74,341.89,71.89,339.84,71.88z"/>
	<path class="st106" d="M404.8,71.83c-0.02-5.31-0.04-10.61-0.05-15.92c0.28-1.03,0.67-1.58,1.48-0.35c0.04,0.57,0.06,1.13,0.05,1.7
		c-0.29,4.86,0.59,9.75-0.49,14.58C405.46,71.84,405.13,71.83,404.8,71.83z"/>
	<path class="st107" d="M405.79,71.84c0-5.26,0.01-10.53,0.01-15.79c0.33-0.45,0.66-0.46,0.99,0c0,0,0.02-0.01,0.02-0.01
		c0,5.31,0,10.61,0.01,15.92C406.47,71.91,406.13,71.88,405.79,71.84z"/>
	<path class="st108" d="M141.03,125.96c-0.39,0.02-0.77,0.03-1.16,0.05c-1.58-1.68-1.93-3.78-2.03-5.97c0.4-0.02,0.8-0.05,1.19-0.07
		c0.49-0.39,1.04-0.49,1.64-0.3C142.83,121.65,142.59,123.77,141.03,125.96z"/>
	<path class="st109" d="M343.89,128.98c-1.67-1.03-0.17-2.17-0.11-3.26c0.17-1.85,1.28-2.16,2.69-1.43c1.45,0.75,0.95,1.96,0.14,2.8
		C345.86,127.88,344.81,128.37,343.89,128.98z"/>
	<path class="st110" d="M148.04,45.04c1.32-2.02,5.09-1.66,4.96-5.09c0.33-0.31,0.67-0.62,1-0.93c0.82,0.07,1.58,0.25,2.03,1.04
		c-0.23,2.55-3.42,2.73-4.01,4.99c-0.33,0.4-0.74,0.67-1.24,0.81C149.72,46.07,148.79,45.87,148.04,45.04z"/>
	<path class="st111" d="M280.83,120.95c-0.64-0.33-1.27-0.65-1.91-0.98c0.03-1.81,0.28-3.72-2.19-4.36c1.07-1.06,2.26-0.44,3.3-0.69
		C281.41,116.79,282.56,118.68,280.83,120.95z"/>
	<path class="st112" d="M271.87,129.09c0.36-0.74,0.72-1.48,1.08-2.22c1.28-1.12,2.74-1.72,4.47-1.52c0.72,0.18,1.26,0.61,1.66,1.23
		c0.19,0.46,0.14,0.89-0.17,1.29C276.5,127.9,274.65,131.22,271.87,129.09z"/>
	<path class="st113" d="M345.91,71.23c0.48-1.28,0.54-2.33-1.3-2.3c0.34-0.55,0.7-1.09,1.03-1.64c0.83-1.36,2.25-1.71,3.3-0.86
		c1.37,1.11-0.06,2.36-0.68,3.29C347.79,70.44,346.71,70.75,345.91,71.23z"/>
	<path class="st114" d="M305.9,90.07c1.6-3.31,4.7-1.61,7.13-2.13c0.3,0,0.57,0.09,0.8,0.28c0.96,1.07,0.37,2.1-0.08,3.14
		c-0.25,0.39-0.59,0.7-0.99,0.93c-0.46,0.08-0.9,0.01-1.33-0.17C309.87,90.73,307.58,91.21,305.9,90.07z"/>
	<path class="st115" d="M310.87,69.22c0,0.88,0,1.76,0,2.64c-1.78,0.32-3.52,0.41-5-0.91c-0.87-1.26-1.1-2.51,0-3.76
		C307.09,68.96,309,69.06,310.87,69.22z"/>
	<path class="st116" d="M352,58c0.06-1.13,3.95,0.85,1.82-2.33c-0.48-0.72,1.2-0.39,1.86-0.64c0,1.34,0,2.68,0,4.02
		c-2.46,0.17-2.15,2.92-3.69,3.95C351.99,61.34,351.99,59.67,352,58z"/>
	<path class="st117" d="M90.04,167c-3.77,1.86-7.75,0.74-11.63,0.72c-1.12-0.01-0.33-1.3-0.21-2.02
		C82.06,166.98,86.05,167.03,90.04,167z"/>
	<path class="st118" d="M304.88,96c-0.34-0.33-0.67-0.67-1.01-1c-0.51-1.41-2.66-2.01-2-4c0,0,0,0,0,0c1.05,0.01,2.1,0.02,3.16,0.03
		c1.05,0.77,2.52,0.91,3.27,2.15c0.24,0.71,0.17,1.38-0.27,2c-0.45,0.24-0.9,0.22-1.34-0.02C306.09,95.43,305.49,95.72,304.88,96z"
		/>
	<path class="st119" d="M121.93,161.91c-0.36,1.79-0.47,3.74-2.82,4.19c-0.84-0.56-1.01-1.45-1.16-2.36
		c-0.12-1.11-0.38-2.2-0.31-3.33c0.1-0.46,0.37-0.8,0.77-1.04c0.65-0.26,1.31-0.3,1.99-0.14c0.43,0.15,0.78,0.42,1.07,0.77
		C121.76,160.61,121.59,161.32,121.93,161.91z"/>
	<path class="st120" d="M308.97,56.91c-1.76,1.76-3.51,3.51-5.27,5.27C304.06,56.92,304.96,56.02,308.97,56.91z"/>
	<path class="st121" d="M252.07,142.89c-1.04,0.35-2.09,0.7-3.13,1.05c-1.49-0.92-2.55-2.13-2.79-3.94
		c-0.06-0.75,0.08-1.44,0.52-2.07c0.43-0.33,0.86-0.3,1.28,0.01c0.64,0.66,1.29,1.32,1.93,1.98
		C250.6,140.92,251.33,141.91,252.07,142.89z"/>
	<path class="st122" d="M353.84,68.03c0.58,0,1.16-0.01,1.73-0.01c0.08,1.6,1.19,3.71-1.75,3.91c-2.31,0.16-1.96-1.48-1.84-2.92
		C352.42,68.34,352.71,67.39,353.84,68.03z"/>
	<path class="st123" d="M353.85,131.96c1,0.39,1.65,1.12,2.05,2.1c-1.35,1.31-3.36,2.63-4.55,0.95
		C349.84,132.87,352.63,132.73,353.85,131.96z"/>
	<path class="st124" d="M288.85,97.99c0.67,0,1.35,0,2.02,0c2.69,0.68,1.42,2.4,1.02,3.9c-1.49,0.48-2.77-0.03-3.99-0.84
		c-0.59-0.54-0.76-1.22-0.65-1.99C287.53,98.31,287.93,97.77,288.85,97.99z"/>
	<path class="st125" d="M305.53,64.2c1.17-0.75,2.33-1.5,3.5-2.25c1.37,0.16,2.91-0.32,3.99,1c-0.91-0.03-0.11,2.66-2.47,1.09
		c-1.95-1.3-1,0.86-0.71,1.76C308.26,65.65,306.77,65.26,305.53,64.2z"/>
	<path class="st126" d="M279.8,72.98c1.06,0.02,2.13,0.04,3.19,0.07c0.12,2.15-0.64,3.65-2.92,4.07c-0.93-0.46-1.14-1.3-1.22-2.23
		C279.16,74.25,279.48,73.62,279.8,72.98z"/>
	<path class="st127" d="M146.03,129.96c0.66,0,1.33,0,1.99,0c1.51,0.26,2.91-1.8,4.56-0.21c-0.62,2.36-4.57-0.03-4.54,3.17
		c-0.34,0.42-0.7,0.44-1.09,0.07c-0.65-0.34-1.29-0.68-1.94-1.02C145,131.12,145.36,130.46,146.03,129.96z"/>
	<path class="st128" d="M106.06,80.02c0.33,0,0.66,0,1,0c1.06,2.9,0.29,4.69-2.99,4.99c0-0.33,0-0.66,0-0.99
		c-1.19-0.92-2.67-1.64-2.45-3.54c0.15-0.16,0.31-0.31,0.46-0.47c0.69,0.09,1.37,1.29,2.07,0.01
		C104.79,79.43,105.43,79.43,106.06,80.02z"/>
	<path class="st129" d="M328.9,56.21c-0.36,0.97-0.73,1.95-1.09,2.92c-0.95-0.02-1.9-0.05-2.85-0.07c-2.32,0.78-2.97,0.04-2.01-2.19
		C324.98,57.17,326.79,55.35,328.9,56.21z"/>
	<path class="st130" d="M183.07,132.95c2.79-0.1,1.24-2.95,2.61-4.14c0.56,2.55,0.56,4.91-0.68,7.15c0.56,0.76,0.67,1.5-0.11,2.2
		C183.62,136.65,182.76,135,183.07,132.95z"/>
	<path class="st131" d="M272.91,69.03c0.45-0.07,0.91-0.14,1.36-0.2c1.48-1.19,3.11-1.09,4.78-0.54c1.1,0.64,1.71,1.44,0.86,2.7
		c-1.68,0.3-3.36,0.6-5.04,0.89C273.9,71.15,272.35,70.82,272.91,69.03z"/>
	<path class="st132" d="M330.85,128.76c0-2.48,0-4.96,0-7.44c0-1.5,0.14-3.1-1.98-3.34c0.02-1.77,0.98-1.62,2.15-1.05
		C331.97,120.88,332.51,124.84,330.85,128.76z"/>
	<path class="st133" d="M231.1,141.97c0.61,0.32,1.23,0.65,1.84,0.97c0.96,0.63,1.23,1.75,1.88,2.59c0.26,0.29,0.52,0.6,0.79,0.88
		c0.56,0.52,1.27,0.9,1.57,1.66C232.83,149.09,231.84,148.1,231.1,141.97z"/>
	<path class="st134" d="M291.89,101.88c-0.13-1.35,0.43-2.89-1.02-3.9c1.99-2.06-1.05-4.83,0.99-6.88
		C293.22,94.69,293.23,98.28,291.89,101.88z"/>
	<path class="st135" d="M405.74,54.92c-0.33,0.33-0.67,0.66-1,0.99c-1.01,0.45-1.89,2.03-3.15,0.38c2.31-0.97-0.25-4.96,3.23-5.2
		c0.3,0.66,0.61,1.31,0.91,1.97C406.37,53.68,406.37,54.3,405.74,54.92z"/>
	<path class="st136" d="M313.86,116.05c1.92,1.13,2.19,2.93,1.99,4.92c-0.86,1.58-2.26,1.64-3.78,1.35
		c-1.08-1.07-0.43-2.24-0.2-3.39C312.19,117.73,312.97,116.86,313.86,116.05z"/>
	<path class="st134" d="M284.94,95.11c-0.72-1.25-1.98-1.07-3.13-1.16c1.61-2.08,6.17,0.5,6.26-3.98c1.88,1.57-0.44,3.64,0.63,5.3
		C287.4,96.14,286.15,96.17,284.94,95.11z"/>
	<path class="st137" d="M198.99,146.93c0,0.66,0,1.32,0,1.98c-2.05,0.27-3.7-0.58-5.21-1.84c1.25-0.68,1.59-2,2.21-3.12
		c1.67-0.45,1.76,1.17,2.52,1.92C198.74,146.19,198.89,146.55,198.99,146.93z"/>
	<path class="st138" d="M279.88,56.96c-0.03,1.13,0.23,2.35-1,3.09c-1.1,0.49-1.6-0.14-1.97-1.04c-0.55-1.01-2.12-1.32-1.98-2.82
		C276.58,56.44,278.23,56.7,279.88,56.96z"/>
	<path class="st139" d="M106.07,146.94c-0.16-0.72-0.32-1.44-0.47-2.16c-0.5,0.38-0.99,0.76-1.49,1.15
		c0.01-1.33,0.01-2.66,0.02-3.99c0.65-0.33,1.29-0.66,1.94-0.99c1.7,0.81,1.36,2.65,2,4C108.03,146.24,107.36,146.91,106.07,146.94z
		"/>
	<path class="st130" d="M182.83,123.68c1.97,2.76,0.89,5.57,0.12,8.38C181.61,129.29,181.65,126.49,182.83,123.68z"/>
	<path class="st140" d="M278.91,126.98c-0.34-0.36-0.69-0.73-1.03-1.09c-1.06-1.31-1.01-2.61,0.01-3.91
		c0.98-0.01,1.95-0.01,2.93-0.02c0.12,0.26,0.16,0.53,0.14,0.82C281.81,124.93,281.58,126.55,278.91,126.98z"/>
	<path class="st141" d="M143.03,43.07c1,0.99,1.99,1.99,2.99,2.98c-2.61,1.85-4.98,1.79-7.03-0.87c0,0-0.43-0.01-0.43,0
		C139.49,43.26,141.81,44.34,143.03,43.07z"/>
	<path class="st142" d="M311.88,121.88c1.45,0.25,2.73-0.22,3.97-0.9c0.07,1.95-1.27,1.91-2.64,1.92c-2.77,0.01-5.54,0.07-8.31,0.11
		c-0.21-0.22-0.29-0.45-0.23-0.69c0.06-0.24,0.12-0.36,0.18-0.36c1.03-0.03,2.05-0.06,3.08-0.09
		C309.25,120.91,310.57,120.74,311.88,121.88z"/>
	<path class="st143" d="M195.18,77.08c0.98,0.78,0.76,1.89,0.8,2.93c-1.07,0.14-1.21,3.02-3.01,1.01c-0.33-0.33-0.65-0.67-0.98-1
		C192.46,78.39,194.22,78.17,195.18,77.08z"/>
	<path class="st144" d="M184.89,138.16c0.04-0.73,0.07-1.47,0.11-2.2c3.85,3.54,3.85,3.54,1.72,5.1
		C185.68,140.36,184.85,139.53,184.89,138.16z"/>
	<path class="st145" d="M304.95,119.04c-0.4-0.79-0.8-1.58-1.19-2.37c-0.09-0.21-0.08-0.42,0.03-0.62c1.5-1.17,3.24-1.08,4.99-0.98
		c1.35,0.51,2.88,0.13,4.18,0.87l0.02-0.07c0.37,1.42-0.7,1.7-1.64,2.1C309.19,118.19,307.09,118.76,304.95,119.04z"/>
	<path class="st146" d="M376.85,56.22c-0.06,3.7-0.12,7.4-0.18,11.11C375.57,63.61,375.11,59.9,376.85,56.22z"/>
	<path class="st81" d="M328.88,60.04c2.15,3.74,0.52,7.82,1.06,11.7C327.99,67.99,329.6,63.91,328.88,60.04z"/>
	<path class="st124" d="M121.93,161.91c-0.29-0.66-0.59-1.32-0.88-1.99c-0.38-1.81-0.38-3.54,1-4.99c0.03-1.1-0.14-2.27,0.95-3.04
		c0.06,0.78,0.13,1.56,0.19,2.34C123.04,156.83,123.48,159.54,121.93,161.91z"/>
	<path class="st147" d="M101.05,81.02c-0.27-2.18-5.33-1.17-3.26-4.9c1.65,1.05,3.6,1.77,4.28,3.89c0,0-0.12,0.14-0.12,0.14
		C101.75,80.54,101.45,80.82,101.05,81.02z"/>
	<path class="st148" d="M55.9,84.91c2.18,1.61-0.54,3.42,0.2,5.1c-1.38-0.04-1.97-0.83-2.04-2.12
		C54.27,86.64,54.89,85.66,55.9,84.91z"/>
	<path class="st149" d="M336.87,88.99c1.44,0.02,1.94,0.96,2.13,2.19c-0.03,1.94-0.06,3.88-0.1,5.82c-0.83,0.16-2.14,1.02-1.58-0.98
		c0.58-2.08,1.24-4.15-0.48-6.03c-0.24-0.23-0.31-0.45-0.22-0.67C336.7,89.1,336.78,88.99,336.87,88.99z"/>
	<path class="st150" d="M216.88,147.9c-0.31-0.33-0.62-0.65-0.93-0.98c-0.2-0.88-0.03-1.37,1.01-0.98c1.25-0.67,2.54-1.15,3.99-1
		c0,0.34,0.01,0.68,0.01,1.02C219.94,147.33,218.47,147.74,216.88,147.9z"/>
	<path class="st151" d="M286.88,65.03c1,0.34,2,0.69,3,1.03c-0.15,1.57-0.69,2.94-1.95,3.95C286.34,68.61,286.94,66.75,286.88,65.03
		z"/>
	<path class="st152" d="M304.85,121.95c0.02,0.35,0.03,0.7,0.05,1.05c0.01,0.33-0.02,0.65-0.1,0.97c-0.56,1.17-1.02,2.49-2.78,1.93
		c-1.67-1.23,0.22-2.63-0.18-3.92C302.85,122.32,303.83,120.83,304.85,121.95z"/>
	<path class="st132" d="M322.9,117.05c-0.09-0.42-0.18-0.84-0.27-1.27c0,0,0.09,0.1,0.09,0.1c0.78-0.54,1.69-0.94,2.15-1.85
		c1.12-0.18,2.32-0.65,3.07,0.73c0.59,1.31,0.64,2.33-1.24,2.3C325.43,117.05,324.17,117.05,322.9,117.05z"/>
	<path class="st153" d="M312.96,128c-0.69-0.64-1.37-1.28-2.06-1.92c1.36-1,2.82-1.41,4.51-0.73
		C315.18,126.81,314.23,127.56,312.96,128z"/>
	<path class="st154" d="M279.91,70.98c-0.06-0.9-0.33-1.68-1.27-2.04c-0.6-1.38-0.82-2.61,1.19-2.93c0.69,1.01,1.37,2.01,2.06,3.02
		c-0.35,0.72-0.7,1.43-1.06,2.15C280.52,71.14,280.21,71.08,279.91,70.98z"/>
	<path class="st155" d="M54.11,167.93c0.43-0.8,1.17-0.99,2-1c1.56,1.34,1.93,2.67-0.01,4C54.88,170.3,54.69,168.99,54.11,167.93z"
		/>
	<path class="st56" d="M319.97,52.13c-0.03-0.28-0.06-0.56-0.08-0.83c2.65-0.89,3.35,0.35,2.98,2.74c-1.33,1.12,0.53,3.47-1.64,4.28
		C319.16,56.6,321.41,53.99,319.97,52.13z"/>
	<path class="st156" d="M320.88,58.03c1.61-0.86,0.37-3.15,2-3.99c0.02,0.95,0.04,1.89,0.07,2.84c-0.11,1.44,0.62,2.12,2.01,2.19
		c-0.44,0.64-0.88,1.27-1.32,1.9c-0.92-0.64-1.84-1.29-2.76-1.93c-0.29-0.23-0.38-0.45-0.28-0.67
		C320.68,58.14,320.78,58.03,320.88,58.03z"/>
	<path class="st157" d="M388.79,62.04c-0.68-0.08-1.39,2.19-1.87,0.24c-0.46-1.87-0.1-3.93-0.1-5.91c0.32-0.06,0.65-0.11,0.97-0.17
		c1.25,1.01,0.83,2.61,1.36,3.88C389.29,60.79,389.38,61.48,388.79,62.04z"/>
	<path class="st158" d="M280.74,101.28c0.4-0.97,0.97-1.78,2-2.16c1.26,0.59,2.71,1.04,2.21,2.95
		C283.28,103.24,281.92,102.7,280.74,101.28z"/>
	<path class="st159" d="M302.02,125.91c0.93-0.64,1.86-1.29,2.78-1.93c0.4,0.97,0.8,1.94,1.21,2.91c-0.74,0.37-1.47,0.73-2.21,1.1
		C302.83,127.62,302.32,126.85,302.02,125.91z"/>
	<path class="st160" d="M119.05,162.94c0.02,1.06,0.04,2.11,0.06,3.17c0.05,1.4-0.7,2.29-1.86,2.91c0,0-0.31-0.15-0.31-0.15
		C115.64,166.18,114.99,163.72,119.05,162.94z"/>
	<path class="st161" d="M278.91,126.98c1.18-1.16,2.38-2.31,2.05-4.2c1.8,4.69,1.53,5.36-2.05,5.09
		C278.91,127.57,278.91,127.28,278.91,126.98z"/>
	<path class="st162" d="M356.84,124.95c-0.01-0.36-0.03-0.72-0.04-1.08c0.07-0.75-0.03-1.56,0.83-1.98
		c0.97,0.08,1.87,0.31,2.35,1.29c-0.1,0.58-0.21,1.15-0.31,1.73c-0.73,0.92-1.53,1.64-2.82,1.07
		C356.84,125.64,356.84,125.3,356.84,124.95z"/>
	<path class="st163" d="M99,162.7c0.36,1.07,0.72,2.14,1.08,3.21c0.25,0.23,0.34,0.45,0.25,0.67c-0.09,0.22-0.17,0.33-0.26,0.33
		c-1.65,0.09-3.15-0.14-3.95-1.85C97.08,164.28,98.04,163.49,99,162.7z"/>
	<path class="st164" d="M211.94,69.93c0.01,0.7,0.02,1.4,0.03,2.09c-1.77-0.04-3.55-0.08-5.32-0.11
		C207.56,68.97,210.07,70.32,211.94,69.93z"/>
	<path class="st165" d="M237.19,148.07c-0.86-0.16-1.76-0.22-2.24-1.12c1-3.64,2.96-2.52,4.99-1c0,0.62,0,1.24,0,1.85
		C239.02,147.89,238.11,147.98,237.19,148.07z"/>
	<path class="st166" d="M306.7,95.15c0.4-0.1,0.8-0.2,1.2-0.3c1.45-1.14,3.2-1.17,4.91-1.35c1.09,0.09,1.9,0.56,2.25,1.65
		C312.27,96.29,309.48,96.18,306.7,95.15z"/>
	<path class="st167" d="M336.87,88.99c-0.01,0.33-0.02,0.66-0.03,1c-0.37,0.03-0.73,0.06-1.1,0.08c-0.91-0.44-2.43-0.32-2.19-1.91
		c0.18-1.17,1.39-1.07,2.25-1.35C336.16,87.54,336.51,88.26,336.87,88.99z"/>
	<path class="st168" d="M68.1,178.76c1.24-3.15,3.48-1.51,5.48-1.13c-1.59,0.3-3.23,0.4-4.61,1.34
		C68.66,178.96,68.37,178.89,68.1,178.76z"/>
	<path class="st169" d="M397.11,60.11c-0.42-0.03-0.84-0.05-1.26-0.08c-0.72-0.48-1.03-1.17-1.07-2.01c0.6-1.31,1.47-2.16,3.05-1.84
		c0,1.06,0,2.12,0,3.17C397.78,59.79,397.54,60.04,397.11,60.11z"/>
	<path class="st170" d="M392.78,64.03c3.79,0.68,2.73,2.33,0.83,4.15C392.58,66.95,392.83,65.46,392.78,64.03z"/>
	<path class="st171" d="M305.88,67.18c0,1.26,0,2.51,0,3.76c-1.6-0.56-2.98-1.53-2.54-3.35C303.58,66.63,304.95,67,305.88,67.18z"/>
	<path class="st172" d="M383.88,71.18c-0.03-0.74-0.05-1.48-0.08-2.22c0.63-0.39,1.25-0.78,1.88-1.18c0.7,1.04,1.41,2.07,2.11,3.11
		C386.48,70.99,385.18,71.09,383.88,71.18z"/>
	<path class="st173" d="M362.69,71.12c0.95-0.51,1.15-1.42,1.24-2.38c0.38-0.09,0.68,0.02,0.89,0.35c0.56,1.41,2.47,0.28,2.94,1.6
		c0.05,0.15-1.23,0.77-1.9,1.18C364.71,72.04,363.56,72.16,362.69,71.12z"/>
	<path class="st174" d="M315.06,95.14c-0.73-0.38-1.45-0.76-2.18-1.14c-0.53-0.66-0.6-1.32,0-1.98c0-0.35,0-0.7,0-1.05
		c1.3-0.56,2.12,0.17,2.89,1.06C315.97,93.17,316.26,94.33,315.06,95.14z"/>
	<path class="st175" d="M361.71,118.93c-1.93-1.64,0.26-3.18,0.11-4.78C365.39,115.84,362.07,117.35,361.71,118.93z"/>
	<path class="st176" d="M284.95,102.07c-0.62-1.07-2.12-1.48-2.21-2.95c0,0,0.15-0.11,0.15-0.11c1.63-0.7,3.29-0.54,4.96-0.17
		c0.02,0.74,0.04,1.47,0.05,2.21C286.92,101.38,285.93,101.73,284.95,102.07z"/>
	<path class="st177" d="M308.88,115.83c-1.7,0.07-3.4,0.14-5.1,0.22c0.97-2.63,3.12-1.98,5.09-1.84
		C309.41,114.75,309.46,115.29,308.88,115.83z"/>
	<path class="st178" d="M156.03,40.06c-0.84-0.03-1.6-0.22-2.03-1.04c1.17-1.19,2.54-1.27,4.01-0.7
		C157.9,39.54,157.17,40.03,156.03,40.06z"/>
	<path class="st121" d="M248,146.72c1.6-1.58,3.59-1.91,5.72-1.78C252.24,146.92,250.14,146.87,248,146.72z"/>
	<path class="st179" d="M353.9,118.84c-0.71,1.08-1.42,2.15-2.12,3.23c-0.95-0.45-0.91-1.28-0.82-2.14
		c0.92-0.98,1.84-1.96,2.77-2.93C353.78,117.61,353.84,118.23,353.9,118.84z"/>
	<path class="st180" d="M317.96,122.02c1.85,1.96,0.14,4.89,1.88,6.87C315.9,127.5,318.56,124.31,317.96,122.02z"/>
	<path class="st181" d="M326.7,117.06c0.97-0.47,1.15-1.36,1.24-2.3c1.34,0.28,3.04,0.05,3.08,2.17c-0.85,0.07-1.69,0.17-2.15,1.05
		c-0.43,0.04-0.87,0.07-1.3,0.11C327.28,117.74,326.99,117.4,326.7,117.06z"/>
	<path class="st81" d="M332.94,63.13c-0.74-1.67-2.34-3.17-0.97-5.23C333.21,59.48,334.46,61.05,332.94,63.13z"/>
	<path class="st182" d="M298.89,64.03c-1.99-2.42-0.57-5.27-0.98-7.89c0.32-0.13,0.65-0.14,0.98-0.03
		C300.37,58.75,300.33,61.39,298.89,64.03z"/>
	<path class="st183" d="M298.89,64.03c0-2.64,0-5.28-0.01-7.92c0.34,0.01,0.67,0.02,1.01,0.03c0.77,2.63,0.78,5.26,0,7.89
		C299.55,64.03,299.22,64.03,298.89,64.03z"/>
	<path class="st184" d="M299.89,64.03c0-2.63,0-5.26,0-7.89c2,2.45,0.67,5.25,0.82,7.89C300.44,64.03,300.16,64.03,299.89,64.03z"/>
	<path class="st185" d="M388.82,60.05c-1.45-0.99-0.88-2.51-1.02-3.84c3.33-0.16,1.9,2.26,2.07,3.82
		C389.53,60.52,389.18,60.51,388.82,60.05z"/>
	<path class="st186" d="M356.84,125.99c0.94-0.36,1.88-0.71,2.82-1.07c-0.05,1.92-0.56,3.68-1.73,5.22
		C357.95,128.66,357.61,127.27,356.84,125.99z"/>
	<path class="st166" d="M315.77,92.04c-0.96-0.35-1.92-0.71-2.89-1.06c0.32-0.91,0.64-1.83,0.96-2.74
		C315.08,89.2,315.95,90.35,315.77,92.04z"/>
	<path class="st73" d="M301.88,91c0.59,1.37,2.17,2.25,2,4c-0.95-0.33-1.91-0.66-2.86-0.99C300.81,92.86,300.84,91.78,301.88,91z"/>
	<path class="st187" d="M146.03,129.96c-0.02,0.83-0.21,1.58-1.02,2.01c-1.5-0.4-2.06-1.52-2.24-2.93
		C143.86,129.35,144.95,129.66,146.03,129.96z"/>
	<path class="st188" d="M160.07,72.87c1.7-1.14,3.22-1.6,3.93,1.03C162.56,74.06,161.17,74.02,160.07,72.87z"/>
	<path class="st189" d="M367.86,56.2c0.33,1.26,0.66,2.52,0.99,3.78c-1.65,0.81-2.95,0.27-4.04-1.06c0.65-0.94,2.16-1.26,2-2.78
		C367.16,56.17,367.51,56.18,367.86,56.2z"/>
	<path class="st190" d="M104.22,74.03c1.93,0.98,4.58,1.81,0.85,3.99c-0.92-0.81-0.12-2.1-0.84-2.96
		C104.23,74.71,104.22,74.37,104.22,74.03z"/>
	<path class="st191" d="M230.06,95.01c0.3-0.01,0.6-0.02,0.9-0.02c0.88,0.4,1.57,0.88,1,2c-0.49,0.74-0.52,1.84-1.65,2.08
		c-0.13-1.04-0.25-2.09-0.38-3.13C229.89,95.62,229.93,95.31,230.06,95.01z"/>
	<path class="st170" d="M394.78,58.03c0.84,0.41,1.02,1.17,1.07,2.01c-0.56,0.73-1.12,1.46-1.81,2.35
		c-0.13-0.94-0.23-1.73-0.34-2.51C394.06,59.26,394.42,58.64,394.78,58.03z"/>
	<path class="st192" d="M271.86,88.99c-0.33,0.35-0.65,0.7-0.98,1.05c-0.95-0.21-1.91-0.45-1.95-1.66
		c-0.05-1.34,0.94-1.42,1.92-1.46C271.19,87.61,271.53,88.3,271.86,88.99z"/>
	<path class="st193" d="M353.84,68.03c-0.62,0.33-1.23,0.65-1.85,0.98c0-1.65,0-3.3,0-4.95C353.11,65.14,353.71,66.48,353.84,68.03z
		"/>
	<path class="st194" d="M280.14,95.05c0.87,0.13,1.71,0.42,1.33,1.51c-0.36,1.05-1.35,1.35-2.39,1.41
		C278.71,96.73,279.29,95.84,280.14,95.05z"/>
	<path class="st195" d="M336.78,59.86c1.3,1.7,2.48,3.37-0.83,4.15C335.81,62.55,335.57,61.06,336.78,59.86z"/>
	<path class="st130" d="M183.78,118.88c1.2,0.58,1.38,1.67,1.12,2.76c-0.29,1.2-1.18,0.47-1.85,0.35
		C182.95,120.87,182.79,119.74,183.78,118.88z"/>
	<path class="st196" d="M388.82,60.05c0.35-0.01,0.7-0.02,1.05-0.03c0,2.02,0,4.03,0,6.05c-1.53-1.03-0.92-2.63-1.08-4.03
		C388.8,61.38,388.81,60.72,388.82,60.05z"/>
	<path class="st197" d="M64,75.78c0.37,0.97,1.17,1.21,2.09,1.24c-0.45,0.84-0.9,1.76-2.04,1.59c-0.99-0.15-0.87-1.15-1.07-1.87
		C63.32,76.42,63.66,76.1,64,75.78z"/>
	<path class="st198" d="M104.23,75.06c1.03,0.77,0.79,1.91,0.84,2.96c0.33,0.67,0.66,1.33,1,2c-0.64,0-1.28,0-1.91,0
		C104.18,78.36,104.2,76.71,104.23,75.06z"/>
	<path class="st199" d="M146.96,132.99c0.36-0.02,0.73-0.04,1.09-0.06c1.53,0.2,2.89,0.74,3.94,1.92
		C150.02,135.02,148.36,134.33,146.96,132.99z"/>
	<path class="st200" d="M322.86,69.03c-2.4-1.33-2.4-2.66-0.01-3.99C322.86,66.37,322.86,67.7,322.86,69.03z"/>
	<path class="st159" d="M272.91,69.03c0.66,0.95,1.31,1.9,1.97,2.85c-1.63,0.05-2.99-0.45-3.91-1.87
		C271.61,69.68,272.26,69.35,272.91,69.03z"/>
	<path class="st201" d="M318.07,117.95c0.67-0.09,1-1.79,1.53-0.87c0.72,1.25-0.46,2.24-1.64,2.85
		C318,119.27,318.03,118.61,318.07,117.95z"/>
	<path class="st202" d="M285.05,118c0.28,0,0.55,0.01,0.83,0.02c0.07,1.11,0.15,2.23,0.24,3.54c-1.66-0.47-0.99-1.84-1.3-2.74
		C284.77,118.51,284.85,118.23,285.05,118z"/>
	<path class="st203" d="M337.89,123.96c-0.34,0-0.68,0-1.02,0c0.21-1.69-0.69-3.6,1-5C337.88,120.63,337.89,122.29,337.89,123.96z"
		/>
	<path class="st204" d="M310.86,116.98c0.89-0.01,1.66-0.25,2.11-1.1c0.31-0.01,0.61,0.05,0.89,0.17c-0.36,0.96-0.72,1.92-1.07,2.88
		c-0.32,0.36-0.7,0.44-1.15,0.27C310.94,118.62,310.3,118.01,310.86,116.98z"/>
	<path class="st205" d="M319.9,95.03c-0.34-0.68-0.68-1.36-1.02-2.04c0.99,0,1.98,0,2.97,0.01c-0.04,0.67-0.08,1.35-0.12,2.02
		C321.13,95.59,320.52,95.55,319.9,95.03z"/>
	<path class="st206" d="M324.86,114.03c1.09,2.71-0.99,1.75-2.15,1.85C322.76,114.49,323.47,113.86,324.86,114.03z"/>
	<path class="st207" d="M272.75,122.9c-0.92-0.94-2.22,3.31-2.96-0.22c-0.01-0.31,0.12-0.55,0.4-0.7
		C271.12,122.05,272.19,121.77,272.75,122.9z"/>
	<path class="st208" d="M319.9,95.03c0.61,0,1.22-0.01,1.83-0.01c0.02,1.31,0.04,2.63,0.06,3.94
		C321.16,97.65,320.53,96.34,319.9,95.03z"/>
	<path class="st209" d="M308.88,115.83c0-0.54,0-1.08,0-1.62c1.32,0.67,3.07,0.34,4.08,1.74
		C311.6,115.91,310.24,115.87,308.88,115.83z"/>
	<path class="st210" d="M100.07,166.92c0-0.34,0-0.67,0.01-1.01c5.53,0.21,4.51-6.14,7.99-7.98c0.13,2.38-2.35,5.19,1.61,6.99
		c1.14,0.52,0.02,2.68-0.61,4C106.22,167.55,103.13,167.29,100.07,166.92z"/>
	<path class="st211" d="M113.06,168.91c0-1.77,0.14-3.55-0.04-5.3c-0.31-3.14,1.28-3.99,4.02-3.68c1.14,3.16-1,5.95-0.99,8.99
		C115.06,168.92,114.06,168.92,113.06,168.91z"/>
	<path class="st212" d="M100.46,169.78c2.23,1.84,4.37,2.83,4.09,5.32c-0.12,1.06-1.75,1.9-2.82,1.37
		C99.19,175.21,100.13,172.88,100.46,169.78z"/>
	<path class="st213" d="M68.1,171.92c-0.81-0.01-1.62-0.01-2.43-0.02c-1.48-0.01-2.58-0.46-2.44-2.22c0.12-1.53,1.25-1.7,2.44-1.74
		c0.81-0.02,1.62-0.01,2.43-0.02C68.1,169.25,68.1,170.59,68.1,171.92z"/>
	<path class="st214" d="M116.06,168.92c-0.5-3.09,0.77-5.98,0.99-8.99c0,0,0,0,0,0c0.33-0.35,0.67-0.35,1,0c0.33,1,0.66,2,0.99,3
		c-2.78,1.24-1.72,3.84-2.11,5.93C116.64,168.9,116.35,168.91,116.06,168.92z"/>
	<path class="st215" d="M71.1,167.92c-0.46-1.08-2.62-1.4-1.65-3.01c0.57-0.96,1.75,0.21,2.66,0.01
		C71.72,165.91,73.74,167.69,71.1,167.92z"/>
	<path class="st216" d="M405.74,54.92c0-0.62,0-1.24-0.01-1.87c0.08-0.3,0.16-0.61,0.25-0.91c0.27,0.3,0.54,0.6,0.81,0.9
		c0,1,0,2-0.01,3c-0.33,0-0.66,0-0.99,0C405.78,55.67,405.76,55.3,405.74,54.92z"/>
	<path class="st217" d="M74.06,90.88c2.01-1.01,4.02-2.03,6.02-3.04c6.6-0.68,12.9-0.49,17.65,5.23c2.65,3.2,3.3,7.14,4.48,10.91
		c2.31,5.03,1.17,10.25,0.84,15.43c-0.26,0.57-0.62,1.07-1.09,1.5c-1.68,0.7-2.06,2.1-1.99,3.73c-1.19,2.19-1.03,5.61-4.89,5.39
		c-1.32,0.7-2.64,1.39-3.96,2.09c-1.04,1.35-2.52,1.76-4.12,1.92c-1.09,0.07-2.06-0.25-2.92-0.91c-12.08-1.17-14.5-9.63-15.89-20.43
		c-0.69-5.37,0.98-10.49,1.94-15.69c-1.08-1.24,0-2.37,0.17-3.54c0.18-0.38,0.43-0.71,0.71-1.02
		C71.96,91.82,72.52,90.39,74.06,90.88z"/>
	<path class="st218" d="M120.05,151.94c0.33,1,0.67,2,1,3c0.28,0.27,0.38,0.54,0.31,0.83c-0.07,0.29-0.16,0.43-0.24,0.43
		c-0.68,0.37-1.37,0.39-2.07,0.06c-0.98-1.45-1.63-3.13-2.99-4.32c0-2.66,0-5.33,0-7.99c-1.9-2.66-1.9-5.33,0-7.99
		c0.17-0.43,0.33-0.87,0.5-1.3c0.17,0.43,0.33,0.87,0.5,1.3c1.11,3.51,0.11,7.12,0.5,10.12c0.4-3-0.61-6.61,0.5-10.12
		c0-5.33,0-10.66,0-15.98c-1.07-8.72-0.4-17.47-0.42-26.21c-0.02-7.24-0.63-14.51,0.42-21.74c0.33,0,0.67,0,1,0
		c1.38,1.72,0.97,3.77,0.98,5.71c0.04,11.36,0.02,22.71,0.02,34.07c0.96,11.25-0.01,22.56,0.9,33.81
		C121.12,147.76,120.68,149.88,120.05,151.94z"/>
	<path class="st219" d="M76.09,146.94c-2.6-0.79-5.25-1.24-7.99-0.99c0-0.33-0.01-0.66-0.01-1c-0.58-0.9-1.34-1.72-1.41-2.87
		c0.17-0.9,0.57-1.67,1.41-2.13c7.48-0.3,14.9-0.04,22.17,2.02c1.13,0.32,1.65,0.9,1.81,1.97c-0.43,0.81-1.18,0.98-2.01,1
		c-1.66,1.49-3.31-0.73-4.97-0.01C82.42,147.07,78.74,144.68,76.09,146.94z"/>
	<path class="st220" d="M107.06,103.99c3.85-0.58,5.63,0.88,5.03,4.92c-0.19,1.3-0.15,2.67-0.01,3.98c0.43,4.03,0,7.46-5.02,8.07
		c-3.02-0.08-3-1.87-2.29-4.06c0.62-0.95,1.17-1.94,1.58-3c0.12-0.31,0.31-0.58,0.5-0.86c0.37-0.55,0.09,0.22,0.27-0.41
		c0.3-1.09-0.32,0.05-0.44-0.13c-0.41,0.08-0.78,0.08-1.18-0.01c-0.21-0.1-0.39-0.2-0.6-0.31c-0.33-0.37-0.56-0.77-0.73-1.23
		C104,108.16,103.54,105.25,107.06,103.99z"/>
	<path class="st221" d="M84.08,133.13c1-0.02,2-0.03,3-0.05c0.3,0.23,0.56,0.49,0.79,0.79c0.16,0.34,0.23,0.71,0.21,1.09
		c1.32,1.45,2.94,2.99-0.84,2.99c-6.38,0.01-12.76,0-19.14,0.01c-0.3-0.22-0.4-0.44-0.3-0.67c0.1-0.22,0.2-0.33,0.3-0.33
		c0-0.33,0-0.67,0-1c1.33-0.67,2.66-1.06,4,0c2.99,0,5.97-0.07,8.96,0.02C83.11,136.04,84.22,135.31,84.08,133.13z"/>
	<path class="st222" d="M118.05,72.03c0,15.98,0,31.96,0,47.95c-1.25-0.97-0.99-2.36-0.99-3.65c-0.01-13.55-0.01-27.09,0-40.64
		C117.06,74.38,116.81,72.99,118.05,72.03z"/>
	<path class="st223" d="M116.02,111.68c0,1.97,0.03,3.95-0.01,5.92c-0.02,1.02-0.22,2.08-1.53,2.07c-0.97-0.01-1.37-0.84-1.38-1.71
		c-0.03-3.95-0.03-7.89-0.01-11.84c0.01-0.86,0.28-1.71,1.28-1.8c1.34-0.12,1.59,0.91,1.62,1.94
		C116.06,108.06,116.02,109.87,116.02,111.68z"/>
	<path class="st48" d="M81.09,84.01c0.14-0.9-2.04-0.65-1-2c1.17-0.67,2.34-0.65,3.5-0.23c-0.53-0.87-1.91,0.2-2.5-0.76
		c3.99-1.15,8.1-2.9,10.99,2c-0.31,2.37-2.18,2.65-4,2.99c-0.5-0.5-1.16-0.64-1.8-0.86C84.56,84.71,82.56,85.57,81.09,84.01z"/>
	<path class="st224" d="M108.06,144.95c-1.3-1.01-1.83-2.42-2-4c0-1,0.01-2,0.01-3c1.54-0.39,3.2-3.42,4.43-1.09
		C111.98,139.7,111.9,143.17,108.06,144.95z"/>
	<path class="st225" d="M102.13,119.98c0.02-5.33,0.05-10.67,0.07-16c0.29,0.01,0.57,0.01,0.86,0.02c3.15,2.04,0.35,5.57,1.99,7.99
		l0,0c1.78,2.82-1.14,5.22-0.71,7.93C103.63,120.58,102.89,120.52,102.13,119.98z"/>
	<path class="st224" d="M108.06,80.02c5.03,0.24,3.1,4.16,2.71,6.28c-0.54,2.99-2.95,1.39-4.71,0.72
		C105.46,84.31,107.49,82.37,108.06,80.02z"/>
	<path class="st226" d="M116.05,135.96c0,2.66,0,5.33,0,7.99c-3.37,0.26-2.95-2.11-3.01-4.24
		C112.97,137.54,113.16,135.7,116.05,135.96z"/>
	<path class="st227" d="M104.06,119.97c-0.23-2.73,0.2-5.38,1-7.99c0.34,0,0.67,0,1.01,0c0.92,1.66,0.67,3.33,0,4.99
		c-1.95,1.9-0.63,2.99,1,4c-1.79,0.74,0.63,4.64-3,3.99C103.28,123.3,103.32,121.64,104.06,119.97z"/>
	<path class="st228" d="M113.02,83.66c0.34-1.26-0.56-3.6,1.75-3.21c2.17,0.37,1.11,2.7,1.24,4.18c0.1,1.2,0.35,3.2-1.43,3.02
		C112.19,87.41,113.41,85.07,113.02,83.66z"/>
	<path class="st229" d="M105.06,111.99c-1.73-2.4-0.76-5.47-1.99-7.99c1.33-2.88,2.66-3.17,4,0
		C105.12,106.34,104.99,109.14,105.06,111.99z"/>
	<path class="st230" d="M116.05,151.94c2.26,0.39,3.6,1.46,3,4c1.3,1.74,0.05,2.84-1,4c0,0,0,0,0,0c-0.33,0-0.67,0-1,0
		C116.26,157.32,115.81,154.67,116.05,151.94z"/>
	<path class="st231" d="M108.06,80.02c0.01,2.53-1.08,4.73-2,6.99c-2.48,0.3-2.78,0-2-2.01c2.02-1.05,2.65-2.93,2.99-4.99
		C107.39,79.34,107.73,79.33,108.06,80.02z"/>
	<path class="st232" d="M68.1,136.96c0,0.33,0,0.67,0,1c-1.11,0.67-0.08,1.33,0,2c-0.02,0.82-0.19,1.57-1,2
		c-0.83-0.21-1.67-0.38-2.52-0.54c-0.98-0.58-2.02-1.13-1.62-2.57c0.41-0.32,0.79-0.3,1.14,0.11
		C65.3,138.02,65.37,134.83,68.1,136.96z"/>
	<path class="st233" d="M95.08,130.03c1.63-1.8,3.26-3.59,4.89-5.39c0.03,1.11,0.07,2.22,0.1,3.33c-1.25,1.86-1.2,5.32-5,4
		C95.07,131.32,95.08,130.67,95.08,130.03z"/>
	<path class="st234" d="M95.07,131.96c2.75,0.02,3.36-2.63,5-4c0.34,2.07-0.38,3.71-2,4.99c-1.2,0.85-2.26,2.26-4,1
		C94.41,133.29,94.74,132.63,95.07,131.96z"/>
	<path class="st235" d="M118.05,135.96c0,3.26,0,6.52,0,9.78c-0.33,0-0.67,0.01-1,0.01c0-3.26,0-6.53,0-9.79
		C117.39,135.96,117.72,135.96,118.05,135.96z"/>
	<path class="st236" d="M104.06,119.97c0,1.66,0,3.33,0,4.99c-0.5-0.48-2.66,2.59-1.71-0.72c0.38-1.34,1.07-2.36-0.39-3.34
		c0.07-0.31,0.13-0.62,0.17-0.93C102.77,119.97,103.42,119.97,104.06,119.97z"/>
	<path class="st214" d="M94.07,133.96c1.33-0.33,2.66-0.67,4-1C96.41,136.08,95.65,136.27,94.07,133.96z"/>
	<path class="st237" d="M87.08,85.01c0.33,0.33,0.66,0.66,1,1c-2,0-3.99,0-5.99,0.01c-0.33-0.33-0.66-0.66-0.99-0.99
		C83.09,84.24,85.08,84.25,87.08,85.01z"/>
	<path class="st19" d="M87.08,133.96c0-0.29,0-0.58-0.01-0.87c1.35-0.32,2.69-0.64,4.04-0.97c0.32,0.61,0.64,1.23,0.96,1.84
		C90.41,134.7,88.75,134.71,87.08,133.96z"/>
	<path class="st238" d="M101.05,81.02c0.3-0.29,0.61-0.58,0.91-0.88c0.7,1.29,1.4,2.58,2.1,3.87c-1.45,0-2.44-0.68-3.01-2
		C101.06,81.68,101.06,81.35,101.05,81.02z"/>
	<path class="st239" d="M106.07,151.94c0.33,0,0.66,0.01,0.99,0.01c0,1,0.01,1.99,0.01,2.99c-0.25,0.42,0.47,1.84-1.02,0.99
		C106.06,154.6,106.06,153.27,106.07,151.94z"/>
	<path class="st74" d="M87.08,133.96c1.66,0,3.33,0,4.99,0c-1.05,1.46-2.62,0.86-4,1C87.75,134.62,87.41,134.29,87.08,133.96z"/>
	<path class="st217" d="M219.89,134.82c-1.42-0.03-2.77,0.21-3.93,1.12c-7.88,2.78-13.37-0.3-15.25-8.53
		c-0.14-2.22,0.3-4.34,1.11-6.4c1.95-4.26,6.04-5.33,9.96-6.66c0.79-0.13,1.52,0.03,2.19,0.48c4.79-0.78,9.77-0.84,14.04-3.63
		c1.72-1.09,2.44-0.17,2.39,1.41c-0.07,2.78,0.47,5.59-0.39,8.34c-0.15,0.28-0.19,0.57-0.13,0.87c-1.04,1.59,0.32,3.95-1.69,5.23
		c-1.01,3.3-3.97,4.78-6.35,6.81c-0.1,0.17-0.2,0.34-0.3,0.51C221.06,134.75,220.5,134.87,219.89,134.82z"/>
	<path class="st240" d="M246.94,137.95c0,0.67,0,1.33,0,2c-0.55,0.66-0.27,1.83-1.35,2.16c-0.22-0.05-0.44-0.11-0.65-0.16
		c-0.02-0.82-0.19-1.57-1-2c-1.37-1.33-0.55-2.66,0-4c0-3.14,0.12-6.28-0.04-9.4c-0.14-2.68,1.38-6.16-3.13-7.09
		c-0.95-0.2-1.03-1.75-0.78-2.65c1.26-4.57-3.21-10.41,3.5-13.95c1.74-0.92-0.6-4.81,1.45-6.86c0.21,0.22,0.41,0.44,0.63,0.66
		c1.58,5.55,0.47,11.21,0.74,16.82c0.22,4.47-0.2,8.97,0.26,13.43C246.86,130.58,247.84,134.24,246.94,137.95z"/>
	<path class="st241" d="M231.95,75.02c0.33,0.33,0.67,0.67,1,1c0.29,0.37,0.94,0.4,1,1c-2.93,3.28-6.94,4.17-10.99,4.99
		c-2,0.77-4,0.76-5.99,0c0.64-0.46,1.29-0.93,1.93-1.39c-0.95-1.05-1.95-0.59-2.7,0.19c-1.12,1.16-2.19,1.49-3.41,0.28
		c-0.93-0.92-0.87-2.11-0.72-3.28c0.25-1.85,1.69-1.77,3.03-1.78c2.99-0.02,5.99,0.02,8.98-0.03c1.58-0.03,3.51,0.49,3.86-1.99
		c0.03-1.3,0.7-1.96,2-1.99C230.76,72.94,230.91,74.27,231.95,75.02z"/>
	<path class="st242" d="M201.79,126.98c1.89,7.54,4.04,8.9,14.18,8.97c-0.32,2.68-2.42,1.82-4,2.01c-4.58,2.57-9.49,1.01-14.27,1.17
		c-0.55-0.11-1.06-0.32-1.53-0.62c-0.65-0.55-0.91-1.27-0.92-2.1c0.09-0.76,0.42-1.39,1.07-1.83c0.41-0.19,0.85-0.32,1.28-0.4
		c0.87-0.27,1.26-0.71,0.53-1.57c-0.31-0.33-0.53-0.69-0.68-1.1c-0.17-2.08,1.01-3.5,2.37-4.82
		C200.54,126.39,201.21,126.37,201.79,126.98z"/>
	<path class="st243" d="M246.94,137.95c-0.33-3.33-0.67-6.66-1-9.99c-1.07-8.7-0.18-17.43-0.5-26.14c-0.07-1.94,0.52-3.96-0.49-5.83
		c0,0,0,0,0,0c0.33-1,0.67-2,1-3c0.33-0.36,0.67-0.34,1,0c0,1,0,1.99,0,2.99c1.06,8.69,0.18,17.43,0.5,26.13
		c0.07,1.94-0.51,3.96,0.49,5.83c0,3.33,0.01,6.66,0.01,9.99C247.6,137.95,247.27,137.95,246.94,137.95z"/>
	<path class="st244" d="M239.94,145.95c-1.71,0.08-3.66-0.99-4.99,1c0,0-0.01-0.01-0.01-0.01c-0.48-0.58-0.68-1.28-0.83-2
		c0.37-2.32-1.13-4.86,0.83-6.98c2.95,2.27,6,4.32,9.99,4v0c0.36,0.36,0.5,0.79,0.45,1.29C244.44,145.9,241.29,144.1,239.94,145.95
		L239.94,145.95z"/>
	<path class="st245" d="M243.94,84.01c0.67,0.67,1.33,1.33,2,2c0.44,1.25,0,2.22-1,3c-1.62-0.99-3.41-0.99-5.23-1.04
		c-1.17-0.03-3.1,0.68-3.21-1.17c-0.09-1.54,1.43-2.51,3.02-2.69C240.98,83.95,242.46,84.04,243.94,84.01z"/>
	<path class="st246" d="M230.02,120.95c-0.03-2.33-0.05-4.66-0.08-6.99c-0.02-1.35,0.09-2.79-1.92-2.76
		c0.93-1.42,0.83-4.68,3.94-2.21c1.08,0.75,2.15,1.5,1,3c0,2.94,0,5.89,0,8.83c-0.27,0.01-0.54,0.02-0.82,0.04
		c-0.12-2.63-0.24-5.25-0.38-8.41C229.98,115.45,232.14,118.6,230.02,120.95z"/>
	<path class="st150" d="M195.98,137.95c5.33,0,10.66,0,15.98,0c0,0.67,0,1.33,0,2c-0.23,0.21-0.47,0.42-0.7,0.64
		c-4.04,1.5-8.21,0.91-12.31,0.61C197.3,141.09,194.97,140.85,195.98,137.95z"/>
	<path class="st247" d="M216.96,145.94c-0.34,0.33-0.67,0.65-1.01,0.98c-0.99-0.32-1.99-0.65-2.98-0.97c-2.64-1.61-2.53-3.69-1-6
		c0,0,0,0,0,0c3.09-0.03,5.69,0.31,3.86,4.54C215.71,144.76,216.56,145.45,216.96,145.94z"/>
	<path class="st248" d="M234.95,144.94c0,0.67,0,1.33-0.01,2c-1.82-0.75-2.09-2.28-1.99-3.99c0.42-2.1-1.1-3.43-2-5
		c0.41-2.13,1.35-2.64,3.01-0.99C235.03,139.53,233.93,142.37,234.95,144.94z"/>
	<path class="st249" d="M243.94,135.96c1.03,1.33-0.48,2.66,0,4c-2.39,0.33-3.34-1.43-4.64-2.9
		C240.7,135.28,242.46,136.24,243.94,135.96z"/>
	<path class="st250" d="M232.94,104.99c-0.15,2.72-2.07,1.38-3.3,1.32c-0.36-0.02-1.08-1.22-0.94-1.44c0.97-1.5,2.71-1.5,4.25-1.89
		C233.6,103.66,233.02,104.33,232.94,104.99z"/>
	<path class="st251" d="M244.94,89.01c0.33-1,0.67-2,1-3c1.92,2.1,0.61,4.67,1,6.99c-0.33,0-0.67,0-1,0
		C244.47,91.95,245.08,90.39,244.94,89.01z"/>
	<path class="st252" d="M234.5,87.73c0.48,2.58,0.77,4.12,1.06,5.66C233.65,92.09,232.64,90.66,234.5,87.73z"/>
	<path class="st253" d="M234.95,144.94c-1.99-2.45-0.56-5.33-0.99-7.97c0.33,0.33,0.66,0.66,0.99,0.99
		C234.45,140.28,235.92,142.61,234.95,144.94z"/>
	<path class="st254" d="M213.97,114.83c-0.65,0.09-1.29,0.19-1.94,0.28c-0.82-0.14-1.62-0.32-2.06-1.13c-0.33-0.67-0.66-1.33-1-2
		c1-0.33,2,1.15,3,0C213.24,112.51,213.93,113.45,213.97,114.83z"/>
	<path class="st255" d="M228.2,127.05c0.56-1.74,1.13-3.48,1.69-5.23c0.14,1.63,0.52,3.28,0.37,4.89
		C230.08,128.61,228.94,127.14,228.2,127.05z"/>
	<path class="st250" d="M232.95,111.98c-0.33-1-0.67-2-1-3c1.47,0.01,3.35-0.12,3.59,1.65
		C235.72,112.02,233.67,111.18,232.95,111.98z"/>
	<path class="st256" d="M232.94,104.99c-1.11-0.67-0.08-1.33,0.01-2c1.35,0.02,2.49,0.92,2.23,2.02
		C234.79,106.61,233.72,104.97,232.94,104.99z"/>
	<path class="st257" d="M216.96,82.01c2,0,4,0,5.99,0c0,0.34,0,0.67,0,1.01c-2,0-4,0-5.99,0C216.96,82.68,216.96,82.35,216.96,82.01
		z"/>
	<path class="st258" d="M233.95,77.02c-0.33-0.33-0.67-0.67-1-1c1.38,0.14,2.95-0.46,4,1c0,0.33,0,0.67,0,1
		C235.94,77.69,234.95,77.36,233.95,77.02z"/>
	<path class="st47" d="M231.95,96.99c-0.33-0.67-0.66-1.33-1-2c0.4-0.58,1-0.97,1.51-0.38C233.25,95.51,232.83,96.35,231.95,96.99z"
		/>
	<path class="st259" d="M221.85,133.86c1.25,0.23,2.49,0.48,3.31,1.58c-0.73,0.17-1.47,0.34-2.2,0.51c-0.6-0.58-1.68-0.9-1.1-2.1
		L221.85,133.86z"/>
	<path class="st27" d="M221.86,133.85c0.37,0.7,0.73,1.4,1.1,2.1c-1.15-0.02-2.38,0.14-3.07-1.13
		C220.33,134.05,221.05,133.87,221.86,133.85z"/>
	<path class="st260" d="M152.02,48.05c-0.28,3.32,1.45,7.37-3.54,8.95c-0.82,0.26-0.72,13.41,0,14.12c0.43,0.42,1.16,0.87,1.68,0.8
		c5.16-0.7,5.03,2.61,4.89,6.14c-0.05,1.33-0.22,2.51,1.31,3.81c1.32,1.12,1.68,3.96-1.25,5.04c-3.06,1.14-3.36,3.57-3.14,6.39
		c0.18,2.3,0.05,4.63,0.02,6.95c-0.01,0.82,0.17,2.14-0.25,2.39c-7.37,4.5-2.23,11.63-3.74,17.33c-1.48,1.08-2.94,1.2-4.39-0.05
		c-1.44-2.24-1.14-4.78-1.15-7.24c-0.04-15.23,0.24-30.46-0.13-45.68c-0.18-7.37,0.65-14.1,5.7-19.8c1.02-0.95,2.18-1.15,3.47-0.66
		C152.17,46.89,152.34,47.39,152.02,48.05z"/>
	<path class="st261" d="M144.03,119.97c1.33,0,2.66,0,4,0c0,2,0,4,0,5.99c-1.33,0-2.66,0-4,0
		C142.24,123.97,140.63,121.97,144.03,119.97z"/>
	<path class="st262" d="M155.29,111.64c1.04,2.4,2.03,4.14,2.54,6.01c0.45,1.65-0.75,2.33-2.31,2.29c-1.19-0.03-2.63-0.15-1.94-1.85
		C154.34,116.24,153.37,113.91,155.29,111.64z"/>
	<path class="st98" d="M162.16,62.02c-2.37,1.14-4.09,0.44-6.37-2.16C158.69,60.84,160.43,61.43,162.16,62.02z"/>
	<path class="st127" d="M152.02,48.05c0-0.33,0-0.67,0-1c0.12-0.55,0.44-0.89,1-1c0.85-0.14,2.25-1.41,2.43-0.15
		C155.78,48.31,153.55,47.89,152.02,48.05z"/>
	<path class="st263" d="M153.02,46.05c-0.33,0.33-0.67,0.67-1,1c-1,0-2,0-3,0c-0.59-1.92,1.54-1.12,2-2c0.33,0,0.66,0,0.99,0
		C152.35,45.39,152.69,45.72,153.02,46.05z"/>
	<path class="st264" d="M59.1,88.01c0.04-1.33,0.97-2.66,0-3.99c2.07-0.35,3.71,0.38,5,2c0.62,0.67,0.58,1.33,0,2
		C62.44,88.01,60.77,88.01,59.1,88.01z"/>
	<path class="st265" d="M64.1,88.01c0-0.67,0-1.33,0-2c1.08-0.5,1.47-2.57,3.15-1.6c1.38,0.8,0.68,2.36,0.85,3.6
		C66.77,88.01,65.43,88.01,64.1,88.01z"/>
	<path class="st266" d="M72.09,135.96c-1.33,0-2.66,0-4,0c0.45-0.44,0.83-1.1,1.36-1.29c1.08-0.38-0.99-3.24,1.78-2.13
		C73.19,133.32,72.92,134.54,72.09,135.96z"/>
	<path class="st267" d="M64.1,138.95c-0.33,0-0.66,0.01-1,0.01c-1.48,1.11-2.21-0.03-3-1c-0.33,0-0.67,0-1,0c0-0.67,0-1.33,0-2
		C61.16,136.3,63.04,136.94,64.1,138.95z"/>
	<path class="st268" d="M59.11,135.96c-1.66-1.67-2.57-3.71-3-5.99C58.43,131.3,59.08,133.47,59.11,135.96z"/>
	<path class="st269" d="M68.1,88.01c1.38,0.14,2.94-0.47,3.99,1c-0.48,1.44-1.15,2.61-3,2C68.76,90.01,68.43,89.01,68.1,88.01z"/>
	<path class="st270" d="M69.1,91.01c1-0.67,2-1.33,3-2c0.33,0.33,0.67,0.66,1,1c-0.47,1.15-1.26,2.12-1.85,3.21l0.05-0.05
		c-0.77,0.44-1.51,0.44-2.2-0.16C69.1,92.34,69.1,91.67,69.1,91.01z"/>
	<path class="st271" d="M69.1,93c0.73,0.05,1.47,0.1,2.2,0.15c-0.39,1.29-0.78,2.57-1.17,3.86C68.63,95.97,69.24,94.39,69.1,93z"/>
	<path class="st255" d="M58.11,93c0.24-1.68-0.67-3.59,1-4.99C58.86,89.69,59.77,91.6,58.11,93z"/>
	<path class="st85" d="M72.09,76.01c0,0.34,0,0.67,0,1.01c-0.93,1.92-2.28,2.18-3.99,1.01c-0.34-0.34-0.67-0.67-1.01-1.01
		C68.22,73.97,70.57,77.08,72.09,76.01z"/>
	<path class="st127" d="M68.1,78.03c1.45,0.14,2.75-0.32,3.99-1.01c0.33,0,0.67,0,1,0c0.8,0.43,0.98,1.18,1,2
		c-2,0.76-4,0.77-5.99-0.01C68.1,78.68,68.1,78.35,68.1,78.03z"/>
	<path class="st272" d="M87.08,85.01c-2,0-3.99,0-5.99,0.01c-0.44-0.17-0.87-0.33-1.31-0.5c0.43-0.17,0.87-0.34,1.3-0.5
		C83.08,84.34,85.33,83.2,87.08,85.01z"/>
	<path class="st268" d="M68.1,79.01c2,0,4,0,5.99,0.01C72.09,80.53,70.09,80.54,68.1,79.01z"/>
	<path class="st271" d="M71.25,93.21c-0.26-1.57,0.47-2.58,1.85-3.21c0.32,0.29,0.65,0.59,0.97,0.88
		C73.13,91.67,73.04,93.47,71.25,93.21z"/>
	<path class="st273" d="M81.09,81.02c0.96,0,1.93,0,2.89,0c0.01,0.26,0.03,0.53,0.04,0.79c-1.31,0.07-2.62,0.13-3.93,0.2
		C80.42,81.68,80.75,81.35,81.09,81.02z"/>
	<path class="st241" d="M211.97,139.95c-0.02,2.06-0.19,4.14,1,6c-0.76,1.82-2.29,2.09-4,1.99c-2.33-0.98-4.66-0.64-6.99,0
		c-0.33-0.33-0.67-0.67-1-1c-1-0.72-2-0.76-3,0c-0.66-1-1.33-2-1.99-2.99c-2.01-1.78-5.05-2.12-6.19-5.21
		c-0.98-2.67,0.26-2.8,2.19-2.78c0.3-0.34,0.66-0.45,1.1-0.31c1.08,0.62,2.01,1.44,2.9,2.3c0,0,0,0,0,0
		c0.33,2.41,2.2,1.97,3.76,1.99C203.82,139.97,207.89,139.95,211.97,139.95z"/>
	<path class="st274" d="M192.99,135.96c-0.33,0-0.67,0-1,0c0-5.33,0-10.66,0-15.98c1.11-1.1,2.51-1.64,4-2c1.9-0.08,2.8-2.65,5-2
		c1.36,1.73-0.46,2.64-0.98,3.89c-0.18,0.38-0.36,0.75-0.52,1.13c-0.23,1.54-0.92,3.07,0.06,4.59c0.45,0.36,0.89,0.73,0.45,1.37
		c-0.67,1.67-1.33,3.33-2,5c0.19,1.17-0.09,2.19-1,3c-0.33,0.33-0.67,0.67-1,1C194.98,136.77,193.99,136.77,192.99,135.96z"/>
	<path class="st275" d="M198.99,119.98c0.66-1.33,1.33-2.67,1.99-4c1.3-0.03,1.96-0.7,2-2c2.33,0,4.66,0,6.99,0
		c0.88,0.03,1.66,0.24,2.06,1.13c-3.24,1.66-7.01,2.47-9.14,5.86c-0.39,0.53-0.93,0.65-1.54,0.58c-0.58-0.13-1.1-0.39-1.6-0.71
		C199.43,120.62,199.17,120.33,198.99,119.98z"/>
	<path class="st276" d="M195.98,117.98c-0.33,2.68-2.43,1.81-4,2c0.27-1.58,0.49-3.3,2.32-3.78
		C195.53,115.88,195.85,116.97,195.98,117.98z"/>
	<path class="st277" d="M120.05,151.94c-0.03-13.33,0.34-26.66-1-39.96c1.13-6.55,0.22-13.15,0.51-19.72
		c0.29-6.74-0.58-13.51,0.49-20.23c1.72,1.64,0.96,3.77,0.96,5.67c0.06,22.09,0.04,44.17,0.04,66.26c0.75,1.66,0.75,3.33,0,4.99
		C121.01,150.04,121.23,151.22,120.05,151.94z"/>
	<path class="st5" d="M120.05,72.03c0,11.6,0.03,23.2-0.03,34.8c-0.01,1.74,0.66,3.69-0.97,5.16c0-13.32,0-26.64,0-39.96
		C119.39,72.03,119.72,72.03,120.05,72.03z"/>
	<path class="st278" d="M121.05,148.94c0-1.66,0-3.33,0-4.99C122.53,145.61,122.53,147.28,121.05,148.94z"/>
	<path class="st279" d="M121.05,155.94c0-0.33,0-0.66,0.01-1c0.33,0,0.66,0,0.99-0.01c-0.23,1.69,0.68,3.6-1,4.99c0,0,0-0.01,0-0.01
		C119.98,158.59,119.98,157.26,121.05,155.94z"/>
	<path class="st280" d="M247.93,127.96c-1.62-1.47-0.95-3.41-0.96-5.15c-0.07-8.94-0.03-17.87-0.03-26.81
		c1.63,1.47,0.95,3.41,0.97,5.15C247.97,110.08,247.93,119.02,247.93,127.96z"/>
	<path class="st281" d="M140.03,119.97l-0.5,0c0,0-0.5,0-0.5,0c0-22.64,0-45.28,0-67.93c0.62-0.31,1.21-0.25,1.77,0.16
		c1.2,1.02,1.89,2.2,1.7,3.9c-2.01,18.73-0.38,37.52-0.94,56.28C141.49,114.98,142.11,117.76,140.03,119.97z"/>
	<path class="st282" d="M140.03,52.05c-0.33,0-0.67,0-1,0c0.49-2.29-0.94-4.57-0.04-6.87c2.24,1.13,4.65,0.86,7.03,0.87c0,0,0,0,0,0
		C147.42,51.27,145.25,53.44,140.03,52.05z"/>
	<path class="st283" d="M85.1,144.94c1.66-1.78,3.31,0.71,4.97,0.01C88.41,146.85,86.76,145.67,85.1,144.94z"/>
	<path class="st284" d="M288.84,117.69c1.58-0.62,3.2-0.99,4.91-0.65c1.78,2.95,1.72,5.93,0.12,8.93
		C288.32,125.86,287.41,124.36,288.84,117.69z"/>
	<path class="st258" d="M231.95,75.02c-2.03-0.09-2.01-1.54-2-2.99c0.33,0,0.67,0,1,0C231.28,73.03,231.62,74.02,231.95,75.02z"/>
	<path class="st135" d="M397.11,60.11c0.24-0.25,0.48-0.51,0.73-0.76c4.3-1.07,5.82,1.39,5.89,5.02c0.07,3.89-2.32,5.11-5.9,4.52
		C396.15,66.08,396.5,63.11,397.11,60.11z"/>
	<path class="st285" d="M287.85,98.83c-1.62,1.01-3.25,1.64-4.96,0.17c-0.46-1.9,0.73-2.93,2.05-3.89c1.25,0.06,2.51,0.11,3.76,0.17
		c0.05,0.9,0.1,1.81,0.15,2.71C288.51,98.27,288.18,98.55,287.85,98.83z"/>
	<path class="st286" d="M279.84,66.01c-0.97,0.74-0.96,1.88-1.19,2.93c-1.46-0.04-2.92-0.07-4.38-0.11c-1.21-2.11-1.6-4.41-1.5-6.81
		c0.91-1.65,2.12-2.89,4.14-3.01c0.66,0.35,1.31,0.69,1.97,1.04C279.11,62.05,280.27,63.9,279.84,66.01z"/>
	<path class="st287" d="M364.81,58.92c1.42,0.08,2.83,0.19,4.04,1.06c0.39,1.01,0.78,2.02,1.18,3.03c-0.13,1.32-0.26,2.64-0.39,3.96
		c-1.27,1.45-2.83,2.27-4.81,2.13c-0.27-0.2-0.57-0.31-0.9-0.35c-1.11-1.73-1.79-3.61-2.06-5.64
		C363.38,62.09,362.22,59.19,364.81,58.92z"/>
	<path class="st288" d="M201.97,147.94c2.33-1.57,4.66-1.57,6.99,0C206.64,147.94,204.31,147.94,201.97,147.94z"/>
	<path class="st289" d="M197.98,146.94c1-1.28,2-1.28,3,0c-0.66,0-1.33-0.01-1.99-0.01C198.65,146.93,198.32,146.94,197.98,146.94z"
		/>
	<path class="st6" d="M140.03,52.05c4.15,0.15,6.15-1.84,5.99-5.99c0.83-0.02,1.58-0.2,2.01-1.01c1,0,1.99,0.01,2.98,0.01
		c-0.67,0.67-1.33,1.33-2,2c-6.7,8.7-4.94,18.87-4.98,28.72c-0.06,14.73-0.01,29.47-0.01,44.2c-2.29,2,0.05,4,0,5.99c-1,0-2,0-3,0
		c-0.33-2,0.81-4.24-1-5.99c0-19.61,0.12-39.22-0.12-58.82C139.87,58.1,142.72,55.08,140.03,52.05z"/>
	<path class="st290" d="M320.88,58.03c0,0.33-0.01,0.67-0.01,1c-0.3,0-0.6-0.02-0.89-0.08c0-2.28,0-4.55,0-6.83
		C322.44,53.77,320.08,56.14,320.88,58.03z"/>
	<path class="st291" d="M60.11,137.96c1,0.33,2,0.67,3,1c0.38,0.95,1.04,1.61,1.99,1.99c0.97,0.78,1.54,1.71,1,3
		C63.55,142.5,61.56,140.5,60.11,137.96z"/>
	<path class="st292" d="M66.1,143.95c-0.33-1-0.67-2-1-3c1.59-1.52,1.8-0.27,2,1c0.33,1,0.67,2,1,3
		C67.43,144.62,66.77,144.28,66.1,143.95z"/>
	<path class="st293" d="M239.94,145.94c0.26-3.35,3.96-0.95,5-2.99c1.13-0.6,2.09-0.85,1.99,1
		C245.3,147.07,242.36,145.6,239.94,145.94z"/>
	<path class="st5" d="M246.93,143.95c-0.43-0.81-1.17-0.98-1.99-1c0-0.33,0-0.67,0-1c0.67-0.67,1.33-1.33,2-2
		c0.67,1.33,1.33,2.66,2,4C248.27,143.95,247.6,143.95,246.93,143.95z"/>
	<path class="st294" d="M307.89,93.25c-1.3-0.29-3.13,0.09-2.86-2.22c0.29-0.32,0.58-0.64,0.87-0.95c2.44-0.53,4.97-1.38,6.16,1.98
		C311.31,94.68,309.58,93.89,307.89,93.25z"/>
	<path class="st295" d="M310.86,116.98c0.49,0.66,0.97,1.32,1.46,1.97c-0.89,2.47-2.6,2.05-4.42,1.26
		c-1.02-0.31-2.34,0.17-2.95-1.17C306.35,116.71,308.56,116.71,310.86,116.98z"/>
	<path class="st296" d="M307.9,120.21c1.49-0.37,3.29,0.39,4.42-1.25c0,0,0.47-0.02,0.47-0.02c-0.3,0.98-0.61,1.96-0.91,2.94
		c-1.32-0.01-2.64-0.01-3.96-0.01C307.92,121.31,307.91,120.76,307.9,120.21z"/>
	<path class="st297" d="M277.89,121.98c0,1.3,0,2.61-0.01,3.91c-1.6,0.53-3.14,1.38-4.93,0.98c-0.21-1.28-0.85-2.57,0-3.85
		C274.6,122.67,276.24,122.33,277.89,121.98z"/>
	<path class="st298" d="M307.89,93.25c1.38-0.45,3.16,0.49,4.18-1.2c0.27-0.03,0.54-0.04,0.82-0.02c0,0.66,0,1.32,0,1.98
		c-1.46,1.5-3.29,0.75-4.98,0.84C307.89,94.31,307.89,93.78,307.89,93.25z"/>
	<path class="st299" d="M121.05,155.94c0,1.33,0,2.65,0,3.98c-1,0.01-1.99,0.01-2.99,0.02c0.33-1.33,0.67-2.66,1-4
		C119.72,155.94,120.38,155.94,121.05,155.94z"/>
	<path class="st300" d="M106.07,116.98c0-1.66,0-3.33,0-4.99c0.33,0,0.66,0,0.99,0c0.57,0.66,0.58,1.32,0.01,1.99
		C107.03,115.07,107.24,116.25,106.07,116.98z"/>
	<path class="st301" d="M107.07,113.97c0-0.66-0.01-1.32-0.01-1.99c0.05-0.63,0.1-1.27,0.15-1.9
		C107.94,111.44,108.58,112.78,107.07,113.97z"/>
	<path class="st302" d="M200.98,120.97c0.64,0,1.28-0.01,1.92-0.01c-0.37,2-0.74,4.01-1.11,6.01c-0.6-0.01-1.21-0.01-1.81-0.02
		c-0.33-0.33-0.66-0.67-0.99-1c-0.77-2-0.77-3.99,0-5.99c0,0,0.01,0.01,0.01,0.01c0.33,0,0.66,0,0.99,0
		c0.66,1.16,0.66,2.34,0.24,3.5C201.08,122.94,200.02,121.56,200.98,120.97z"/>
	<path class="st251" d="M244.94,96c1.63,1.46,0.96,3.41,0.97,5.15c0.06,8.94,0.03,17.88,0.03,26.82c-1.63-1.46-0.96-3.41-0.97-5.15
		C244.9,113.88,244.94,104.94,244.94,96z"/>
	<path class="st303" d="M198.97,131.96c1.41,0.14,2.18,0.7,1.36,2.2c-0.53,0.96-0.95,2.36-2.36,0.8
		C197.38,133.65,198.25,132.83,198.97,131.96z"/>
	<path class="st304" d="M192.99,135.96c1,0,2,0,2.99,0c0,0.66,0,1.33,0,1.99C194.53,137.97,193.08,137.99,192.99,135.96z"/>
	<path class="st305" d="M198.97,131.96c-0.33,1-0.67,2-1,3c-0.33,0-0.66,0-0.99,0c0.03-1.1-0.18-2.28,1-3
		C198.31,131.96,198.64,131.96,198.97,131.96z"/>
	<path class="st306" d="M198.98,119.97c0,2,0,3.99,0,5.99C196.95,123.97,197.85,121.97,198.98,119.97z"/>
	<path class="st307" d="M200.98,120.97c0,0.96,0,1.92,0,2.88c-0.27,0.02-0.53,0.04-0.8,0.06c-0.07-1.31-0.14-2.62-0.2-3.94
		C200.31,120.31,200.65,120.64,200.98,120.97z"/>
</g>
</svg>
