<svg width="24" height="24" viewBox="0 0 24 24" fill="none" xmlns="http://www.w3.org/2000/svg">
<path d="M12.001 0.363525C8.84074 0.363525 8.44413 0.377344 7.20292 0.433829C5.96413 0.490556 5.11856 0.686677 4.37868 0.974435C3.61334 1.27165 2.96413 1.66922 2.31734 2.31625C1.67007 2.96304 1.2725 3.61225 0.974314 4.37734C0.685829 5.11746 0.489466 5.96328 0.433708 7.20159C0.378193 8.4428 0.363647 8.83965 0.363647 11.9999C0.363647 15.1601 0.377708 15.5555 0.433951 16.7967C0.49092 18.0355 0.687042 18.8811 0.974557 19.621C1.27201 20.3863 1.66959 21.0355 2.31662 21.6823C2.96316 22.3296 3.61237 22.7281 4.37722 23.0253C5.11759 23.3131 5.96341 23.5092 7.20195 23.566C8.44316 23.6224 8.83953 23.6363 11.9995 23.6363C15.16 23.6363 15.5554 23.6224 16.7966 23.566C18.0354 23.5092 18.882 23.3131 19.6223 23.0253C20.3874 22.7281 21.0356 22.3296 21.6822 21.6823C22.3295 21.0355 22.727 20.3863 23.0252 19.6212C23.3113 18.8811 23.5076 18.0353 23.5658 16.797C23.6216 15.5558 23.6361 15.1601 23.6361 11.9999C23.6361 8.83965 23.6216 8.44304 23.5658 7.20183C23.5076 5.96304 23.3113 5.11746 23.0252 4.37759C22.727 3.61225 22.3295 2.96304 21.6822 2.31625C21.0349 1.66898 20.3876 1.2714 19.6216 0.974435C18.8798 0.686677 18.0337 0.490556 16.7949 0.433829C15.5537 0.377344 15.1586 0.363525 11.9973 0.363525H12.001ZM10.9571 2.46049C11.2669 2.46001 11.6126 2.46049 12.001 2.46049C15.1079 2.46049 15.4761 2.47165 16.703 2.5274C17.8376 2.57928 18.4533 2.76886 18.8635 2.92813C19.4066 3.13904 19.7937 3.39116 20.2007 3.79843C20.608 4.20571 20.8601 4.59359 21.0715 5.13662C21.2308 5.54631 21.4206 6.16207 21.4723 7.29662C21.528 8.52328 21.5401 8.89177 21.5401 11.9972C21.5401 15.1027 21.528 15.4712 21.4723 16.6978C21.4204 17.8324 21.2308 18.4481 21.0715 18.8578C20.8606 19.4009 20.608 19.7875 20.2007 20.1946C19.7935 20.6018 19.4068 20.854 18.8635 21.0649C18.4538 21.2249 17.8376 21.4139 16.703 21.4658C15.4764 21.5216 15.1079 21.5337 12.001 21.5337C8.89383 21.5337 8.52559 21.5216 7.29892 21.4658C6.16438 21.4135 5.54862 21.2239 5.13819 21.0646C4.59516 20.8537 4.20728 20.6016 3.80001 20.1943C3.39274 19.787 3.14062 19.4001 2.92922 18.8569C2.76995 18.4472 2.58013 17.8314 2.5285 16.6969C2.47274 15.4702 2.46159 15.1017 2.46159 11.9943C2.46159 8.88692 2.47274 8.52037 2.5285 7.29371C2.58037 6.15916 2.76995 5.5434 2.92922 5.13322C3.14013 4.59019 3.39274 4.20231 3.80001 3.79504C4.20728 3.38777 4.59516 3.13565 5.13819 2.92425C5.54837 2.76425 6.16438 2.57516 7.29892 2.52304C8.37238 2.47456 8.78838 2.46001 10.9571 2.45759V2.46049ZM18.2124 4.39262C17.4415 4.39262 16.816 5.01734 16.816 5.7885C16.816 6.5594 17.4415 7.18486 18.2124 7.18486C18.9833 7.18486 19.6087 6.5594 19.6087 5.7885C19.6087 5.01759 18.9833 4.39213 18.2124 4.39213V4.39262ZM12.001 6.02413C8.70086 6.02413 6.02522 8.69977 6.02522 11.9999C6.02522 15.3 8.70086 17.9744 12.001 17.9744C15.3011 17.9744 17.9758 15.3 17.9758 11.9999C17.9758 8.69977 15.3009 6.02413 12.0007 6.02413H12.001ZM12.001 8.1211C14.143 8.1211 15.8798 9.85759 15.8798 11.9999C15.8798 14.142 14.143 15.8787 12.001 15.8787C9.85868 15.8787 8.12219 14.142 8.12219 11.9999C8.12219 9.85759 9.85868 8.1211 12.001 8.1211Z" fill="white"/>
</svg>
