<svg width="32" height="32" viewBox="0 0 32 32" fill="none" xmlns="http://www.w3.org/2000/svg">
<path d="M16.0052 0C9.32537 0 7.37177 0.00689289 6.99203 0.0384033C5.62121 0.152382 4.7682 0.368277 3.8389 0.831086C3.12272 1.18681 2.55791 1.59915 2.00047 2.17717C0.985278 3.23129 0.370009 4.52814 0.147282 6.06968C0.0389944 6.81805 0.00749261 6.97068 0.00109381 10.7933C-0.00136726 12.0675 0.00109381 13.7444 0.00109381 15.9937C0.00109381 22.67 0.00847704 24.6221 0.040471 25.0013C0.151219 26.3355 0.360411 27.175 0.803404 28.0932C1.65001 29.8509 3.26694 31.1704 5.17181 31.6627C5.83138 31.8326 6.55986 31.9261 7.49507 31.9705C7.8913 31.9877 11.9299 32 15.971 32C20.0121 32 24.0532 31.9951 24.4396 31.9754C25.5224 31.9244 26.1513 31.84 26.8465 31.6603C28.7637 31.1655 30.3511 29.8657 31.2149 28.0834C31.6493 27.1873 31.8696 26.3158 31.9692 25.0512C31.9909 24.7755 32 20.3796 32 15.9895C32 11.5988 31.9902 7.21095 31.9685 6.93523C31.8676 5.6502 31.6473 4.78613 31.1989 3.87282C30.831 3.12519 30.4224 2.56686 29.8293 1.99598C28.7708 0.984699 27.4763 0.369262 25.9337 0.14672C25.1863 0.0386494 25.0374 0.00664672 21.2129 0H16.0052Z" fill="url(#paint0_radial)"/>
<path d="M16.0052 0C9.32537 0 7.37177 0.00689289 6.99203 0.0384033C5.62121 0.152382 4.7682 0.368277 3.8389 0.831086C3.12272 1.18681 2.55791 1.59915 2.00047 2.17717C0.985278 3.23129 0.370009 4.52814 0.147282 6.06968C0.0389944 6.81805 0.00749261 6.97068 0.00109381 10.7933C-0.00136726 12.0675 0.00109381 13.7444 0.00109381 15.9937C0.00109381 22.67 0.00847704 24.6221 0.040471 25.0013C0.151219 26.3355 0.360411 27.175 0.803404 28.0932C1.65001 29.8509 3.26694 31.1704 5.17181 31.6627C5.83138 31.8326 6.55986 31.9261 7.49507 31.9705C7.8913 31.9877 11.9299 32 15.971 32C20.0121 32 24.0532 31.9951 24.4396 31.9754C25.5224 31.9244 26.1513 31.84 26.8465 31.6603C28.7637 31.1655 30.3511 29.8657 31.2149 28.0834C31.6493 27.1873 31.8696 26.3158 31.9692 25.0512C31.9909 24.7755 32 20.3796 32 15.9895C32 11.5988 31.9902 7.21095 31.9685 6.93523C31.8676 5.6502 31.6473 4.78613 31.1989 3.87282C30.831 3.12519 30.4224 2.56686 29.8293 1.99598C28.7708 0.984699 27.4763 0.369262 25.9337 0.14672C25.1863 0.0386494 25.0374 0.00664672 21.2129 0H16.0052Z" fill="url(#paint1_radial)"/>
<path d="M16.001 4.36353C12.8407 4.36353 12.4441 4.37734 11.2029 4.43383C9.96413 4.49056 9.11856 4.68668 8.37868 4.97443C7.61334 5.27165 6.96413 5.66922 6.31734 6.31625C5.67007 6.96304 5.2725 7.61225 4.97431 8.37734C4.68583 9.11746 4.48947 9.96328 4.43371 11.2016C4.37819 12.4428 4.36365 12.8396 4.36365 15.9999C4.36365 19.1601 4.37771 19.5555 4.43395 20.7967C4.49092 22.0355 4.68704 22.8811 4.97456 23.621C5.27201 24.3863 5.66959 25.0355 6.31662 25.6823C6.96316 26.3296 7.61237 26.7281 8.37722 27.0253C9.11759 27.3131 9.96341 27.5092 11.202 27.566C12.4432 27.6224 12.8395 27.6363 15.9995 27.6363C19.16 27.6363 19.5554 27.6224 20.7966 27.566C22.0354 27.5092 22.882 27.3131 23.6223 27.0253C24.3874 26.7281 25.0356 26.3296 25.6822 25.6823C26.3295 25.0355 26.727 24.3863 27.0252 23.6212C27.3113 22.8811 27.5076 22.0353 27.5658 20.797C27.6216 19.5558 27.6361 19.1601 27.6361 15.9999C27.6361 12.8396 27.6216 12.443 27.5658 11.2018C27.5076 9.96304 27.3113 9.11746 27.0252 8.37759C26.727 7.61225 26.3295 6.96304 25.6822 6.31625C25.0349 5.66898 24.3876 5.2714 23.6216 4.97443C22.8798 4.68668 22.0337 4.49056 20.7949 4.43383C19.5537 4.37734 19.1586 4.36353 15.9973 4.36353H16.001ZM14.9571 6.46049C15.2669 6.46001 15.6126 6.46049 16.001 6.46049C19.1079 6.46049 19.4761 6.47165 20.703 6.5274C21.8376 6.57928 22.4533 6.76886 22.8635 6.92813C23.4066 7.13904 23.7937 7.39116 24.2007 7.79843C24.608 8.20571 24.8601 8.59359 25.0715 9.13662C25.2308 9.54631 25.4206 10.1621 25.4723 11.2966C25.528 12.5233 25.5401 12.8918 25.5401 15.9972C25.5401 19.1027 25.528 19.4712 25.4723 20.6978C25.4204 21.8324 25.2308 22.4481 25.0715 22.8578C24.8606 23.4009 24.608 23.7875 24.2007 24.1946C23.7935 24.6018 23.4068 24.854 22.8635 25.0649C22.4538 25.2249 21.8376 25.4139 20.703 25.4658C19.4764 25.5216 19.1079 25.5337 16.001 25.5337C12.8938 25.5337 12.5256 25.5216 11.2989 25.4658C10.1644 25.4135 9.54862 25.2239 9.13819 25.0646C8.59516 24.8537 8.20728 24.6016 7.80001 24.1943C7.39274 23.787 7.14062 23.4001 6.92922 22.8569C6.76995 22.4472 6.58013 21.8314 6.5285 20.6969C6.47274 19.4702 6.46159 19.1017 6.46159 15.9943C6.46159 12.8869 6.47274 12.5204 6.5285 11.2937C6.58037 10.1592 6.76995 9.5434 6.92922 9.13322C7.14013 8.59019 7.39274 8.20231 7.80001 7.79504C8.20728 7.38777 8.59516 7.13565 9.13819 6.92425C9.54837 6.76425 10.1644 6.57516 11.2989 6.52304C12.3724 6.47456 12.7884 6.46001 14.9571 6.45759V6.46049ZM22.2124 8.39262C21.4415 8.39262 20.816 9.01734 20.816 9.7885C20.816 10.5594 21.4415 11.1849 22.2124 11.1849C22.9833 11.1849 23.6087 10.5594 23.6087 9.7885C23.6087 9.01759 22.9833 8.39213 22.2124 8.39213V8.39262ZM16.001 10.0241C12.7009 10.0241 10.0252 12.6998 10.0252 15.9999C10.0252 19.3 12.7009 21.9744 16.001 21.9744C19.3011 21.9744 21.9758 19.3 21.9758 15.9999C21.9758 12.6998 19.3009 10.0241 16.0007 10.0241H16.001ZM16.001 12.1211C18.143 12.1211 19.8798 13.8576 19.8798 15.9999C19.8798 18.142 18.143 19.8787 16.001 19.8787C13.8587 19.8787 12.1222 18.142 12.1222 15.9999C12.1222 13.8576 13.8587 12.1211 16.001 12.1211Z" fill="white"/>
<defs>
<radialGradient id="paint0_radial" cx="0" cy="0" r="1" gradientUnits="userSpaceOnUse" gradientTransform="translate(8.50004 34.4647) rotate(-90) scale(31.7144 29.4969)">
<stop stop-color="#FFDD55"/>
<stop offset="0.1" stop-color="#FFDD55"/>
<stop offset="0.5" stop-color="#FF543E"/>
<stop offset="1" stop-color="#C837AB"/>
</radialGradient>
<radialGradient id="paint1_radial" cx="0" cy="0" r="1" gradientUnits="userSpaceOnUse" gradientTransform="translate(-5.36017 2.30523) rotate(78.6806) scale(14.1765 58.4359)">
<stop stop-color="#3771C8"/>
<stop offset="0.128" stop-color="#3771C8"/>
<stop offset="1" stop-color="#6600FF" stop-opacity="0"/>
</radialGradient>
</defs>
</svg>
