<svg width="44" height="40" viewBox="0 0 44 40" fill="none" xmlns="http://www.w3.org/2000/svg">
<path d="M42.6277 5.79749C40.785 2.08189 35.4767 -0.958148 29.302 0.81183C26.3515 1.64918 23.7772 3.44489 21.9997 5.90558C20.2222 3.44489 17.6479 1.64918 14.6974 0.81183C8.50896 -0.931125 3.21443 2.08189 1.37166 5.79749C-1.21372 10.9993 -0.14106 16.8497 4.56213 23.1865C8.24767 28.1451 13.5147 33.1713 21.1608 39.0082C21.4025 39.1934 21.7001 39.2939 22.0066 39.2939C22.313 39.2939 22.6107 39.1934 22.8523 39.0082C30.4847 33.1849 35.7655 28.1992 39.451 23.1865C44.1404 16.8497 45.2131 10.9993 42.6277 5.79749Z" fill="white"/>
</svg>
