<svg width="263" height="39" viewBox="0 0 263 39" fill="none" xmlns="http://www.w3.org/2000/svg">
<path d="M219.95 19.4841H210.627V22.3196H216.724V22.3807C216.724 25.3874 214.183 27.4529 210.798 27.4529C206.595 27.4529 203.528 24.2752 203.528 20.413C203.528 16.3308 206.925 13.3242 210.517 13.3242C212.387 13.3242 214.464 14.2775 216.003 15.793L217.726 13.2264C215.869 11.4175 213.034 10.2197 210.554 10.2075C204.958 10.2075 200.388 14.8153 200.388 20.413C200.388 25.9985 204.933 30.5695 210.664 30.5695C215.783 30.5695 220.035 26.8785 220.035 21.0241C220.035 20.4741 219.999 19.9363 219.95 19.4841Z" fill="#4ED687"/>
<path d="M237.758 30.2395L232.027 22.3563C234.288 21.623 235.925 19.4108 235.925 16.8686C235.925 13.3608 232.919 10.5375 229.254 10.5375H223.132L223.144 30.2395H226.236V22.613H228.655L233.958 30.2395H237.758ZM226.223 20.0463V13.6053H229.327C231.16 13.6053 232.736 14.9619 232.736 16.7952C232.736 18.5552 231.184 20.0585 229.327 20.0463H226.223Z" fill="#4ED687"/>
<path d="M240.097 30.2395H243.188V10.5375H240.097V30.2395Z" fill="#4ED687"/>
<path d="M252.847 10.5375H247.238V30.2395H252.847C259.102 30.2395 263 26.4629 263 20.413C263 14.3141 259.102 10.5253 252.847 10.5375ZM252.871 27.1596H250.317V13.6053H252.834C257.16 13.6053 259.872 16.2208 259.872 20.4008C259.872 24.5563 257.172 27.1596 252.871 27.1596Z" fill="#4ED687"/>
<path d="M59.7078 30.2396H63.6665V10.5376H59.7078V30.2396Z" fill="#2A363D"/>
<path d="M78.9516 10.4887V21.5253L67.2831 10.1709H67.0876V30.2641H71.0463V19.2275L82.7392 30.6063H82.9225V10.4887H78.9516Z" fill="#2A363D"/>
<path d="M98.2198 14.4365V10.4887H86.3436V30.2641H90.3024V22.3564H97.0957V18.4086H90.3024V14.4365H98.2198Z" fill="#2A363D"/>
<path d="M104.402 26.3041V10.5376H100.444V30.2396H112.32V26.3041H104.402Z" fill="#2A363D"/>
<path d="M121.972 30.6674C126.163 30.6674 129.572 27.4163 129.572 22.9553V10.5376H125.589V22.943C125.589 25.0819 123.866 26.6586 121.96 26.6586C120.054 26.6586 118.356 25.0941 118.356 22.943V10.5376H114.372V22.9553C114.372 27.4163 117.781 30.6674 121.972 30.6674Z" fill="#2A363D"/>
<path d="M144.698 14.4365V10.5376H132.822V30.2396H144.698V26.3041H136.781V22.2342H143.574V18.2864H136.781V14.4365H144.698Z" fill="#2A363D"/>
<path d="M159.47 10.4887V21.5253L147.802 10.1709H147.606V30.2641H151.565V19.2275L163.258 30.6063H163.441V10.4887H159.47Z" fill="#2A363D"/>
<path d="M176.307 30.6185C179.288 30.6185 181.402 29.323 183.137 27.5997L180.864 24.3975C179.557 25.6808 177.993 26.6463 176.185 26.6463C173.142 26.6463 170.014 23.933 170.014 20.4253C170.014 16.9787 173.032 14.1676 176.197 14.1676C177.895 14.1676 179.508 14.9742 180.852 16.2942L183.137 13.1776C181.072 11.1854 178.799 10.1709 176.234 10.1343C170.686 10.1343 166.007 14.8398 166.007 20.4008C166.007 25.9375 170.625 30.6185 176.307 30.6185Z" fill="#2A363D"/>
<path d="M197.237 14.4365V10.5376H185.361V30.2396H197.237V26.3041H189.319V22.2342H196.113V18.2864H189.319V14.4365H197.237Z" fill="#2A363D"/>
<path d="M7.24051 7.24277H31.7473L38.9878 0H0V39H38.9878L38.9878 19.6219H31.7473V31.7572H7.24051V7.24277Z" fill="#4ED687"/>
<rect x="14.3766" y="14.3813" width="10.2343" height="10.2375" fill="#2A363D"/>
</svg>
