<svg width="60" height="47" viewBox="0 0 60 47" fill="none" xmlns="http://www.w3.org/2000/svg">
<path d="M59.7389 35.1096L59.7323 35.103L59.7257 35.0964C56.8215 28.9521 52.3235 25.791 46.3373 25.791C40.351 25.791 35.8531 28.9587 32.9423 35.0964V35.103C32.5867 35.8603 32.5867 36.7428 32.9423 37.5001C35.8531 43.6378 40.351 46.7989 46.3373 46.7989C52.3235 46.7989 56.8215 43.6312 59.7323 37.4935C60.0879 36.7362 60.0879 35.8603 59.7389 35.1096ZM46.3373 42.5841C42.2477 42.5841 39.2644 40.6085 37.0451 36.2949C39.2578 31.9814 42.2477 30.0058 46.3373 30.0058C50.4269 30.0058 53.4102 31.9814 55.6295 36.2949C53.4167 40.6085 50.4269 42.5841 46.3373 42.5841Z" fill="white"/>
<path d="M42.6826 36.328C42.6826 37.3061 43.0711 38.2442 43.7627 38.9358C44.4543 39.6274 45.3924 40.0159 46.3705 40.0159C47.3485 40.0159 48.2866 39.6274 48.9782 38.9358C49.6698 38.2442 50.0584 37.3061 50.0584 36.328C50.0584 35.3499 49.6698 34.4119 48.9782 33.7203C48.2866 33.0287 47.3485 32.6401 46.3705 32.6401C45.3924 32.6401 44.4543 33.0287 43.7627 33.7203C43.0711 34.4119 42.6826 35.3499 42.6826 36.328Z" fill="white"/>
<path d="M5.73768 5.1786H52.0999V21.84H56.8414V2.54438C56.8414 1.37874 55.8997 0.437012 54.7341 0.437012H3.10347C1.93783 0.437012 0.996094 1.37874 0.996094 2.54438V36.7892C0.996094 37.9548 1.93783 38.8965 3.10347 38.8965H26.2846V34.155H5.73768V5.1786Z" fill="white"/>
<path d="M44.5195 12.1655L42.096 9.74198C41.8918 9.53783 41.556 9.53783 41.3518 9.74198L29.2476 21.8594L23.5775 16.1826C23.3733 15.9785 23.0374 15.9785 22.8333 16.1826L13.3304 25.6856C13.1262 25.8897 13.1262 26.2256 13.3304 26.4297L15.7538 28.8532C15.958 29.0574 16.2939 29.0574 16.498 28.8532L23.2021 22.1491L28.8722 27.8259C29.0764 28.03 29.4122 28.03 29.6164 27.8259L44.5195 12.9096C44.7302 12.7055 44.7302 12.3696 44.5195 12.1655Z" fill="white"/>
</svg>
